%FSLAX44Y44*%
%MOMM*%
G71*
G01*
G75*
G04 Layer_Color=7597287*
%ADD10C,0.4000*%
%ADD11C,0.3000*%
%ADD12C,0.5000*%
%ADD13C,0.8000*%
%ADD14C,1.0000*%
%ADD15C,2.0000*%
%ADD16C,1.5000*%
%ADD17C,1.7000*%
%ADD18R,1.7000X1.7000*%
%ADD19C,1.1600*%
%ADD20C,1.8000*%
%ADD21R,1.7000X1.7000*%
%ADD22C,1.8800*%
%ADD23C,2.0000*%
%ADD24C,4.6200*%
%ADD25C,5.3800*%
%ADD26C,1.2200*%
%ADD27C,1.5240*%
%ADD28C,0.9400*%
%ADD29C,0.7000*%
%ADD30C,1.3000*%
%ADD31C,0.2000*%
%ADD32C,0.2540*%
%ADD33C,0.0299*%
%ADD34C,0.0280*%
%ADD35R,0.7500X12.2500*%
%ADD36C,1.9032*%
%ADD37R,1.9032X1.9032*%
%ADD38C,2.0032*%
%ADD39R,1.9032X1.9032*%
%ADD40C,2.0832*%
%ADD41C,2.2032*%
%ADD42C,4.8232*%
%ADD43C,5.5832*%
%ADD44C,1.4232*%
%ADD45C,1.7272*%
%ADD46C,0.5000*%
G36*
X109655Y81377D02*
X110029Y81354D01*
X110380Y81284D01*
X110662Y81214D01*
X110896Y81143D01*
X111083Y81096D01*
X111200Y81050D01*
X111247Y81026D01*
X111575Y80886D01*
X111856Y80698D01*
X112114Y80534D01*
X112348Y80370D01*
X112512Y80206D01*
X112652Y80089D01*
X112746Y79996D01*
X112769Y79972D01*
X112980Y79715D01*
X113191Y79434D01*
X113355Y79153D01*
X113495Y78895D01*
X113589Y78684D01*
X113659Y78497D01*
X113706Y78380D01*
X113729Y78333D01*
X113847Y77958D01*
X113917Y77584D01*
X113987Y77232D01*
X114010Y76904D01*
X114034Y76600D01*
X114057Y76389D01*
Y76296D01*
Y76225D01*
Y76202D01*
Y76178D01*
X114034Y75733D01*
X114010Y75335D01*
X113964Y74984D01*
X113893Y74656D01*
X113823Y74399D01*
X113776Y74188D01*
X113753Y74071D01*
X113729Y74024D01*
X113589Y73673D01*
X113448Y73368D01*
X113285Y73087D01*
X113120Y72853D01*
X112980Y72642D01*
X112863Y72502D01*
X112793Y72408D01*
X112769Y72385D01*
X112512Y72150D01*
X112254Y71940D01*
X112020Y71752D01*
X111762Y71612D01*
X111552Y71495D01*
X111388Y71401D01*
X111294Y71354D01*
X111247Y71331D01*
X110896Y71214D01*
X110568Y71120D01*
X110217Y71073D01*
X109912Y71026D01*
X109655Y71003D01*
X109444Y70979D01*
X109256D01*
X108835Y71003D01*
X108460Y71026D01*
X108132Y71097D01*
X107828Y71167D01*
X107594Y71214D01*
X107406Y71284D01*
X107289Y71307D01*
X107242Y71331D01*
X106915Y71495D01*
X106634Y71659D01*
X106376Y71823D01*
X106165Y72010D01*
X105978Y72150D01*
X105861Y72267D01*
X105767Y72361D01*
X105744Y72385D01*
X105509Y72642D01*
X105322Y72923D01*
X105158Y73204D01*
X105018Y73462D01*
X104924Y73696D01*
X104854Y73860D01*
X104807Y73977D01*
X104783Y74024D01*
X104666Y74399D01*
X104573Y74773D01*
X104526Y75125D01*
X104479Y75452D01*
X104456Y75757D01*
X104432Y75968D01*
Y76061D01*
Y76132D01*
Y76155D01*
Y76178D01*
X104456Y76623D01*
X104479Y77021D01*
X104549Y77396D01*
X104596Y77701D01*
X104666Y77958D01*
X104737Y78169D01*
X104760Y78286D01*
X104783Y78333D01*
X104924Y78684D01*
X105064Y78989D01*
X105228Y79270D01*
X105392Y79504D01*
X105533Y79715D01*
X105650Y79855D01*
X105720Y79949D01*
X105744Y79972D01*
X105978Y80206D01*
X106235Y80417D01*
X106493Y80605D01*
X106727Y80745D01*
X106938Y80862D01*
X107102Y80956D01*
X107196Y81003D01*
X107242Y81026D01*
X107594Y81143D01*
X107922Y81237D01*
X108273Y81307D01*
X108577Y81354D01*
X108858Y81377D01*
X109069Y81401D01*
X109256D01*
X109655Y81377D01*
D02*
G37*
G36*
X163049Y81237D02*
X163143Y81214D01*
X163213Y81167D01*
X163237Y81143D01*
X163307Y81073D01*
X163354Y81003D01*
X163401Y80933D01*
Y80909D01*
X165532Y74352D01*
X165625Y74094D01*
X165696Y73860D01*
X165719Y73766D01*
X165743Y73696D01*
X165766Y73673D01*
Y73649D01*
X165836Y73415D01*
X165883Y73181D01*
X165907Y73111D01*
Y73040D01*
X165930Y72993D01*
Y72970D01*
X165977Y73228D01*
X166000Y73439D01*
X166024Y73532D01*
Y73602D01*
X166047Y73626D01*
Y73649D01*
X166094Y73907D01*
X166164Y74118D01*
X166187Y74211D01*
Y74282D01*
X166211Y74328D01*
Y74352D01*
X168131Y80862D01*
X168178Y80956D01*
X168248Y81050D01*
X168295Y81096D01*
X168319Y81120D01*
X168436Y81190D01*
X168553Y81214D01*
X168647Y81237D01*
X170098D01*
X166820Y71120D01*
X165462D01*
X165368Y71143D01*
X165274Y71167D01*
X165157Y71284D01*
X165087Y71401D01*
X165063Y71424D01*
Y71448D01*
X162792Y78310D01*
X162745Y78474D01*
X162698Y78614D01*
X162675Y78708D01*
Y78755D01*
X162628Y78942D01*
X162581Y79106D01*
X162558Y79200D01*
Y79246D01*
X162511Y79082D01*
X162487Y78918D01*
X162464Y78825D01*
Y78778D01*
X162417Y78614D01*
X162394Y78450D01*
X162347Y78356D01*
Y78310D01*
X160099Y71448D01*
X160052Y71331D01*
X160005Y71260D01*
X159888Y71167D01*
X159794Y71120D01*
X158342D01*
X155064Y81237D01*
X156398D01*
X156539Y81214D01*
X156633Y81190D01*
X156703Y81143D01*
X156726Y81120D01*
X156820Y81050D01*
X156867Y80956D01*
X156914Y80886D01*
Y80862D01*
X158881Y74352D01*
X158951Y74118D01*
X158998Y73883D01*
X159021Y73813D01*
X159045Y73743D01*
X159068Y73696D01*
Y73673D01*
X159115Y73415D01*
X159162Y73204D01*
Y73111D01*
X159185Y73040D01*
Y73017D01*
Y72993D01*
X159256Y73228D01*
X159302Y73439D01*
X159349Y73602D01*
X159373Y73626D01*
Y73649D01*
X159419Y73907D01*
X159490Y74141D01*
X159513Y74211D01*
X159537Y74282D01*
X159560Y74328D01*
Y74352D01*
X161644Y80909D01*
X161691Y81003D01*
X161761Y81073D01*
X161808Y81120D01*
X161832Y81143D01*
X161925Y81214D01*
X162019Y81237D01*
X162113Y81260D01*
X162909D01*
X163049Y81237D01*
D02*
G37*
G36*
X126422Y73462D02*
X126586Y73439D01*
X126680Y73392D01*
X126727Y73368D01*
X126867Y73274D01*
X126985Y73204D01*
X127078Y73111D01*
X127101Y73087D01*
X127219Y72947D01*
X127289Y72830D01*
X127336Y72736D01*
X127359Y72689D01*
X127406Y72525D01*
X127429Y72385D01*
X127453Y72267D01*
Y72244D01*
Y72221D01*
X127429Y72033D01*
X127406Y71869D01*
X127383Y71752D01*
X127359Y71705D01*
X127289Y71565D01*
X127195Y71448D01*
X127125Y71354D01*
X127101Y71331D01*
X126985Y71214D01*
X126844Y71143D01*
X126750Y71097D01*
X126727Y71073D01*
X126539Y71026D01*
X126399Y71003D01*
X126282Y70979D01*
X126235D01*
X126048Y71003D01*
X125884Y71026D01*
X125790Y71050D01*
X125743Y71073D01*
X125579Y71143D01*
X125462Y71237D01*
X125369Y71307D01*
X125345Y71331D01*
X125228Y71448D01*
X125158Y71588D01*
X125111Y71682D01*
X125087Y71705D01*
X125017Y71893D01*
X124994Y72057D01*
X124970Y72174D01*
Y72197D01*
Y72221D01*
X124994Y72408D01*
X125017Y72548D01*
X125064Y72642D01*
X125087Y72689D01*
X125158Y72853D01*
X125252Y72970D01*
X125322Y73064D01*
X125345Y73087D01*
X125486Y73204D01*
X125603Y73298D01*
X125696Y73345D01*
X125743Y73368D01*
X125907Y73439D01*
X126071Y73462D01*
X126188Y73485D01*
X126235D01*
X126422Y73462D01*
D02*
G37*
G36*
X153003D02*
X153167Y73439D01*
X153260Y73392D01*
X153307Y73368D01*
X153448Y73274D01*
X153565Y73204D01*
X153659Y73111D01*
X153682Y73087D01*
X153799Y72947D01*
X153869Y72830D01*
X153916Y72736D01*
X153940Y72689D01*
X153986Y72525D01*
X154010Y72385D01*
X154033Y72267D01*
Y72244D01*
Y72221D01*
X154010Y72033D01*
X153986Y71869D01*
X153963Y71752D01*
X153940Y71705D01*
X153869Y71565D01*
X153776Y71448D01*
X153705Y71354D01*
X153682Y71331D01*
X153565Y71214D01*
X153424Y71143D01*
X153331Y71097D01*
X153307Y71073D01*
X153120Y71026D01*
X152979Y71003D01*
X152862Y70979D01*
X152815D01*
X152628Y71003D01*
X152464Y71026D01*
X152370Y71050D01*
X152324Y71073D01*
X152160Y71143D01*
X152043Y71237D01*
X151949Y71307D01*
X151925Y71331D01*
X151808Y71448D01*
X151738Y71588D01*
X151691Y71682D01*
X151668Y71705D01*
X151598Y71893D01*
X151574Y72057D01*
X151551Y72174D01*
Y72197D01*
Y72221D01*
X151574Y72408D01*
X151598Y72548D01*
X151644Y72642D01*
X151668Y72689D01*
X151738Y72853D01*
X151832Y72970D01*
X151902Y73064D01*
X151925Y73087D01*
X152066Y73204D01*
X152183Y73298D01*
X152277Y73345D01*
X152324Y73368D01*
X152487Y73439D01*
X152652Y73462D01*
X152769Y73485D01*
X152815D01*
X153003Y73462D01*
D02*
G37*
G36*
X119022Y81377D02*
X119397Y81331D01*
X119748Y81284D01*
X120052Y81214D01*
X120287Y81120D01*
X120474Y81073D01*
X120591Y81026D01*
X120638Y81003D01*
X120966Y80839D01*
X121247Y80675D01*
X121504Y80487D01*
X121715Y80300D01*
X121903Y80136D01*
X122020Y80019D01*
X122113Y79925D01*
X122137Y79902D01*
X122347Y79644D01*
X122535Y79363D01*
X122699Y79082D01*
X122816Y78825D01*
X122910Y78614D01*
X123003Y78427D01*
X123027Y78310D01*
X123050Y78263D01*
X123144Y77888D01*
X123214Y77537D01*
X123284Y77186D01*
X123308Y76858D01*
X123331Y76577D01*
X123355Y76366D01*
Y76225D01*
Y76202D01*
Y76178D01*
X123331Y75733D01*
X123308Y75312D01*
X123261Y74937D01*
X123191Y74609D01*
X123120Y74328D01*
X123074Y74118D01*
X123050Y74001D01*
X123027Y73954D01*
X122886Y73602D01*
X122722Y73298D01*
X122582Y73017D01*
X122418Y72783D01*
X122301Y72572D01*
X122184Y72432D01*
X122113Y72338D01*
X122090Y72314D01*
X121856Y72080D01*
X121598Y71893D01*
X121364Y71705D01*
X121153Y71565D01*
X120942Y71448D01*
X120802Y71378D01*
X120708Y71331D01*
X120661Y71307D01*
X120357Y71190D01*
X120029Y71120D01*
X119748Y71050D01*
X119467Y71026D01*
X119233Y71003D01*
X119069Y70979D01*
X118905D01*
X118507Y71003D01*
X118109Y71050D01*
X117757Y71097D01*
X117453Y71167D01*
X117195Y71237D01*
X116985Y71307D01*
X116868Y71331D01*
X116821Y71354D01*
X116469Y71518D01*
X116142Y71705D01*
X115861Y71893D01*
X115626Y72080D01*
X115416Y72244D01*
X115275Y72385D01*
X115181Y72502D01*
X115158Y72525D01*
X115673Y73181D01*
X115767Y73298D01*
X115861Y73345D01*
X115954Y73368D01*
X116001D01*
X116142Y73345D01*
X116259Y73298D01*
X116352Y73228D01*
X116376Y73204D01*
X116516Y73087D01*
X116657Y72970D01*
X116774Y72876D01*
X116797Y72853D01*
X116821D01*
X117055Y72712D01*
X117266Y72619D01*
X117383Y72572D01*
X117453Y72525D01*
X117500Y72502D01*
X117523D01*
X117874Y72432D01*
X118226Y72385D01*
X118366Y72361D01*
X118601D01*
X119069Y72408D01*
X119280Y72432D01*
X119467Y72478D01*
X119607Y72525D01*
X119725Y72548D01*
X119795Y72595D01*
X119818D01*
X120193Y72830D01*
X120357Y72947D01*
X120497Y73064D01*
X120591Y73181D01*
X120685Y73274D01*
X120732Y73321D01*
X120755Y73345D01*
X121013Y73743D01*
X121177Y74118D01*
X121247Y74282D01*
X121294Y74422D01*
X121341Y74516D01*
Y74539D01*
X121458Y75101D01*
X121481Y75382D01*
X121504Y75640D01*
X121528Y75851D01*
Y76014D01*
Y76132D01*
Y76178D01*
Y76506D01*
X121504Y76811D01*
X121458Y77068D01*
X121434Y77303D01*
X121387Y77513D01*
X121364Y77654D01*
X121341Y77748D01*
Y77771D01*
X121270Y78028D01*
X121177Y78263D01*
X121083Y78450D01*
X120989Y78637D01*
X120896Y78778D01*
X120849Y78872D01*
X120802Y78942D01*
X120779Y78965D01*
X120615Y79153D01*
X120451Y79293D01*
X120310Y79434D01*
X120146Y79551D01*
X120006Y79621D01*
X119912Y79691D01*
X119842Y79738D01*
X119818D01*
X119584Y79832D01*
X119373Y79902D01*
X119139Y79949D01*
X118952Y79996D01*
X118764D01*
X118624Y80019D01*
X118507D01*
X118132Y79996D01*
X117968Y79972D01*
X117828Y79949D01*
X117711Y79925D01*
X117640Y79902D01*
X117593Y79879D01*
X117570D01*
X117289Y79785D01*
X117102Y79691D01*
X116961Y79621D01*
X116914Y79598D01*
X116727Y79504D01*
X116587Y79410D01*
X116493Y79363D01*
X116469Y79340D01*
X116329Y79270D01*
X116235Y79246D01*
X116165Y79223D01*
X116025D01*
X115954Y79246D01*
X115931Y79270D01*
X115907D01*
X115790Y79387D01*
X115767Y79410D01*
X115743Y79434D01*
X115275Y80066D01*
X115509Y80300D01*
X115767Y80487D01*
X116001Y80652D01*
X116235Y80792D01*
X116423Y80909D01*
X116587Y80979D01*
X116680Y81026D01*
X116727Y81050D01*
X117031Y81167D01*
X117359Y81260D01*
X117687Y81307D01*
X117968Y81354D01*
X118226Y81377D01*
X118413Y81401D01*
X118601D01*
X119022Y81377D01*
D02*
G37*
G36*
X149162Y71120D02*
X148038D01*
X147921Y71143D01*
X147804Y71190D01*
X147663Y71307D01*
X147593Y71448D01*
X147570Y71471D01*
Y71495D01*
X147476Y72408D01*
X147289Y72174D01*
X147078Y71963D01*
X146890Y71776D01*
X146703Y71635D01*
X146539Y71518D01*
X146422Y71424D01*
X146328Y71378D01*
X146305Y71354D01*
X146024Y71237D01*
X145743Y71143D01*
X145462Y71073D01*
X145204Y71026D01*
X144970Y71003D01*
X144783Y70979D01*
X144619D01*
X144244Y71003D01*
X143916Y71050D01*
X143588Y71097D01*
X143331Y71190D01*
X143097Y71260D01*
X142933Y71307D01*
X142839Y71354D01*
X142792Y71378D01*
X142488Y71542D01*
X142230Y71729D01*
X141996Y71893D01*
X141785Y72080D01*
X141621Y72244D01*
X141504Y72361D01*
X141434Y72455D01*
X141410Y72478D01*
X141200Y72759D01*
X141036Y73040D01*
X140895Y73321D01*
X140755Y73579D01*
X140661Y73790D01*
X140591Y73977D01*
X140567Y74094D01*
X140544Y74141D01*
X140450Y74516D01*
X140357Y74890D01*
X140310Y75242D01*
X140286Y75546D01*
X140263Y75827D01*
X140239Y76038D01*
Y76178D01*
Y76202D01*
Y76225D01*
Y76694D01*
X140286Y77115D01*
X140333Y77490D01*
X140380Y77818D01*
X140427Y78075D01*
X140474Y78286D01*
X140497Y78403D01*
X140520Y78450D01*
X140638Y78801D01*
X140755Y79106D01*
X140895Y79387D01*
X141012Y79621D01*
X141129Y79808D01*
X141200Y79949D01*
X141270Y80043D01*
X141293Y80066D01*
X141481Y80300D01*
X141692Y80487D01*
X141902Y80675D01*
X142090Y80815D01*
X142254Y80909D01*
X142394Y80979D01*
X142488Y81026D01*
X142511Y81050D01*
X142769Y81167D01*
X143050Y81260D01*
X143307Y81307D01*
X143565Y81354D01*
X143776Y81377D01*
X143940Y81401D01*
X144080D01*
X144455Y81377D01*
X144806Y81331D01*
X145134Y81260D01*
X145415Y81167D01*
X145649Y81073D01*
X145813Y81003D01*
X145907Y80956D01*
X145954Y80933D01*
X146235Y80745D01*
X146516Y80558D01*
X146750Y80370D01*
X146961Y80183D01*
X147148Y80019D01*
X147265Y79879D01*
X147359Y79785D01*
X147382Y79762D01*
Y85827D01*
X149162D01*
Y71120D01*
D02*
G37*
G36*
X134806Y81401D02*
X135158Y81354D01*
X135462Y81284D01*
X135743Y81214D01*
X135977Y81143D01*
X136141Y81073D01*
X136235Y81026D01*
X136282Y81003D01*
X136563Y80839D01*
X136820Y80652D01*
X137055Y80464D01*
X137265Y80300D01*
X137429Y80136D01*
X137546Y79996D01*
X137617Y79902D01*
X137640Y79879D01*
X137827Y79598D01*
X138015Y79317D01*
X138155Y79036D01*
X138272Y78778D01*
X138389Y78567D01*
X138460Y78380D01*
X138483Y78263D01*
X138506Y78216D01*
X138600Y77841D01*
X138670Y77490D01*
X138717Y77139D01*
X138741Y76811D01*
X138764Y76530D01*
X138787Y76319D01*
Y76178D01*
Y76155D01*
Y76132D01*
X138764Y75663D01*
X138741Y75242D01*
X138694Y74867D01*
X138647Y74539D01*
X138600Y74282D01*
X138577Y74071D01*
X138530Y73954D01*
Y73907D01*
X138413Y73556D01*
X138296Y73251D01*
X138155Y72970D01*
X138038Y72736D01*
X137921Y72548D01*
X137827Y72408D01*
X137781Y72314D01*
X137757Y72291D01*
X137570Y72057D01*
X137359Y71869D01*
X137172Y71682D01*
X136984Y71565D01*
X136820Y71448D01*
X136680Y71378D01*
X136586Y71331D01*
X136563Y71307D01*
X136282Y71190D01*
X136001Y71120D01*
X135743Y71050D01*
X135485Y71026D01*
X135275Y71003D01*
X135111Y70979D01*
X134970D01*
X134596Y71003D01*
X134244Y71050D01*
X133916Y71120D01*
X133659Y71214D01*
X133425Y71284D01*
X133261Y71354D01*
X133167Y71401D01*
X133120Y71424D01*
X132816Y71612D01*
X132535Y71799D01*
X132301Y72010D01*
X132066Y72197D01*
X131902Y72361D01*
X131762Y72502D01*
X131668Y72595D01*
X131645Y72619D01*
Y67701D01*
X129865D01*
Y81237D01*
X130942D01*
X131059Y81214D01*
X131176Y81190D01*
X131317Y81050D01*
X131387Y80933D01*
X131411Y80886D01*
Y80862D01*
X131528Y80089D01*
X131739Y80324D01*
X131949Y80511D01*
X132160Y80675D01*
X132347Y80815D01*
X132535Y80933D01*
X132652Y81003D01*
X132746Y81050D01*
X132769Y81073D01*
X133027Y81190D01*
X133308Y81284D01*
X133589Y81331D01*
X133846Y81377D01*
X134080Y81401D01*
X134268Y81424D01*
X134432D01*
X134806Y81401D01*
D02*
G37*
G36*
X98039Y81377D02*
X98343Y81331D01*
X98624Y81260D01*
X98858Y81190D01*
X99046Y81096D01*
X99210Y81026D01*
X99303Y80979D01*
X99327Y80956D01*
X99585Y80792D01*
X99819Y80605D01*
X100029Y80394D01*
X100217Y80230D01*
X100357Y80066D01*
X100474Y79949D01*
X100545Y79855D01*
X100568Y79832D01*
X100709Y80862D01*
X100755Y80979D01*
X100826Y81073D01*
X100896Y81143D01*
X100966Y81190D01*
X101107Y81237D01*
X102231D01*
Y71120D01*
X100451D01*
Y78637D01*
X100264Y78848D01*
X100100Y79036D01*
X99912Y79200D01*
X99748Y79340D01*
X99631Y79457D01*
X99514Y79527D01*
X99444Y79574D01*
X99420Y79598D01*
X99210Y79715D01*
X98999Y79808D01*
X98788Y79879D01*
X98601Y79925D01*
X98437Y79949D01*
X98320Y79972D01*
X98203D01*
X97875Y79949D01*
X97594Y79879D01*
X97336Y79785D01*
X97126Y79668D01*
X96985Y79551D01*
X96868Y79457D01*
X96798Y79387D01*
X96774Y79363D01*
X96610Y79106D01*
X96493Y78825D01*
X96399Y78520D01*
X96353Y78216D01*
X96306Y77958D01*
X96282Y77748D01*
Y77584D01*
Y77560D01*
Y77537D01*
Y71120D01*
X94503D01*
Y77537D01*
X94479Y77958D01*
X94456Y78146D01*
X94409Y78286D01*
X94385Y78427D01*
X94362Y78520D01*
X94339Y78567D01*
Y78591D01*
X94198Y78895D01*
X94034Y79153D01*
X93964Y79223D01*
X93917Y79293D01*
X93894Y79317D01*
X93870Y79340D01*
X93636Y79551D01*
X93402Y79691D01*
X93308Y79738D01*
X93238Y79785D01*
X93191Y79808D01*
X93168D01*
X92863Y79902D01*
X92606Y79949D01*
X92489Y79972D01*
X92325D01*
X91973Y79949D01*
X91669Y79879D01*
X91411Y79762D01*
X91201Y79668D01*
X91037Y79551D01*
X90920Y79434D01*
X90849Y79363D01*
X90826Y79340D01*
X90639Y79082D01*
X90521Y78801D01*
X90428Y78497D01*
X90358Y78216D01*
X90311Y77958D01*
X90287Y77724D01*
Y77584D01*
Y77560D01*
Y77537D01*
Y71120D01*
X88507D01*
Y77560D01*
Y77888D01*
X88554Y78193D01*
X88578Y78474D01*
X88624Y78708D01*
X88671Y78895D01*
X88695Y79059D01*
X88742Y79153D01*
Y79176D01*
X88835Y79434D01*
X88952Y79668D01*
X89069Y79879D01*
X89163Y80066D01*
X89257Y80206D01*
X89350Y80300D01*
X89397Y80370D01*
X89421Y80394D01*
X89772Y80722D01*
X90100Y80956D01*
X90240Y81026D01*
X90358Y81096D01*
X90451Y81143D01*
X90475D01*
X90709Y81237D01*
X90966Y81284D01*
X91201Y81331D01*
X91435Y81377D01*
X91622D01*
X91763Y81401D01*
X91903D01*
X92254Y81377D01*
X92582Y81331D01*
X92699Y81307D01*
X92793Y81284D01*
X92863Y81260D01*
X92887D01*
X93238Y81143D01*
X93542Y81026D01*
X93659Y80979D01*
X93753Y80933D01*
X93800Y80909D01*
X93823Y80886D01*
X94128Y80675D01*
X94362Y80464D01*
X94456Y80370D01*
X94526Y80300D01*
X94573Y80253D01*
X94596Y80230D01*
X94807Y79902D01*
X94994Y79598D01*
X95041Y79481D01*
X95088Y79363D01*
X95135Y79293D01*
Y79270D01*
X95252Y79621D01*
X95393Y79925D01*
X95556Y80183D01*
X95697Y80417D01*
X95837Y80581D01*
X95955Y80722D01*
X96025Y80792D01*
X96048Y80815D01*
X96306Y81003D01*
X96563Y81143D01*
X96845Y81260D01*
X97126Y81331D01*
X97360Y81377D01*
X97547Y81401D01*
X97711D01*
X98039Y81377D01*
D02*
G37*
G36*
X178342Y81237D02*
X178436Y81214D01*
X178506Y81167D01*
X178529Y81143D01*
X178599Y81073D01*
X178646Y81003D01*
X178693Y80933D01*
Y80909D01*
X180824Y74352D01*
X180918Y74094D01*
X180988Y73860D01*
X181012Y73766D01*
X181035Y73696D01*
X181059Y73673D01*
Y73649D01*
X181129Y73415D01*
X181176Y73181D01*
X181199Y73111D01*
Y73040D01*
X181222Y72993D01*
Y72970D01*
X181269Y73228D01*
X181293Y73439D01*
X181316Y73532D01*
Y73602D01*
X181339Y73626D01*
Y73649D01*
X181386Y73907D01*
X181457Y74118D01*
X181480Y74211D01*
Y74282D01*
X181503Y74328D01*
Y74352D01*
X183424Y80862D01*
X183471Y80956D01*
X183541Y81050D01*
X183588Y81096D01*
X183611Y81120D01*
X183728Y81190D01*
X183845Y81214D01*
X183939Y81237D01*
X185391D01*
X182112Y71120D01*
X180754D01*
X180660Y71143D01*
X180567Y71167D01*
X180450Y71284D01*
X180379Y71401D01*
X180356Y71424D01*
Y71448D01*
X178084Y78310D01*
X178037Y78474D01*
X177991Y78614D01*
X177967Y78708D01*
Y78755D01*
X177920Y78942D01*
X177873Y79106D01*
X177850Y79200D01*
Y79246D01*
X177803Y79082D01*
X177780Y78918D01*
X177756Y78825D01*
Y78778D01*
X177710Y78614D01*
X177686Y78450D01*
X177639Y78356D01*
Y78310D01*
X175391Y71448D01*
X175344Y71331D01*
X175297Y71260D01*
X175180Y71167D01*
X175087Y71120D01*
X173635D01*
X170356Y81237D01*
X171691D01*
X171831Y81214D01*
X171925Y81190D01*
X171995Y81143D01*
X172019Y81120D01*
X172113Y81050D01*
X172159Y80956D01*
X172206Y80886D01*
Y80862D01*
X174173Y74352D01*
X174244Y74118D01*
X174290Y73883D01*
X174314Y73813D01*
X174337Y73743D01*
X174361Y73696D01*
Y73673D01*
X174408Y73415D01*
X174454Y73204D01*
Y73111D01*
X174478Y73040D01*
Y73017D01*
Y72993D01*
X174548Y73228D01*
X174595Y73439D01*
X174642Y73602D01*
X174665Y73626D01*
Y73649D01*
X174712Y73907D01*
X174782Y74141D01*
X174806Y74211D01*
X174829Y74282D01*
X174853Y74328D01*
Y74352D01*
X176937Y80909D01*
X176984Y81003D01*
X177054Y81073D01*
X177101Y81120D01*
X177124Y81143D01*
X177218Y81214D01*
X177311Y81237D01*
X177405Y81260D01*
X178201D01*
X178342Y81237D01*
D02*
G37*
G36*
X193634D02*
X193728Y81214D01*
X193798Y81167D01*
X193822Y81143D01*
X193892Y81073D01*
X193939Y81003D01*
X193986Y80933D01*
Y80909D01*
X196117Y74352D01*
X196210Y74094D01*
X196281Y73860D01*
X196304Y73766D01*
X196327Y73696D01*
X196351Y73673D01*
Y73649D01*
X196421Y73415D01*
X196468Y73181D01*
X196492Y73111D01*
Y73040D01*
X196515Y72993D01*
Y72970D01*
X196562Y73228D01*
X196585Y73439D01*
X196609Y73532D01*
Y73602D01*
X196632Y73626D01*
Y73649D01*
X196679Y73907D01*
X196749Y74118D01*
X196772Y74211D01*
Y74282D01*
X196796Y74328D01*
Y74352D01*
X198716Y80862D01*
X198763Y80956D01*
X198833Y81050D01*
X198880Y81096D01*
X198904Y81120D01*
X199021Y81190D01*
X199138Y81214D01*
X199231Y81237D01*
X200683D01*
X197405Y71120D01*
X196047D01*
X195953Y71143D01*
X195859Y71167D01*
X195742Y71284D01*
X195672Y71401D01*
X195648Y71424D01*
Y71448D01*
X193377Y78310D01*
X193330Y78474D01*
X193283Y78614D01*
X193260Y78708D01*
Y78755D01*
X193213Y78942D01*
X193166Y79106D01*
X193143Y79200D01*
Y79246D01*
X193096Y79082D01*
X193072Y78918D01*
X193049Y78825D01*
Y78778D01*
X193002Y78614D01*
X192979Y78450D01*
X192932Y78356D01*
Y78310D01*
X190684Y71448D01*
X190637Y71331D01*
X190590Y71260D01*
X190473Y71167D01*
X190379Y71120D01*
X188927D01*
X185648Y81237D01*
X186983D01*
X187124Y81214D01*
X187218Y81190D01*
X187288Y81143D01*
X187311Y81120D01*
X187405Y81050D01*
X187452Y80956D01*
X187499Y80886D01*
Y80862D01*
X189466Y74352D01*
X189536Y74118D01*
X189583Y73883D01*
X189606Y73813D01*
X189630Y73743D01*
X189653Y73696D01*
Y73673D01*
X189700Y73415D01*
X189747Y73204D01*
Y73111D01*
X189770Y73040D01*
Y73017D01*
Y72993D01*
X189841Y73228D01*
X189887Y73439D01*
X189934Y73602D01*
X189958Y73626D01*
Y73649D01*
X190004Y73907D01*
X190075Y74141D01*
X190098Y74211D01*
X190121Y74282D01*
X190145Y74328D01*
Y74352D01*
X192229Y80909D01*
X192276Y81003D01*
X192346Y81073D01*
X192393Y81120D01*
X192417Y81143D01*
X192510Y81214D01*
X192604Y81237D01*
X192698Y81260D01*
X193494D01*
X193634Y81237D01*
D02*
G37*
%LPC*%
G36*
X134174Y80043D02*
X133776D01*
X133518Y79996D01*
X133308Y79949D01*
X133097Y79902D01*
X132956Y79855D01*
X132816Y79808D01*
X132746Y79785D01*
X132722Y79762D01*
X132511Y79644D01*
X132301Y79504D01*
X132113Y79340D01*
X131973Y79200D01*
X131832Y79059D01*
X131739Y78942D01*
X131668Y78872D01*
X131645Y78848D01*
Y73930D01*
X131856Y73673D01*
X132066Y73439D01*
X132277Y73251D01*
X132465Y73087D01*
X132628Y72970D01*
X132746Y72876D01*
X132839Y72830D01*
X132863Y72806D01*
X133120Y72666D01*
X133378Y72572D01*
X133635Y72502D01*
X133870Y72455D01*
X134080Y72432D01*
X134244Y72408D01*
X134385D01*
X134830Y72432D01*
X135017Y72478D01*
X135181Y72502D01*
X135322Y72548D01*
X135415Y72572D01*
X135485Y72595D01*
X135509D01*
X135837Y72783D01*
X136071Y72993D01*
X136165Y73111D01*
X136235Y73181D01*
X136282Y73228D01*
X136305Y73251D01*
X136516Y73626D01*
X136680Y74024D01*
X136727Y74164D01*
X136774Y74305D01*
X136797Y74399D01*
Y74422D01*
X136844Y74703D01*
X136891Y75008D01*
X136914Y75289D01*
X136937Y75546D01*
X136961Y75780D01*
Y75968D01*
Y76085D01*
Y76132D01*
X136937Y76787D01*
X136844Y77373D01*
X136727Y77865D01*
X136586Y78286D01*
X136446Y78591D01*
X136329Y78825D01*
X136235Y78965D01*
X136212Y79012D01*
X136071Y79200D01*
X135907Y79363D01*
X135556Y79598D01*
X135181Y79785D01*
X134830Y79925D01*
X134525Y79996D01*
X134268Y80019D01*
X134174Y80043D01*
D02*
G37*
G36*
X144806Y79972D02*
X144666D01*
X144244Y79949D01*
X144057Y79902D01*
X143893Y79879D01*
X143776Y79832D01*
X143659Y79785D01*
X143612Y79762D01*
X143588D01*
X143401Y79668D01*
X143260Y79574D01*
X143003Y79340D01*
X142909Y79246D01*
X142816Y79153D01*
X142792Y79106D01*
X142769Y79082D01*
X142652Y78895D01*
X142535Y78708D01*
X142371Y78333D01*
X142324Y78169D01*
X142277Y78028D01*
X142254Y77935D01*
Y77912D01*
X142183Y77630D01*
X142136Y77349D01*
X142113Y77068D01*
X142090Y76811D01*
X142066Y76577D01*
Y76389D01*
Y76272D01*
Y76225D01*
X142090Y75570D01*
X142183Y75008D01*
X142300Y74516D01*
X142441Y74094D01*
X142605Y73790D01*
X142722Y73556D01*
X142816Y73415D01*
X142839Y73392D01*
Y73368D01*
X142979Y73181D01*
X143143Y73040D01*
X143495Y72783D01*
X143846Y72619D01*
X144197Y72478D01*
X144525Y72408D01*
X144783Y72385D01*
X144876Y72361D01*
X145017D01*
X145274Y72385D01*
X145532Y72408D01*
X145743Y72455D01*
X145954Y72502D01*
X146094Y72548D01*
X146235Y72572D01*
X146305Y72619D01*
X146328D01*
X146539Y72736D01*
X146750Y72876D01*
X146914Y73040D01*
X147078Y73204D01*
X147195Y73345D01*
X147289Y73439D01*
X147359Y73532D01*
X147382Y73556D01*
Y78427D01*
X147171Y78684D01*
X146961Y78918D01*
X146773Y79106D01*
X146586Y79270D01*
X146422Y79387D01*
X146305Y79481D01*
X146211Y79527D01*
X146188Y79551D01*
X145930Y79691D01*
X145673Y79785D01*
X145415Y79879D01*
X145181Y79925D01*
X144970Y79949D01*
X144806Y79972D01*
D02*
G37*
G36*
X109374Y79996D02*
X108975D01*
X108718Y79949D01*
X108273Y79832D01*
X107875Y79668D01*
X107570Y79481D01*
X107313Y79293D01*
X107149Y79129D01*
X107032Y79012D01*
X107008Y78989D01*
Y78965D01*
X106751Y78567D01*
X106563Y78099D01*
X106446Y77630D01*
X106353Y77186D01*
X106306Y76787D01*
X106282Y76600D01*
X106259Y76459D01*
Y76319D01*
Y76225D01*
Y76178D01*
Y76155D01*
X106282Y75523D01*
X106376Y74961D01*
X106493Y74469D01*
X106634Y74071D01*
X106774Y73766D01*
X106891Y73532D01*
X106985Y73392D01*
X107008Y73368D01*
Y73345D01*
X107313Y73017D01*
X107664Y72783D01*
X108039Y72595D01*
X108413Y72478D01*
X108741Y72408D01*
X108999Y72385D01*
X109116Y72361D01*
X109256D01*
X109537Y72385D01*
X109772Y72408D01*
X110006Y72455D01*
X110193Y72502D01*
X110357Y72548D01*
X110474Y72572D01*
X110545Y72619D01*
X110568D01*
X110943Y72853D01*
X111107Y72970D01*
X111247Y73087D01*
X111364Y73181D01*
X111434Y73274D01*
X111481Y73321D01*
X111505Y73345D01*
X111739Y73743D01*
X111926Y74118D01*
X111996Y74282D01*
X112020Y74422D01*
X112067Y74516D01*
Y74539D01*
X112160Y75101D01*
X112184Y75359D01*
X112207Y75616D01*
X112231Y75827D01*
Y76014D01*
Y76108D01*
Y76155D01*
Y76483D01*
X112207Y76787D01*
X112184Y77068D01*
X112137Y77303D01*
X112114Y77490D01*
X112090Y77654D01*
X112067Y77748D01*
Y77771D01*
X111996Y78028D01*
X111903Y78263D01*
X111809Y78474D01*
X111715Y78637D01*
X111622Y78778D01*
X111575Y78872D01*
X111528Y78942D01*
X111505Y78965D01*
X111200Y79293D01*
X110896Y79527D01*
X110755Y79598D01*
X110662Y79668D01*
X110591Y79715D01*
X110568D01*
X110357Y79808D01*
X110123Y79879D01*
X109912Y79925D01*
X109701Y79972D01*
X109514D01*
X109374Y79996D01*
D02*
G37*
%LPD*%
D31*
X495300Y38100D02*
X647700D01*
X495300Y12700D02*
X647700D01*
X495300D02*
Y38100D01*
X647700Y12700D02*
Y38100D01*
X317500D02*
X469900D01*
X317500Y12700D02*
X469900D01*
X317500D02*
Y38100D01*
X469900Y12700D02*
Y38100D01*
X647700Y495300D02*
Y520700D01*
X444500Y495300D02*
X647700D01*
X444500D02*
Y520700D01*
X647700D01*
X429260Y495300D02*
Y520700D01*
X226060Y495300D02*
X429260D01*
X226060D02*
Y520700D01*
X429260D01*
M02*
