%FSLAX44Y44*%
%MOMM*%
G71*
G01*
G75*
G04 Layer_Physical_Order=2*
G04 Layer_Color=16711680*
%ADD10C,0.4000*%
%ADD11C,0.3000*%
%ADD12C,0.5000*%
%ADD13C,0.8000*%
%ADD14C,1.0000*%
%ADD15C,2.0000*%
%ADD16C,1.5000*%
%ADD17C,1.7000*%
%ADD18R,1.7000X1.7000*%
%ADD19C,1.1600*%
%ADD20C,1.8000*%
%ADD21R,1.7000X1.7000*%
%ADD22C,1.8800*%
%ADD23C,2.0000*%
%ADD24C,4.6200*%
%ADD25C,5.3800*%
%ADD26C,1.2200*%
%ADD27C,1.5240*%
%ADD28C,0.9400*%
%ADD29C,0.7000*%
%ADD30C,1.3000*%
D10*
X652130Y508000D02*
G03*
X635000Y525130I-17130J0D01*
G01*
X647500Y508000D02*
G03*
X647500Y508000I-12500J0D01*
G01*
X632100Y486340D02*
G03*
X632100Y486340I-9800J0D01*
G01*
X622100Y508000D02*
G03*
X622100Y508000I-12500J0D01*
G01*
X632100Y460340D02*
G03*
X632100Y460340I-9800J0D01*
G01*
Y434340D02*
G03*
X632100Y434340I-9800J0D01*
G01*
X596700Y508000D02*
G03*
X596700Y508000I-12500J0D01*
G01*
X585533Y486340D02*
G03*
X585533Y486340I-9800J0D01*
G01*
X571300Y508000D02*
G03*
X571300Y508000I-12500J0D01*
G01*
X585533Y460340D02*
G03*
X585533Y460340I-9800J0D01*
G01*
Y434340D02*
G03*
X585533Y434340I-9800J0D01*
G01*
X568081Y418250D02*
G03*
X568081Y407250I-6741J-5500D01*
G01*
X618910Y394860D02*
G03*
X617291Y398758I-5500J0D01*
G01*
X618910Y394860D02*
G03*
X617299Y398749I-5500J0D01*
G01*
X607480Y387350D02*
G03*
X605861Y391248I-5500J0D01*
G01*
X607480Y387350D02*
G03*
X605869Y391239I-5500J0D01*
G01*
X599418Y416631D02*
G03*
X595520Y418250I-3898J-3881D01*
G01*
X599409Y416639D02*
G03*
X595520Y418250I-3889J-3889D01*
G01*
X594439Y402669D02*
G03*
X590550Y404280I-3889J-3889D01*
G01*
X594448Y402661D02*
G03*
X590550Y404280I-3898J-3881D01*
G01*
X594780Y378069D02*
G03*
X596480Y379926I-5500J6741D01*
G01*
X605861Y350432D02*
G03*
X607480Y354330I-3881J3898D01*
G01*
X605869Y350441D02*
G03*
X607480Y354330I-3889J3889D01*
G01*
X593169Y363141D02*
G03*
X594780Y367030I-3889J3889D01*
G01*
X593161Y363132D02*
G03*
X594780Y367030I-3881J3898D01*
G01*
X582051Y404280D02*
G03*
X577297Y407250I-6741J-5500D01*
G01*
X573323D02*
G03*
X582051Y393280I1987J-8470D01*
G01*
X587293D02*
G03*
X583780Y378069I1987J-8470D01*
G01*
X577203Y362731D02*
G03*
X580190Y370840I-9513J8109D01*
G01*
D02*
G03*
X575799Y361327I-12500J0D01*
G01*
X571738Y357266D02*
G03*
X575799Y335927I-4048J-11826D01*
G01*
X580190Y345440D02*
G03*
X579516Y349488I-12500J0D01*
G01*
X577203Y337331D02*
G03*
X580190Y345440I-9513J8109D01*
G01*
X554790D02*
G03*
X554790Y345440I-12500J0D01*
G01*
X545900Y508000D02*
G03*
X529465Y496135I-12500J0D01*
G01*
X532578Y495527D02*
G03*
X545900Y508000I822J12473D01*
G01*
X520500D02*
G03*
X520500Y508000I-12500J0D01*
G01*
X485231Y495780D02*
G03*
X495100Y508000I-2631J12220D01*
G01*
X529465Y496135D02*
G03*
X538967Y486340I-299J-9796D01*
G01*
D02*
G03*
X532578Y495527I-9800J0D01*
G01*
X538967Y460340D02*
G03*
X538967Y460340I-9800J0D01*
G01*
Y434340D02*
G03*
X538967Y434340I-9800J0D01*
G01*
X492400Y486340D02*
G03*
X485231Y495780I-9800J0D01*
G01*
X495100Y508000D02*
G03*
X479969Y495780I-12500J0D01*
G01*
D02*
G03*
X492400Y486340I2631J-9440D01*
G01*
Y460340D02*
G03*
X492400Y460340I-9800J0D01*
G01*
Y434340D02*
G03*
X492400Y434340I-9800J0D01*
G01*
X429060Y508000D02*
G03*
X429060Y508000I-12500J0D01*
G01*
X403660D02*
G03*
X403660Y508000I-12500J0D01*
G01*
X503340Y400050D02*
G03*
X501729Y403939I-5500J0D01*
G01*
X503340Y400050D02*
G03*
X501721Y403948I-5500J0D01*
G01*
X491300Y415290D02*
G03*
X483478Y406634I-8700J0D01*
G01*
X491256Y414412D02*
G03*
X491300Y415290I-8656J878D01*
G01*
X492340Y382485D02*
G03*
X492340Y366815I-9740J-7835D01*
G01*
Y357085D02*
G03*
X492340Y341415I-9740J-7835D01*
G01*
X431600Y374650D02*
G03*
X431600Y374650I-12500J0D01*
G01*
X406200D02*
G03*
X406200Y374650I-12500J0D01*
G01*
X457000Y349250D02*
G03*
X457000Y349250I-12500J0D01*
G01*
X431600D02*
G03*
X431600Y349250I-12500J0D01*
G01*
X406200D02*
G03*
X406200Y349250I-12500J0D01*
G01*
X580190Y320040D02*
G03*
X579516Y324088I-12500J0D01*
G01*
X577203Y311931D02*
G03*
X580190Y320040I-9513J8109D01*
G01*
X571738Y331866D02*
G03*
X575799Y310527I-4048J-11826D01*
G01*
X580190Y294640D02*
G03*
X579516Y298688I-12500J0D01*
G01*
X571738Y306466D02*
G03*
X580190Y294640I-4048J-11826D01*
G01*
X605590Y222250D02*
G03*
X605590Y222250I-12500J0D01*
G01*
Y196850D02*
G03*
X605590Y196850I-12500J0D01*
G01*
X580190Y222250D02*
G03*
X580190Y222250I-12500J0D01*
G01*
Y196850D02*
G03*
X580190Y196850I-12500J0D01*
G01*
X554790Y320040D02*
G03*
X554790Y320040I-12500J0D01*
G01*
Y294640D02*
G03*
X554790Y294640I-12500J0D01*
G01*
Y222250D02*
G03*
X554790Y222250I-12500J0D01*
G01*
X501729Y208201D02*
G03*
X503340Y212090I-3889J3889D01*
G01*
X501721Y208192D02*
G03*
X503340Y212090I-3881J3898D01*
G01*
X538900Y101209D02*
G03*
X542100Y107950I-5500J6741D01*
G01*
X545850Y26518D02*
G03*
X538900Y36625I-12450J-1119D01*
G01*
X542100Y107950D02*
G03*
X527900Y101209I-8700J0D01*
G01*
X516700Y82550D02*
G03*
X502500Y75809I-8700J0D01*
G01*
X513500D02*
G03*
X516700Y82550I-5500J6741D01*
G01*
X527900Y36625D02*
G03*
X545850Y24281I5500J-11225D01*
G01*
X492340Y306285D02*
G03*
X492340Y290615I-9740J-7835D01*
G01*
Y331685D02*
G03*
X492340Y316015I-9740J-7835D01*
G01*
Y280885D02*
G03*
X492340Y265215I-9740J-7835D01*
G01*
Y255485D02*
G03*
X492340Y239815I-9740J-7835D01*
G01*
Y230085D02*
G03*
X490709Y212737I-9740J-7835D01*
G01*
X483900Y158250D02*
G03*
X483900Y158250I-14000J0D01*
G01*
X464700Y114460D02*
G03*
X469700Y124460I-7500J10000D01*
G01*
D02*
G03*
X449470Y114637I-12500J0D01*
G01*
X449600Y194310D02*
G03*
X449600Y194310I-13000J0D01*
G01*
X414600D02*
G03*
X414600Y194310I-13000J0D01*
G01*
X418900Y124460D02*
G03*
X395353Y118610I-12500J0D01*
G01*
X444300Y124460D02*
G03*
X421595Y117241I-12500J0D01*
G01*
X438777Y114088D02*
G03*
X444300Y124460I-6977J10372D01*
G01*
X410668Y112711D02*
G03*
X418900Y124460I-4268J11749D01*
G01*
X462503Y106457D02*
G03*
X464700Y111760I-5303J5303D01*
G01*
X462503Y106457D02*
G03*
X464700Y111760I-5303J5303D01*
G01*
X449100Y79999D02*
G03*
X439200Y84100I-9900J-9900D01*
G01*
X449100Y79999D02*
G03*
X439200Y84100I-9900J-9900D01*
G01*
X437103Y111537D02*
G03*
X438777Y114088I-5303J5303D01*
G01*
X437103Y111537D02*
G03*
X438777Y114088I-5303J5303D01*
G01*
X437900Y84960D02*
G03*
X443203Y87157I0J7500D01*
G01*
X437900Y84960D02*
G03*
X443203Y87157I0J7500D01*
G01*
X471200Y52100D02*
G03*
X467099Y62000I-14000J0D01*
G01*
X471200Y52100D02*
G03*
X467099Y62000I-14000J0D01*
G01*
X443717Y21629D02*
G03*
X471200Y25400I13483J3771D01*
G01*
X443200Y30527D02*
G03*
X443717Y21629I-11400J-5127D01*
G01*
X418900Y25400D02*
G03*
X418900Y25400I-12500J0D01*
G01*
X393500D02*
G03*
X393500Y25400I-12500J0D01*
G01*
X378260Y508000D02*
G03*
X378260Y508000I-12500J0D01*
G01*
X352860D02*
G03*
X352860Y508000I-12500J0D01*
G01*
X327460D02*
G03*
X327460Y508000I-12500J0D01*
G01*
X308410Y374650D02*
G03*
X308410Y374650I-12500J0D01*
G01*
X302060Y508000D02*
G03*
X302060Y508000I-12500J0D01*
G01*
X276660D02*
G03*
X276660Y508000I-12500J0D01*
G01*
X368100Y349250D02*
G03*
X368100Y349250I-12500J0D01*
G01*
Y323850D02*
G03*
X343226Y322082I-12500J0D01*
G01*
X321730Y342509D02*
G03*
X324930Y349250I-5500J6741D01*
G01*
D02*
G03*
X308052Y352219I-8700J0D01*
G01*
Y346281D02*
G03*
X310730Y342509I8178J2969D01*
G01*
X324930Y323850D02*
G03*
X321730Y330591I-8700J0D01*
G01*
X310730D02*
G03*
X308052Y326819I5500J-6741D01*
G01*
X368100Y298450D02*
G03*
X353042Y310686I-12500J0D01*
G01*
X353832Y311476D02*
G03*
X368100Y323850I1768J12374D01*
G01*
X353832Y286076D02*
G03*
X368100Y298450I1768J12374D01*
G01*
X353832Y260676D02*
G03*
X368100Y273050I1768J12374D01*
G01*
X308052Y320881D02*
G03*
X324930Y323850I8178J2969D01*
G01*
X368100Y273050D02*
G03*
X353042Y285285I-12500J0D01*
G01*
X308052Y352219D02*
G03*
X308052Y346281I-12142J-2969D01*
G01*
Y326819D02*
G03*
X308052Y320881I-12142J-2969D01*
G01*
X270310Y349250D02*
G03*
X270310Y349250I-12500J0D01*
G01*
X308410Y298450D02*
G03*
X308410Y298450I-12500J0D01*
G01*
X307117Y285973D02*
G03*
X304984Y281647I5303J-5303D01*
G01*
X307117Y285973D02*
G03*
X304984Y281647I5303J-5303D01*
G01*
X304984D02*
G03*
X304920Y264386I-9074J-8597D01*
G01*
X106159Y391985D02*
G03*
X147740Y420980I10681J28995D01*
G01*
X244910Y374650D02*
G03*
X244910Y374650I-12500J0D01*
G01*
X219510D02*
G03*
X219510Y374650I-12500J0D01*
G01*
X113940Y372980D02*
G03*
X106159Y391985I-27100J0D01*
G01*
X147740Y420980D02*
G03*
X95457Y398674I-30900J0D01*
G01*
X81440Y420980D02*
G03*
X81440Y420980I-27100J0D01*
G01*
X95457Y398674D02*
G03*
X113940Y372980I-8617J-25694D01*
G01*
X219510Y349250D02*
G03*
X219510Y349250I-12500J0D01*
G01*
X244910D02*
G03*
X244910Y349250I-12500J0D01*
G01*
X181410Y323850D02*
G03*
X156536Y322082I-12500J0D01*
G01*
X181410Y349250D02*
G03*
X181410Y349250I-12500J0D01*
G01*
X167142Y311476D02*
G03*
X181410Y323850I1768J12374D01*
G01*
X167142Y286076D02*
G03*
X181410Y298450I1768J12374D01*
G01*
X167142Y260676D02*
G03*
X181410Y273050I1768J12374D01*
G01*
Y298450D02*
G03*
X166352Y310686I-12500J0D01*
G01*
X181410Y273050D02*
G03*
X166352Y285285I-12500J0D01*
G01*
X121367Y286913D02*
G03*
X119170Y281610I5303J-5303D01*
G01*
X121367Y286913D02*
G03*
X119170Y281610I5303J-5303D01*
G01*
X92700Y302300D02*
G03*
X88600Y312199I-14000J0D01*
G01*
X109160Y253800D02*
G03*
X92700Y261646I-10100J0D01*
G01*
Y302300D02*
G03*
X88600Y312199I-14000J0D01*
G01*
X86100Y314699D02*
G03*
X64700Y296816I-9900J-9900D01*
G01*
X43120Y304800D02*
G03*
X43120Y304800I-10100J0D01*
G01*
X353832Y235276D02*
G03*
X368100Y247650I1768J12374D01*
G01*
D02*
G03*
X353042Y259886I-12500J0D01*
G01*
X368100Y222250D02*
G03*
X353042Y234485I-12500J0D01*
G01*
X346920Y213255D02*
G03*
X368100Y222250I8680J8995D01*
G01*
Y196850D02*
G03*
X346920Y205845I-12500J0D01*
G01*
Y187855D02*
G03*
X368100Y196850I8680J8995D01*
G01*
X382300Y158250D02*
G03*
X382300Y158250I-14000J0D01*
G01*
X304920Y256314D02*
G03*
X304920Y238986I-9010J-8664D01*
G01*
Y230914D02*
G03*
X304920Y213586I-9010J-8664D01*
G01*
X297210Y159250D02*
G03*
X297210Y159250I-14000J0D01*
G01*
X262910Y194310D02*
G03*
X262910Y194310I-13000J0D01*
G01*
X339033Y87157D02*
G03*
X344336Y84960I5303J5303D01*
G01*
X339033Y87157D02*
G03*
X344336Y84960I5303J5303D01*
G01*
X304920Y124376D02*
G03*
X307117Y119073I7500J0D01*
G01*
X304920Y124376D02*
G03*
X307117Y119073I7500J0D01*
G01*
X368100Y25400D02*
G03*
X368100Y25400I-12500J0D01*
G01*
X283010Y124460D02*
G03*
X263010Y114460I-12500J0D01*
G01*
X278010D02*
G03*
X283010Y124460I-7500J10000D01*
G01*
X275813Y103917D02*
G03*
X278010Y109220I-5303J5303D01*
G01*
X252610Y114460D02*
G03*
X257610Y124460I-7500J10000D01*
G01*
D02*
G03*
X237380Y114637I-12500J0D01*
G01*
X275813Y103917D02*
G03*
X278010Y109220I-5303J5303D01*
G01*
X250413Y106457D02*
G03*
X252610Y111760I-5303J5303D01*
G01*
X250413Y106457D02*
G03*
X252610Y111760I-5303J5303D01*
G01*
X167142Y235276D02*
G03*
X181410Y247650I1768J12374D01*
G01*
D02*
G03*
X166352Y259886I-12500J0D01*
G01*
X181410Y222250D02*
G03*
X166352Y234485I-12500J0D01*
G01*
X161170Y212435D02*
G03*
X181410Y222250I7740J9815D01*
G01*
X227910Y194310D02*
G03*
X227910Y194310I-13000J0D01*
G01*
X161170Y187035D02*
G03*
X181410Y196850I7740J9815D01*
G01*
D02*
G03*
X161170Y206665I-12500J0D01*
G01*
X92700Y245954D02*
G03*
X109160Y253800I6360J7846D01*
G01*
X64700Y230100D02*
G03*
X68801Y220201I14000J0D01*
G01*
X64700Y258721D02*
G03*
X64700Y248879I-8820J-4921D01*
G01*
Y230100D02*
G03*
X68801Y220201I14000J0D01*
G01*
X94160Y187600D02*
G03*
X94160Y187600I-13400J0D01*
G01*
X29160D02*
G03*
X8270Y198711I-13400J0D01*
G01*
Y176489D02*
G03*
X29160Y187600I7490J11111D01*
G01*
X232210Y124460D02*
G03*
X210651Y115847I-12500J0D01*
G01*
X195610Y159250D02*
G03*
X195610Y159250I-14000J0D01*
G01*
X227210Y114460D02*
G03*
X232210Y124460I-7500J10000D01*
G01*
X225013Y108997D02*
G03*
X227210Y114300I-5303J5303D01*
G01*
X225013Y108997D02*
G03*
X227210Y114300I-5303J5303D01*
G01*
X151996Y60201D02*
G03*
X161896Y56100I9900J9900D01*
G01*
X151996Y60201D02*
G03*
X161896Y56100I9900J9900D01*
G01*
X94160Y142600D02*
G03*
X94160Y142600I-13400J0D01*
G01*
X29160D02*
G03*
X8270Y153711I-13400J0D01*
G01*
Y131489D02*
G03*
X29160Y142600I7490J11111D01*
G01*
X97170Y120826D02*
G03*
X101271Y110927I14000J0D01*
G01*
X97170Y120826D02*
G03*
X101271Y110927I14000J0D01*
G01*
X645683Y514491D02*
X650853D01*
X640762Y519093D02*
Y524132D01*
X632762Y520298D02*
Y525130D01*
X624762Y515171D02*
Y525130D01*
X643113Y498491D02*
X652130D01*
X647409Y506491D02*
X652130D01*
X631312Y482491D02*
X652130D01*
X631177Y490491D02*
X652130D01*
X617713Y498491D02*
X626887D01*
X616762Y518245D02*
Y525130D01*
X608762Y520472D02*
Y525130D01*
X600762Y516839D02*
Y525130D01*
X594883Y514491D02*
X598917D01*
X592762Y517108D02*
Y525130D01*
X624762Y495826D02*
Y500829D01*
X620283Y514491D02*
X624317D01*
X624762Y469826D02*
Y476854D01*
X616762Y494425D02*
Y497755D01*
Y468425D02*
Y478255D01*
X652130Y410970D02*
Y508000D01*
X648762Y407602D02*
Y518200D01*
X640762Y399602D02*
Y496907D01*
X629929Y466491D02*
X652130D01*
X632762Y391602D02*
Y495702D01*
X632099Y434491D02*
X652130D01*
X631924Y458491D02*
X652130D01*
X628168Y426491D02*
X652130D01*
X627741Y442491D02*
X652130D01*
X624762Y443826D02*
Y450854D01*
X616762Y442425D02*
Y452255D01*
X600762Y415286D02*
Y499160D01*
X592762Y418250D02*
Y498893D01*
X608762Y407286D02*
Y495528D01*
X624762Y383602D02*
Y424854D01*
X616762Y399286D02*
Y426255D01*
X592313Y498491D02*
X601487D01*
X584762Y520487D02*
Y525130D01*
Y490151D02*
Y495513D01*
X576762Y518046D02*
Y525130D01*
X584611Y490491D02*
X613423D01*
X584746Y482491D02*
X613288D01*
X584762Y464151D02*
Y482528D01*
X576762Y470086D02*
Y476594D01*
X583363Y466491D02*
X614671D01*
X569483Y514491D02*
X573517D01*
X568762Y515551D02*
Y525130D01*
Y493228D02*
Y500449D01*
X566913Y498491D02*
X576087D01*
X560762Y520345D02*
Y525130D01*
X576762Y496086D02*
Y497954D01*
X538179Y482491D02*
X566721D01*
X568762Y467228D02*
Y479453D01*
X538044Y490491D02*
X566856D01*
X536796Y466491D02*
X568104D01*
X581174Y442491D02*
X616859D01*
X585357Y458491D02*
X612676D01*
X584762Y438151D02*
Y456529D01*
X576762Y444086D02*
Y450594D01*
X581601Y426491D02*
X616432D01*
X585532Y434491D02*
X612501D01*
X584762Y418250D02*
Y430529D01*
X576762Y418250D02*
Y424594D01*
X568762Y441227D02*
Y453452D01*
X534608Y442491D02*
X570292D01*
X538791Y458491D02*
X566109D01*
X560762Y421431D02*
Y495655D01*
X568762Y418250D02*
Y427453D01*
X538965Y434491D02*
X565934D01*
X535034Y426491D02*
X569865D01*
X605557Y410491D02*
X651651D01*
X613557Y402491D02*
X643651D01*
X599418Y416631D02*
X617291Y398758D01*
X593242Y407250D02*
X607910Y392582D01*
X594448Y402661D02*
X605861Y391248D01*
X618910Y394491D02*
X635651D01*
X618910Y386491D02*
X627651D01*
X602617Y394491D02*
X606001D01*
X592762Y403816D02*
Y407250D01*
X584762Y404280D02*
Y407250D01*
X600762Y396346D02*
Y399730D01*
X595260Y378491D02*
X596480D01*
X594617Y402491D02*
X598001D01*
X584762Y392245D02*
Y393280D01*
X618927Y377767D02*
X652130Y410970D01*
X618910Y377750D02*
Y394860D01*
X607910Y342638D02*
Y392582D01*
X607480Y354330D02*
Y387350D01*
X592519Y362491D02*
X596480D01*
X601919Y346491D02*
X607910D01*
X603319Y322491D02*
X611890D01*
X593919Y338491D02*
X603763D01*
X600762Y335490D02*
Y345334D01*
X594780Y370491D02*
X596480D01*
X594780Y367030D02*
Y378069D01*
X596480Y356608D02*
Y379926D01*
X583780Y369308D02*
Y378069D01*
X585919Y330491D02*
X595763D01*
X592762Y352890D02*
Y362734D01*
Y327490D02*
Y337334D01*
X584519Y354491D02*
X594363D01*
X584762Y344890D02*
Y354734D01*
X577297Y407250D02*
X593242D01*
X582051Y404280D02*
X590550D01*
X567877Y418491D02*
X652130D01*
X568081Y418250D02*
X595520D01*
X582051Y393280D02*
X587293D01*
X580185Y370491D02*
X583780D01*
X503340Y386491D02*
X580744D01*
X577575Y378491D02*
X583300D01*
X568081Y407250D02*
X573323D01*
X568762Y404508D02*
Y407250D01*
X560762Y381244D02*
Y404069D01*
X490690Y418491D02*
X554803D01*
X495177Y410491D02*
X552938D01*
X502769Y402491D02*
X567441D01*
X576762Y379440D02*
Y390202D01*
X568762Y383294D02*
Y393052D01*
X554790Y378491D02*
X557805D01*
X503340Y394491D02*
X567741D01*
X529790Y383340D02*
X554790D01*
X577203Y362731D02*
X583780Y369308D01*
X579516Y349488D02*
X593161Y363132D01*
X571738Y357266D02*
X575799Y361327D01*
X580146Y346491D02*
X586363D01*
X579516Y324088D02*
X605861Y350432D01*
X577203Y337331D02*
X596480Y356608D01*
X554790Y362491D02*
X558387D01*
X554790Y358340D02*
Y383340D01*
X560762Y355844D02*
Y360436D01*
X550912Y354491D02*
X559068D01*
X529790Y358340D02*
X554790D01*
X571738Y331866D02*
X575799Y335927D01*
X560762Y330444D02*
Y335036D01*
X554547Y322491D02*
X555433D01*
X552680Y338491D02*
X557300D01*
X549148Y330491D02*
X560832D01*
X552762Y518945D02*
Y525130D01*
X536762Y520039D02*
Y525130D01*
X544762Y513212D02*
Y525130D01*
X528762Y519608D02*
Y525130D01*
X520762Y491380D02*
Y525130D01*
X541513Y498491D02*
X550687D01*
X544083Y514491D02*
X548117D01*
X536762Y492533D02*
Y495961D01*
X516113Y498491D02*
X525287D01*
X518683Y514491D02*
X522717D01*
X512762Y519557D02*
Y525130D01*
X504762Y520073D02*
Y525130D01*
X496762Y513473D02*
Y525130D01*
X488762Y518876D02*
Y525130D01*
X480762Y520364D02*
Y525130D01*
X490713Y498491D02*
X499887D01*
X493283Y514491D02*
X497317D01*
X491478Y490491D02*
X520289D01*
X488762Y493961D02*
Y497124D01*
X552762Y414200D02*
Y497055D01*
X536762Y466533D02*
Y480147D01*
X544762Y383340D02*
Y502788D01*
X528762Y470132D02*
Y476548D01*
X536762Y440533D02*
Y454147D01*
X528762Y444132D02*
Y450548D01*
X520762Y465379D02*
Y481301D01*
X491613Y482491D02*
X520154D01*
X496762Y408907D02*
Y502527D01*
X488762Y467961D02*
Y478719D01*
X490229Y466491D02*
X521537D01*
X492224Y458491D02*
X519543D01*
X488762Y441961D02*
Y452719D01*
X520762Y439380D02*
Y455300D01*
X488041Y442491D02*
X523726D01*
X464762Y520500D02*
Y525130D01*
X456762Y520500D02*
Y525130D01*
X472762Y515711D02*
Y525130D01*
X444700Y520500D02*
X469700D01*
X448762D02*
Y525130D01*
X424762Y517433D02*
Y525130D01*
X469700Y514491D02*
X471917D01*
X428969Y506491D02*
X444700D01*
X469700Y498491D02*
X474487D01*
X427243Y514491D02*
X444700D01*
X424673Y498491D02*
X444700D01*
X416762Y520498D02*
Y525130D01*
X408762Y517769D02*
Y525130D01*
X400762Y516004D02*
Y525130D01*
X392761Y520397D02*
Y525130D01*
X384762Y518738D02*
Y525130D01*
X376762Y513934D02*
Y525130D01*
X401843Y514491D02*
X405877D01*
X376443D02*
X380477D01*
X399273Y498491D02*
X408447D01*
X368761Y520134D02*
Y525130D01*
X373873Y498491D02*
X383047D01*
X472762Y382361D02*
Y500289D01*
X469700Y495500D02*
Y520500D01*
X456762Y387150D02*
Y495500D01*
X448762Y387150D02*
Y495500D01*
X480762Y469966D02*
Y476714D01*
Y443966D02*
Y450714D01*
X444700Y495500D02*
X469700D01*
X444700D02*
Y520500D01*
X440762Y387150D02*
Y525130D01*
X432762Y387150D02*
Y525130D01*
X400762Y384964D02*
Y499996D01*
X424762Y385794D02*
Y498567D01*
X416762Y386929D02*
Y495502D01*
X408762Y381676D02*
Y498231D01*
X392761Y387115D02*
Y495603D01*
X384762Y383388D02*
Y497262D01*
X536762Y383340D02*
Y428147D01*
X492399Y434491D02*
X519368D01*
X488468Y426491D02*
X523299D01*
X552762Y383340D02*
Y411300D01*
X503340Y378491D02*
X529790D01*
X491256Y414412D02*
X501721Y403948D01*
X492340Y382485D02*
Y397772D01*
X488762Y421432D02*
Y426719D01*
X480762Y423794D02*
Y424714D01*
X486606Y386491D02*
X492340D01*
X488762Y385526D02*
Y401350D01*
X483478Y406634D02*
X492340Y397772D01*
X480762Y387014D02*
Y406786D01*
X536762Y356651D02*
Y358340D01*
X503340Y362491D02*
X529790D01*
X552762Y352266D02*
Y358340D01*
X503340Y354491D02*
X533668D01*
X503340Y370491D02*
X529790D01*
X503340Y346491D02*
X529834D01*
X544762Y332293D02*
Y333187D01*
X536762Y331251D02*
Y334229D01*
X552762Y326866D02*
Y338614D01*
X503340Y338491D02*
X531900D01*
X503340Y330491D02*
X535432D01*
X529790Y358340D02*
Y383340D01*
X488762Y360126D02*
Y363774D01*
X492340Y357085D02*
Y366815D01*
X485499Y362491D02*
X492340D01*
X472762Y356961D02*
Y366939D01*
X488963Y338491D02*
X492340D01*
X488762Y334726D02*
Y338374D01*
X492340Y331685D02*
Y341415D01*
X472762Y331561D02*
Y341539D01*
X457000Y386491D02*
X478594D01*
X457000Y378491D02*
X470705D01*
X457000Y362150D02*
Y387150D01*
X432000D02*
X457000D01*
X423106Y386491D02*
X432000D01*
X430995Y378491D02*
X432000D01*
X457000Y362491D02*
X479701D01*
X457000Y370491D02*
X470812D01*
X432000Y362150D02*
X457000D01*
X430888Y370491D02*
X432000D01*
X421999Y362491D02*
X432000D01*
X405595Y378491D02*
X407205D01*
X432000Y362150D02*
Y387150D01*
X397706Y386491D02*
X415094D01*
X368100D02*
X389694D01*
X405488Y370491D02*
X407312D01*
X368100Y378491D02*
X381805D01*
X396599Y362491D02*
X416201D01*
X368100Y370491D02*
X381912D01*
X368100Y362491D02*
X390801D01*
X455848Y354491D02*
X471252D01*
X448762Y361001D02*
Y362150D01*
X456762Y351679D02*
Y362150D01*
X440762Y361178D02*
Y362150D01*
X432762Y353546D02*
Y362150D01*
X456692Y346491D02*
X470408D01*
X431292D02*
X432308D01*
X450863Y338491D02*
X476237D01*
X430448Y354491D02*
X433152D01*
X425463Y338491D02*
X438137D01*
X424762Y360394D02*
Y363506D01*
X416762Y361529D02*
Y362371D01*
X408762Y356276D02*
Y367624D01*
X400762Y359564D02*
Y364336D01*
X368100Y362150D02*
Y387150D01*
X384762Y357988D02*
Y365912D01*
X405048Y354491D02*
X407752D01*
X405892Y346491D02*
X406908D01*
X400063Y338491D02*
X412737D01*
X595319Y314491D02*
X611890D01*
X592762Y234746D02*
Y311934D01*
X600762Y232119D02*
Y319934D01*
X577203Y311931D02*
X607910Y342638D01*
X579947Y322491D02*
X587763D01*
X579516Y298688D02*
X611890Y331062D01*
X579582Y298491D02*
X611890D01*
X587319Y306491D02*
X611890D01*
X595623Y234491D02*
X611890D01*
X570630Y282491D02*
X611890D01*
X579481Y290491D02*
X611890D01*
X570223Y234491D02*
X590557D01*
X584762Y319490D02*
Y329334D01*
X578891Y314491D02*
X579763D01*
X571738Y306466D02*
X575799Y310527D01*
X560762Y305044D02*
Y309636D01*
X568762Y234704D02*
Y282186D01*
X560762Y232654D02*
Y284236D01*
X611890Y101490D02*
Y331062D01*
X604849Y226491D02*
X611890D01*
X608762Y98362D02*
Y327934D01*
X597329Y210491D02*
X611890D01*
X605011Y218491D02*
X611890D01*
X600762Y206719D02*
Y212381D01*
X584762Y231572D02*
Y303934D01*
X579611Y218491D02*
X581169D01*
X579449Y226491D02*
X581331D01*
X576762Y230850D02*
Y286040D01*
X571929Y210491D02*
X588851D01*
X584762Y206171D02*
Y212929D01*
X576762Y205450D02*
Y213650D01*
X560762Y207254D02*
Y211846D01*
X553491Y314491D02*
X556489D01*
X554182Y298491D02*
X555798D01*
X554081Y290491D02*
X555899D01*
X546266Y306491D02*
X563714D01*
X545230Y282491D02*
X564750D01*
X503340Y250491D02*
X611890D01*
X503340Y258491D02*
X611890D01*
X503340Y242491D02*
X611890D01*
X503340Y274491D02*
X611890D01*
X503340Y266491D02*
X611890D01*
X544762Y306893D02*
Y307787D01*
X536762Y305851D02*
Y308829D01*
X552762Y301466D02*
Y313214D01*
X503340Y314491D02*
X531089D01*
X503340Y322491D02*
X530033D01*
X503340Y282491D02*
X539350D01*
X503340Y290491D02*
X530499D01*
X544762Y234503D02*
Y282387D01*
X503340Y306491D02*
X538314D01*
X503340Y298491D02*
X530398D01*
X544823Y234491D02*
X565157D01*
X552762Y229076D02*
Y287814D01*
X554049Y226491D02*
X555931D01*
X503340Y234491D02*
X539757D01*
X536762Y233461D02*
Y283429D01*
X546529Y210491D02*
X563451D01*
X554211Y218491D02*
X555769D01*
X552762Y209350D02*
Y215424D01*
X503102Y210491D02*
X538051D01*
X529790Y209350D02*
X554790D01*
X528762Y115310D02*
Y424548D01*
X512762Y89831D02*
Y496442D01*
X520762Y8270D02*
Y429300D01*
X503340Y226491D02*
X530531D01*
X503340Y212090D02*
Y400050D01*
X504762Y90625D02*
Y495927D01*
X536762Y209350D02*
Y211039D01*
X503340Y218491D02*
X530369D01*
X529790Y184350D02*
Y209350D01*
X604245Y202491D02*
X611890D01*
X605365Y194491D02*
X611890D01*
X541977Y106490D02*
X611890D01*
X600085Y186491D02*
X611890D01*
X600762Y90362D02*
Y186981D01*
X539137Y114490D02*
X611890D01*
X538900Y98490D02*
X608890D01*
X538900Y90490D02*
X600890D01*
X578845Y202491D02*
X581935D01*
X579965Y194491D02*
X580815D01*
X574685Y186491D02*
X586095D01*
X554790D02*
X560695D01*
X554790Y202491D02*
X556535D01*
X554790Y184350D02*
Y209350D01*
X538900Y82490D02*
X592890D01*
X592762Y82362D02*
Y184354D01*
X529790Y184350D02*
X554790D01*
X536762Y115974D02*
Y184350D01*
X584762Y74362D02*
Y187528D01*
X576762Y66362D02*
Y188250D01*
X568762Y58362D02*
Y184396D01*
X560762Y50362D02*
Y186446D01*
X552762Y42362D02*
Y184350D01*
X545850Y35450D02*
X611890Y101490D01*
X538900Y58490D02*
X568890D01*
X538900Y50490D02*
X560890D01*
X538900Y42490D02*
X552890D01*
X538900Y74490D02*
X584890D01*
X538900Y66490D02*
X576890D01*
X545850Y26518D02*
Y35450D01*
X544762Y30612D02*
Y184350D01*
X545850Y12590D02*
Y24281D01*
X541980Y34490D02*
X545850D01*
X538900Y36625D02*
Y101209D01*
X543817Y18490D02*
X545850D01*
X544762Y11502D02*
Y20188D01*
X541530Y8270D02*
X545850Y12590D01*
X528762Y8270D02*
Y13792D01*
X536762Y8270D02*
Y13361D01*
X495100Y194491D02*
X529790D01*
X496019Y202491D02*
X529790D01*
X495100Y186491D02*
X529790D01*
X483242Y162491D02*
X611890D01*
X476695Y170490D02*
X611890D01*
X483386Y154490D02*
X611890D01*
X477497Y146490D02*
X611890D01*
X513500Y74490D02*
X527900D01*
X468149Y130491D02*
X611890D01*
X469544Y122491D02*
X611890D01*
X511555Y90490D02*
X527900D01*
X495100Y201572D02*
X501721Y208192D01*
X464740Y114490D02*
X527663D01*
X462537Y106490D02*
X524823D01*
X454537Y98490D02*
X527900D01*
X516700Y82490D02*
X527900D01*
X454609Y74490D02*
X502500D01*
X446537Y90490D02*
X504445D01*
X445717Y82490D02*
X499300D01*
X527900Y36625D02*
Y101209D01*
X513500Y66490D02*
X527900D01*
X520500Y12900D02*
Y37900D01*
X513500Y50490D02*
X527900D01*
X513500Y58490D02*
X527900D01*
X513500Y42490D02*
X527900D01*
X520500Y34490D02*
X524820D01*
X520500Y18490D02*
X522983D01*
X513500Y37900D02*
X520500D01*
X495500Y12900D02*
X520500D01*
X502500Y37900D02*
Y75809D01*
X496762Y37900D02*
Y203234D01*
X513500Y37900D02*
Y75809D01*
X469656Y58490D02*
X502500D01*
X462609Y66490D02*
X502500D01*
X471200Y50490D02*
X502500D01*
X504762Y8270D02*
Y12900D01*
X496762Y8270D02*
Y12900D01*
X512762Y8270D02*
Y12900D01*
X471200Y42490D02*
X502500D01*
X495500Y37900D02*
X502500D01*
X492340Y306285D02*
Y316015D01*
X490886Y314491D02*
X492340D01*
Y280885D02*
Y290615D01*
X488823Y258491D02*
X492340D01*
X490793Y282491D02*
X492340D01*
Y255485D02*
Y265215D01*
X485133Y234491D02*
X492340D01*
X488762Y283926D02*
Y287574D01*
Y309326D02*
Y312974D01*
Y258526D02*
Y262174D01*
X472762Y280761D02*
Y290739D01*
Y306161D02*
Y316139D01*
Y255361D02*
Y265339D01*
X492340Y230085D02*
Y239815D01*
X488762Y233126D02*
Y236774D01*
X486839Y210491D02*
X488462D01*
X472762Y229961D02*
Y239939D01*
Y209350D02*
Y214539D01*
X495100Y184350D02*
Y201572D01*
X487322Y209350D02*
X490709Y212737D01*
X488762Y8270D02*
Y184350D01*
X470100D02*
X495100D01*
X470100Y209350D02*
X487322D01*
X470100Y184350D02*
Y209350D01*
X480762Y167083D02*
Y184350D01*
X472762Y171954D02*
Y184350D01*
X480762Y8270D02*
Y149417D01*
X472762Y8270D02*
Y144546D01*
X449599Y194491D02*
X470100D01*
X464762Y171273D02*
Y495500D01*
X456762Y163086D02*
Y346820D01*
X446703Y202491D02*
X470100D01*
X448762Y198903D02*
Y337499D01*
Y133682D02*
Y189717D01*
X464762Y134413D02*
Y145227D01*
X456762Y136952D02*
Y153414D01*
X446985Y186491D02*
X470100D01*
X440762Y206626D02*
Y337322D01*
X368100Y298491D02*
X470100D01*
X381642Y162491D02*
X456558D01*
X381786Y154490D02*
X456414D01*
X375095Y170490D02*
X463105D01*
X375897Y146490D02*
X462303D01*
X432762Y206730D02*
Y344953D01*
X408762Y205159D02*
Y342224D01*
X424762Y199681D02*
Y338106D01*
X400762Y207283D02*
Y338936D01*
X368761Y172242D02*
Y495866D01*
X376762Y169404D02*
Y502066D01*
X411703Y202491D02*
X426497D01*
X414599Y194491D02*
X423601D01*
X411985Y186491D02*
X426215D01*
X392761Y203843D02*
Y336785D01*
X432762Y136923D02*
Y181890D01*
X424762Y134790D02*
Y188939D01*
X440762Y133174D02*
Y181994D01*
X416762Y131452D02*
Y336971D01*
X408762Y136735D02*
Y183461D01*
X442749Y130491D02*
X446251D01*
X417349D02*
X420851D01*
X392761Y136960D02*
Y184777D01*
X384762Y136960D02*
Y340512D01*
X400762Y135616D02*
Y181337D01*
X368500Y136960D02*
X393500D01*
X368761D02*
Y144258D01*
X376762Y136960D02*
Y147096D01*
X393500Y130491D02*
X395451D01*
X393500Y117960D02*
Y136960D01*
X394703Y117960D02*
X395353Y118610D01*
X368500Y131960D02*
Y136960D01*
X393500Y117960D02*
X394703D01*
X464700Y111760D02*
Y114460D01*
X464762Y64337D02*
Y114507D01*
X439341Y114490D02*
X449324D01*
X434793Y99960D02*
X449470Y114637D01*
X443203Y87157D02*
X462503Y106457D01*
X456762Y72337D02*
Y100715D01*
X449100Y79999D02*
X467099Y62000D01*
X448762Y113928D02*
Y115238D01*
X440762Y105928D02*
Y115746D01*
X432057Y106490D02*
X441324D01*
X432762Y99960D02*
Y107195D01*
X440762Y84013D02*
Y85527D01*
X448762Y80326D02*
Y92715D01*
X432762Y84100D02*
Y84960D01*
X471200Y26490D02*
X495500D01*
X471200Y25400D02*
Y52100D01*
X495500Y12900D02*
Y37900D01*
X471200Y34490D02*
X495500D01*
X469376Y18490D02*
X495500D01*
X464762Y8270D02*
Y13618D01*
X456762Y8270D02*
Y11407D01*
X448762Y8270D02*
Y14229D01*
X440380Y34490D02*
X443200D01*
X440762Y34114D02*
Y48739D01*
X443200Y30527D02*
Y46301D01*
X433401Y56100D02*
X443200Y46301D01*
X432762Y37863D02*
Y56100D01*
X442217Y18490D02*
X445024D01*
X440762Y8270D02*
Y16686D01*
X432762Y8270D02*
Y12937D01*
X413941Y114490D02*
X418844D01*
X416762Y112408D02*
Y117468D01*
X425527Y99960D02*
X437103Y111537D01*
X406917Y108960D02*
X410668Y112711D01*
X408762Y108960D02*
Y110805D01*
X413313Y108960D02*
X421595Y117241D01*
X425527Y99960D02*
X434793D01*
X424762Y84100D02*
Y84960D01*
Y35730D02*
Y56100D01*
X406917Y108960D02*
X413313D01*
X416762Y84100D02*
Y84960D01*
X400762Y84100D02*
Y84960D01*
X392761Y84100D02*
Y84960D01*
X408762Y84100D02*
Y84960D01*
X376762Y84100D02*
Y84960D01*
X368761Y84100D02*
Y84960D01*
X384762Y84100D02*
Y84960D01*
X408762Y37675D02*
Y56100D01*
X400762Y36556D02*
Y56100D01*
X389580Y34490D02*
X397820D01*
X384762Y37321D02*
Y56100D01*
X376762Y37160D02*
Y56100D01*
X416762Y32392D02*
Y56100D01*
X414980Y34490D02*
X423220D01*
X424762Y8270D02*
Y15070D01*
X416817Y18490D02*
X421383D01*
X416762Y8270D02*
Y18408D01*
X408762Y8270D02*
Y13125D01*
X392761Y29633D02*
Y56100D01*
X368761Y27943D02*
Y56100D01*
Y8270D02*
Y22857D01*
X391417Y18490D02*
X395983D01*
X392761Y8270D02*
Y21167D01*
X400762Y8270D02*
Y14244D01*
X376762Y8270D02*
Y13641D01*
X384762Y8270D02*
Y13479D01*
X360761Y519457D02*
Y525130D01*
X352761Y509566D02*
Y525130D01*
X344762Y519699D02*
Y525130D01*
X336762Y519971D02*
Y525130D01*
X348473Y498491D02*
X357647D01*
X351043Y514491D02*
X355077D01*
X352761Y387150D02*
Y506434D01*
X343100Y387150D02*
X368100D01*
X323073Y498491D02*
X332247D01*
X344762Y387150D02*
Y496301D01*
X320761Y519072D02*
Y525130D01*
X312761Y520305D02*
Y525130D01*
X328761Y512661D02*
Y525130D01*
X288761Y520475D02*
Y525130D01*
X280761Y516879D02*
Y525130D01*
X304761Y515228D02*
Y525130D01*
X325643Y514491D02*
X329677D01*
X300243D02*
X304277D01*
X296761Y518217D02*
Y525130D01*
X297673Y498491D02*
X306847D01*
X360761Y387150D02*
Y496543D01*
X307805Y378491D02*
X343100D01*
X299916Y386491D02*
X343100D01*
X360761Y360635D02*
Y362150D01*
X344762Y355477D02*
Y362150D01*
X307698Y370491D02*
X343100D01*
X298809Y362491D02*
X343100D01*
X336762Y315618D02*
Y496029D01*
X320761Y356677D02*
Y496928D01*
X328761Y307618D02*
Y503339D01*
X304761Y383476D02*
Y500772D01*
X296761Y387121D02*
Y497783D01*
X312761Y357229D02*
Y495695D01*
X343100Y362150D02*
Y387150D01*
X288761Y384904D02*
Y495526D01*
X304761Y358076D02*
Y365824D01*
X288761Y359504D02*
Y364396D01*
X274843Y514491D02*
X278877D01*
X272761Y517070D02*
Y525130D01*
X230251Y522491D02*
X644135D01*
X232890Y525130D02*
X635000D01*
X272273Y498491D02*
X281447D01*
X225810Y490491D02*
X473722D01*
X225810Y482491D02*
X473587D01*
X217811Y474491D02*
X652130D01*
X264761Y520485D02*
Y525130D01*
X256761Y518075D02*
Y525130D01*
X228260Y520500D02*
X251260D01*
X248761D02*
Y525130D01*
X251260Y495500D02*
Y520500D01*
Y514491D02*
X253477D01*
X251260Y498491D02*
X256047D01*
X226260Y495500D02*
X251260D01*
X139023Y442491D02*
X477159D01*
X144630Y434491D02*
X472801D01*
X147245Y426491D02*
X476732D01*
X47251Y466491D02*
X474971D01*
X39251Y458491D02*
X472976D01*
X126001Y450491D02*
X652130D01*
X145905Y410491D02*
X475343D01*
X147640Y418491D02*
X474510D01*
X270310Y362491D02*
X293011D01*
X141598Y402491D02*
X487621D01*
X132750Y394491D02*
X492340D01*
X270310Y386491D02*
X291904D01*
X264761Y387150D02*
Y495514D01*
X270310Y362150D02*
Y387150D01*
X245310D02*
X270310D01*
X248761D02*
Y495500D01*
X256761Y387150D02*
Y497925D01*
X270310Y370491D02*
X284122D01*
X270310Y378491D02*
X284015D01*
X264761Y359639D02*
Y362150D01*
X236416Y386491D02*
X245310D01*
X244305Y378491D02*
X245310D01*
X366948Y354491D02*
X382352D01*
X367792Y346491D02*
X381508D01*
X361963Y338491D02*
X387337D01*
X343100Y362150D02*
X368100D01*
X321730Y338491D02*
X349237D01*
X366190Y330491D02*
X472010D01*
X360761Y335235D02*
Y337865D01*
X368026Y322491D02*
X470174D01*
X352761Y336023D02*
Y337076D01*
X321851Y330491D02*
X345010D01*
X323174Y354491D02*
X344252D01*
X324481Y346491D02*
X343408D01*
X344762Y330077D02*
Y343023D01*
X321730Y330591D02*
Y342509D01*
X324823Y322491D02*
X343174D01*
X310730Y330591D02*
Y342509D01*
X363886Y314491D02*
X474314D01*
X365171Y306491D02*
X473029D01*
X365238Y290491D02*
X472962D01*
X363793Y282491D02*
X474407D01*
X368017Y274491D02*
X470183D01*
X366241Y266491D02*
X471959D01*
X361823Y258491D02*
X476377D01*
X360761Y309835D02*
Y312465D01*
X353042Y310686D02*
X353832Y311476D01*
X320761Y299618D02*
Y316423D01*
X308410Y298491D02*
X319634D01*
X312761Y291618D02*
Y315871D01*
X360761Y284435D02*
Y287065D01*
X353042Y285285D02*
X353832Y286076D01*
X360761Y259035D02*
Y261665D01*
X353042Y259886D02*
X353832Y260676D01*
X302273Y338491D02*
X310730D01*
X307258Y354491D02*
X309286D01*
X304761Y332676D02*
Y340424D01*
X264173Y338491D02*
X289547D01*
X288761Y334104D02*
Y338996D01*
X304196Y314491D02*
X335634D01*
X306500Y330491D02*
X310609D01*
X304761Y307276D02*
Y315024D01*
X288761Y308704D02*
Y313596D01*
X269158Y354491D02*
X284562D01*
X248761Y357874D02*
Y362150D01*
X270002Y346491D02*
X283718D01*
X245310Y362150D02*
X270310D01*
X243758Y354491D02*
X246462D01*
X238773Y338491D02*
X251447D01*
X244602Y346491D02*
X245618D01*
X181336Y322491D02*
X283484D01*
X179500Y330491D02*
X285320D01*
X177196Y314491D02*
X287624D01*
X305481Y306491D02*
X327634D01*
X305548Y290491D02*
X311634D01*
X307117Y285973D02*
X343226Y322082D01*
X304761Y281876D02*
Y289624D01*
X304103Y282491D02*
X305144D01*
X304920Y256314D02*
Y264386D01*
X302133Y258491D02*
X304920D01*
X288761Y283304D02*
Y288196D01*
X181410Y298491D02*
X283410D01*
X181327Y274491D02*
X283493D01*
X178481Y306491D02*
X286339D01*
X178548Y290491D02*
X286272D01*
X177103Y282491D02*
X287717D01*
X304761Y256476D02*
Y264224D01*
X288761Y257904D02*
Y262796D01*
X181083Y250491D02*
X283737D01*
X179551Y266491D02*
X285269D01*
X175133Y258491D02*
X289687D01*
X228260Y520500D02*
X232890Y525130D01*
X232761Y520500D02*
Y525001D01*
X240761Y520500D02*
Y525130D01*
X226260Y518500D02*
X228260Y520500D01*
X226260Y495500D02*
Y518500D01*
X225810Y482490D02*
Y518050D01*
X232761Y387145D02*
Y495500D01*
X213110Y469790D02*
X225810Y482490D01*
X208761Y387027D02*
Y469790D01*
X156410Y387150D02*
X181410D01*
X176761D02*
Y469790D01*
X181410Y386491D02*
X203004D01*
X160761Y387150D02*
Y469790D01*
X144761Y434217D02*
Y469790D01*
X168761Y387150D02*
Y469790D01*
X128761Y449488D02*
Y469790D01*
X104761Y449421D02*
Y469790D01*
X136761Y444601D02*
Y469790D01*
X120761Y451630D02*
Y469790D01*
X112761Y451610D02*
Y469790D01*
X110332Y386491D02*
X156410D01*
X96761Y444467D02*
Y469790D01*
X240761Y383951D02*
Y495500D01*
X224761Y384537D02*
Y481441D01*
X216761Y382471D02*
Y473442D01*
X200761Y385476D02*
Y469790D01*
X181410Y362150D02*
Y387150D01*
X211016Y386491D02*
X228404D01*
X218905Y378491D02*
X220515D01*
X245310Y362150D02*
Y387150D01*
X181410Y378491D02*
X195115D01*
X152761Y318308D02*
Y469790D01*
X144761Y310308D02*
Y407743D01*
X136761Y302308D02*
Y397359D01*
X112761Y380886D02*
Y390350D01*
X128761Y294308D02*
Y392472D01*
X156410Y362150D02*
Y387150D01*
X113374Y378491D02*
X156410D01*
X120761Y286229D02*
Y390330D01*
X88761Y433879D02*
Y469790D01*
X72761Y440856D02*
Y469790D01*
X80761Y427007D02*
Y469790D01*
X50550D02*
X213110D01*
X31251Y450491D02*
X107679D01*
X64761Y445996D02*
Y469790D01*
X77832Y434491D02*
X89050D01*
X80874Y426491D02*
X86435D01*
X81325Y418491D02*
X86040D01*
X70823Y442491D02*
X94657D01*
X56761Y447972D02*
Y469790D01*
X48761Y447500D02*
Y468001D01*
X40761Y444433D02*
Y460001D01*
X32761Y437374D02*
Y452001D01*
X8270Y427510D02*
X50550Y469790D01*
X23251Y442491D02*
X37857D01*
X15251Y434491D02*
X30848D01*
X8270Y426491D02*
X27806D01*
X8270Y418491D02*
X27355D01*
X88761Y400012D02*
Y408081D01*
X80761Y399389D02*
Y414953D01*
X74153Y402491D02*
X92082D01*
X79328Y410491D02*
X87775D01*
X72761Y396136D02*
Y401104D01*
X64761Y388694D02*
Y395964D01*
X60061Y394491D02*
X70357D01*
X32761Y314897D02*
Y404586D01*
X40761Y311287D02*
Y397527D01*
X8270Y402491D02*
X34527D01*
X8270Y410491D02*
X29352D01*
X24761Y310614D02*
Y444001D01*
X56761Y263862D02*
Y393988D01*
X8270Y394491D02*
X48619D01*
X48761Y260965D02*
Y394460D01*
X8270Y386491D02*
X63348D01*
X8270Y378491D02*
X60306D01*
X244198Y370491D02*
X245310D01*
X224761Y359137D02*
Y364763D01*
X240761Y358551D02*
Y365349D01*
X209909Y362491D02*
X229511D01*
X218798Y370491D02*
X220622D01*
X216761Y357071D02*
Y366829D01*
X235309Y362491D02*
X245310D01*
X218358Y354491D02*
X221062D01*
X219202Y346491D02*
X220218D01*
X181410Y362491D02*
X204111D01*
X213373Y338491D02*
X226047D01*
X181410Y370491D02*
X195222D01*
X200761Y360076D02*
Y363824D01*
X113826Y370491D02*
X156410D01*
X111828Y362491D02*
X156410D01*
X180258Y354491D02*
X195662D01*
X176761Y358977D02*
Y362150D01*
X181102Y346491D02*
X194818D01*
X156410Y362150D02*
X181410D01*
X160761Y358729D02*
Y362150D01*
X175273Y338491D02*
X200647D01*
X176761Y308177D02*
Y314123D01*
Y333577D02*
Y339523D01*
X166352Y310686D02*
X167142Y311476D01*
X176761Y282777D02*
Y288723D01*
X160761Y333329D02*
Y339771D01*
X121367Y286913D02*
X156536Y322082D01*
X166352Y259886D02*
X167142Y260676D01*
X166352Y285285D02*
X167142Y286076D01*
X176761Y257377D02*
Y263323D01*
X108005Y258491D02*
X119170D01*
X106653Y354491D02*
X157562D01*
X92561Y346491D02*
X156718D01*
X88761Y312035D02*
Y345948D01*
X8270Y322491D02*
X156484D01*
X86308Y314491D02*
X148944D01*
X86100Y314699D02*
X88600Y312199D01*
X8270Y338491D02*
X162547D01*
X8270Y330491D02*
X158320D01*
X80761Y318036D02*
Y346571D01*
X72761Y318371D02*
Y349824D01*
X64761Y312872D02*
Y357266D01*
X8270Y362491D02*
X61852D01*
X8270Y370491D02*
X59855D01*
X8270Y354491D02*
X67027D01*
X8270Y346491D02*
X81119D01*
X35866Y314491D02*
X66096D01*
X42977Y306491D02*
X62302D01*
X8270Y314491D02*
X30174D01*
X8270Y306491D02*
X23063D01*
X92700Y298491D02*
X132944D01*
X96761Y263635D02*
Y347761D01*
X104761Y262137D02*
Y352652D01*
X92058Y306491D02*
X140944D01*
X92700Y261646D02*
Y302300D01*
Y266491D02*
X119170D01*
X92700Y274491D02*
X119170D01*
X92700Y290491D02*
X124944D01*
X92700Y282491D02*
X119222D01*
X64700Y258721D02*
Y296816D01*
X40907Y298491D02*
X63702D01*
X8270D02*
X25133D01*
X8270Y266491D02*
X64700D01*
X8270Y274491D02*
X64700D01*
X8270Y258491D02*
X46935D01*
X8270Y290491D02*
X64700D01*
X8270Y282491D02*
X64700D01*
X366986Y242491D02*
X471214D01*
X367773Y250491D02*
X470427D01*
X360761Y233635D02*
Y236265D01*
X367359Y226491D02*
X470841D01*
X367521Y218491D02*
X470679D01*
X359839Y210491D02*
X478361D01*
X358133Y234491D02*
X480067D01*
X353042Y234485D02*
X353832Y235276D01*
X298443Y234491D02*
X304920D01*
X304761Y231076D02*
Y238824D01*
X304920Y230914D02*
Y238986D01*
X346920Y210491D02*
X351361D01*
X304920Y209350D02*
Y213586D01*
X352761Y209023D02*
Y210077D01*
X300149Y210491D02*
X304920D01*
X304761Y209350D02*
Y213424D01*
X366755Y202491D02*
X391497D01*
X367875Y194491D02*
X388601D01*
X362595Y186491D02*
X391215D01*
X360761Y208235D02*
Y210865D01*
Y170047D02*
Y185465D01*
Y131960D02*
Y146453D01*
X346920Y178491D02*
X611890D01*
X346920Y170490D02*
X361505D01*
X346920Y138667D02*
Y187855D01*
Y205845D02*
Y213255D01*
X352761Y132825D02*
Y184676D01*
X346920Y186491D02*
X348605D01*
X304920Y124376D02*
Y184350D01*
X304761Y84100D02*
Y184350D01*
X346920Y162491D02*
X354958D01*
X346920Y154490D02*
X354814D01*
X346920Y146490D02*
X360703D01*
X296761Y162766D02*
Y184350D01*
X296830Y162491D02*
X304920D01*
X288761Y232504D02*
Y237396D01*
X171443Y234491D02*
X293377D01*
X180296Y242491D02*
X284524D01*
X180669Y226491D02*
X284151D01*
X283410Y209350D02*
X304920D01*
X288761D02*
Y211996D01*
X260013Y202491D02*
X283410D01*
X180831Y218491D02*
X283989D01*
X173149Y210491D02*
X291671D01*
X256761Y205358D02*
Y336794D01*
X283410Y184350D02*
Y209350D01*
X248761Y207259D02*
Y340626D01*
X240761Y203546D02*
Y339949D01*
X225013Y202491D02*
X239807D01*
X262909Y194491D02*
X283410D01*
X260295Y186491D02*
X283410D01*
X225295D02*
X239525D01*
X283410Y184350D02*
X304920D01*
X288761Y172102D02*
Y184350D01*
X291556Y170490D02*
X304920D01*
X161170Y178491D02*
X304920D01*
X280761Y173034D02*
Y499121D01*
X288972Y146490D02*
X304920D01*
X296376Y154490D02*
X304920D01*
X296761Y84100D02*
Y155735D01*
X187372Y146490D02*
X277448D01*
X288761Y84100D02*
Y146398D01*
X272761Y168568D02*
Y498930D01*
X264761Y135560D02*
Y338861D01*
X256761Y128987D02*
Y183262D01*
X240761Y136179D02*
Y185074D01*
X272761Y136756D02*
Y149932D01*
X195230Y162491D02*
X269590D01*
X248761Y136415D02*
Y181361D01*
X189956Y170490D02*
X274864D01*
X194776Y154490D02*
X270044D01*
X347096Y138490D02*
X611890D01*
X353627Y131960D02*
X368500D01*
X360761Y84100D02*
Y84960D01*
X346920Y138667D02*
X353627Y131960D01*
X360761Y36785D02*
Y56100D01*
X352761Y37573D02*
Y56100D01*
X364180Y34490D02*
X372420D01*
X344336Y84960D02*
X437900D01*
X344762Y84100D02*
Y84960D01*
X352761Y84100D02*
Y84960D01*
X320761Y84100D02*
Y105428D01*
X312761Y84100D02*
Y113428D01*
X328761Y84100D02*
Y97428D01*
X307117Y119073D02*
X339033Y87157D01*
X336762Y37900D02*
Y56100D01*
Y84100D02*
Y89428D01*
X328761Y37900D02*
Y56100D01*
X317700Y37900D02*
X342700D01*
X320761D02*
Y56100D01*
X366017Y18490D02*
X370583D01*
X344762Y31627D02*
Y56100D01*
Y8270D02*
Y19173D01*
X342700Y34490D02*
X347020D01*
X342700Y12900D02*
Y37900D01*
X352761Y8270D02*
Y13226D01*
X342700Y18490D02*
X345183D01*
X360761Y8270D02*
Y14015D01*
X306649Y10490D02*
X543750D01*
X308870Y8270D02*
X541530D01*
X317700Y12900D02*
Y37900D01*
X304761Y12378D02*
Y56100D01*
X312761Y8270D02*
Y56100D01*
X290650Y26490D02*
X317700D01*
X288761Y28378D02*
Y56100D01*
X296761Y20378D02*
Y56100D01*
X328761Y8270D02*
Y12900D01*
X320761Y8270D02*
Y12900D01*
X336762Y8270D02*
Y12900D01*
X298650Y18490D02*
X317700D01*
Y12900D02*
X342700D01*
X281459Y130491D02*
X304920D01*
X280761Y131613D02*
Y145466D01*
X282854Y122491D02*
X305161D01*
X164216Y138490D02*
X304920D01*
X278050Y114490D02*
X311699D01*
X278010Y109220D02*
Y114460D01*
X277496Y106490D02*
X319699D01*
X270387Y98490D02*
X327699D01*
X252651Y114490D02*
X262969D01*
X256059Y130491D02*
X259561D01*
X256761Y106078D02*
Y119933D01*
X252610Y111760D02*
Y114460D01*
X263010Y112327D02*
Y114460D01*
X250447Y106490D02*
X257174D01*
X262387Y90490D02*
X335699D01*
X280761Y84100D02*
Y117308D01*
Y36378D02*
Y56100D01*
X255997Y84100D02*
X439200D01*
X255997D02*
X275813Y103917D01*
X161896Y56100D02*
X433401D01*
X274650Y42490D02*
X443200D01*
X272761Y44378D02*
Y56100D01*
X282649Y34490D02*
X317700D01*
X266649Y50490D02*
X439011D01*
X261370Y55770D02*
X308870Y8270D01*
X243983Y93300D02*
X263010Y112327D01*
X248761Y98078D02*
Y104805D01*
X272761Y84100D02*
Y100865D01*
X242447Y98490D02*
X249174D01*
X240761Y93300D02*
Y96805D01*
X237257Y93300D02*
X250413Y106457D01*
X264761Y84100D02*
Y92865D01*
X256761Y84100D02*
Y84865D01*
X264761Y52379D02*
Y56100D01*
X237257Y93300D02*
X243983D01*
X154690Y55770D02*
X261370D01*
X176761Y231977D02*
Y237923D01*
X216761Y207178D02*
Y341429D01*
X166352Y234485D02*
X167142Y235276D01*
X176761Y206577D02*
Y212523D01*
X161170Y210491D02*
X164671D01*
X108602Y250491D02*
X119170D01*
X112761Y215838D02*
Y365074D01*
X119170Y209429D02*
Y281610D01*
X92700Y242491D02*
X119170D01*
X96761Y231838D02*
Y243965D01*
X104761Y223838D02*
Y245463D01*
X118108Y210491D02*
X119170D01*
X110108Y218491D02*
X119170D01*
X161170Y206665D02*
Y212435D01*
X94108Y234491D02*
X119170D01*
X102108Y226491D02*
X119170D01*
X227909Y194491D02*
X236911D01*
X224761Y202792D02*
Y339363D01*
X232761Y126399D02*
Y336755D01*
X208761Y205764D02*
Y336873D01*
X180065Y202491D02*
X204807D01*
X224761Y135894D02*
Y185828D01*
X216761Y136607D02*
Y181443D01*
X208761Y130491D02*
Y182856D01*
X181185Y194491D02*
X201911D01*
X175905Y186491D02*
X204525D01*
X192761Y167715D02*
Y469790D01*
X184761Y172891D02*
Y469790D01*
X200761Y136960D02*
Y338424D01*
X96761Y113699D02*
Y192240D01*
X176761Y172384D02*
Y187123D01*
X168761Y164810D02*
Y184351D01*
X161170Y141537D02*
Y187035D01*
X94114Y186491D02*
X97170D01*
Y120826D02*
Y191831D01*
X92700Y235899D02*
Y245954D01*
Y235899D02*
X119170Y209429D01*
X8270Y218491D02*
X70510D01*
X72761Y198351D02*
Y216240D01*
X88761Y198349D02*
Y200240D01*
X80761Y201000D02*
Y208240D01*
X92253Y194491D02*
X94510D01*
X8270Y210491D02*
X78510D01*
X8270Y202491D02*
X86510D01*
X16761Y200963D02*
Y436001D01*
X24761Y197527D02*
Y298986D01*
X8270Y250491D02*
X46338D01*
X8761Y199027D02*
Y428001D01*
X8270Y198711D02*
Y427510D01*
X64700Y230100D02*
Y248879D01*
X8270Y242491D02*
X64700D01*
X8270Y234491D02*
X64700D01*
X8270Y226491D02*
X65173D01*
X68801Y220201D02*
X97170Y191831D01*
X27253Y194491D02*
X69267D01*
X90587Y178491D02*
X97170D01*
X88761Y153349D02*
Y176851D01*
X29114Y186491D02*
X67406D01*
X25587Y178491D02*
X70933D01*
X56761Y119270D02*
Y243738D01*
X48761Y119270D02*
Y246635D01*
X64761Y119270D02*
Y228793D01*
X32761Y119270D02*
Y294703D01*
X40761Y119270D02*
Y298313D01*
X24761Y152527D02*
Y177673D01*
X230659Y130491D02*
X234161D01*
X192761Y136960D02*
Y150786D01*
X181810Y136960D02*
X206810D01*
X184761D02*
Y145609D01*
X227250Y114490D02*
X237234D01*
X208761Y113958D02*
Y118429D01*
X206810Y130491D02*
X208761D01*
X206810Y114490D02*
X209294D01*
X168761Y133945D02*
Y153690D01*
X161170Y162491D02*
X167990D01*
X176761Y131960D02*
Y146116D01*
X161170Y170490D02*
X173264D01*
X161170Y154490D02*
X168444D01*
X161170Y146490D02*
X175848D01*
X173019Y116960D02*
X181810D01*
Y131960D02*
Y136960D01*
X175488Y114490D02*
X181810D01*
X161170Y141537D02*
X170747Y131960D01*
X181810D01*
X232761Y110018D02*
Y122521D01*
X225043Y102300D02*
X237380Y114637D01*
X206810Y112007D02*
X210651Y115847D01*
X206810Y112007D02*
Y136960D01*
X222507Y106490D02*
X229234D01*
X224761Y102300D02*
Y108745D01*
X218317Y102300D02*
X225013Y108997D01*
X181810Y111960D02*
X206763D01*
X218317Y102300D02*
X225043D01*
X181810Y111960D02*
Y116960D01*
X176761Y113217D02*
Y116960D01*
X178479Y111500D02*
X206303D01*
X173019Y116960D02*
X178479Y111500D01*
X136761Y73699D02*
Y75436D01*
X144761Y65699D02*
Y67436D01*
X152761Y57699D02*
Y59491D01*
X143969Y66490D02*
X145707D01*
X151969Y58490D02*
X154072D01*
X80761Y156000D02*
Y174200D01*
X72761Y153351D02*
Y176849D01*
X8270Y162491D02*
X97170D01*
X8270Y170490D02*
X97170D01*
X21939Y154490D02*
X74581D01*
X93583Y146490D02*
X97170D01*
X86939Y154490D02*
X97170D01*
X93514Y138490D02*
X97170D01*
X21498Y130491D02*
X75022D01*
X86498D02*
X97170D01*
X16761Y155963D02*
Y174237D01*
X8761Y154027D02*
Y176173D01*
X28583Y146490D02*
X67937D01*
X8270Y154490D02*
X9581D01*
X8270Y153711D02*
Y176489D01*
X28514Y138490D02*
X68006D01*
X8761Y125499D02*
Y131173D01*
X8270Y130491D02*
X10022D01*
X8270Y125990D02*
Y131489D01*
X111969Y98490D02*
X113707D01*
X104761Y105699D02*
Y107436D01*
X112761Y97699D02*
Y99436D01*
X101271Y110927D02*
X151996Y60201D01*
X103969Y106490D02*
X105707D01*
X91190Y119270D02*
X154690Y55770D01*
X127969Y82490D02*
X129706D01*
X128761Y81699D02*
Y83436D01*
X135969Y74490D02*
X137706D01*
X119969Y90490D02*
X121706D01*
X120761Y89699D02*
Y91436D01*
X80761Y119270D02*
Y129200D01*
X72761Y119270D02*
Y131849D01*
X88761Y119270D02*
Y131851D01*
X16761Y119270D02*
Y129237D01*
X8270Y125990D02*
X14990Y119270D01*
X24761D02*
Y132673D01*
X95969Y114490D02*
X98686D01*
X11769Y122491D02*
X97170D01*
X14990Y119270D02*
X91190D01*
D11*
X7770Y25400D02*
G03*
X25400Y7770I17630J0D01*
G01*
X11101Y115381D02*
G03*
X14990Y113770I3889J3889D01*
G01*
X11092Y115389D02*
G03*
X14990Y113770I3898J3881D01*
G01*
X164060Y25400D02*
G03*
X122890Y7770I-24360J0D01*
G01*
X156510D02*
G03*
X164060Y25400I-16810J17630D01*
G01*
X150792Y51889D02*
G03*
X154690Y50270I3898J3881D01*
G01*
X150801Y51881D02*
G03*
X154690Y50270I3889J3889D01*
G01*
X157705Y251946D02*
G03*
X157068Y245708I11205J-4296D01*
G01*
X50550Y475290D02*
G03*
X46652Y473671I0J-5500D01*
G01*
X50550Y475290D02*
G03*
X46661Y473679I0J-5500D01*
G01*
X25400Y525630D02*
G03*
X7770Y508000I0J-17630D01*
G01*
X157705Y277346D02*
G03*
X157068Y271108I11205J-4296D01*
G01*
X157705Y302746D02*
G03*
X157068Y296508I11205J-4296D01*
G01*
X135590Y525630D02*
G03*
X176760Y508000I16810J-17630D01*
G01*
D02*
G03*
X169210Y525630I-24360J0D01*
G01*
X222152Y522158D02*
G03*
X220310Y518050I3658J-4108D01*
G01*
X549730Y8692D02*
G03*
X551350Y12590I-3881J3898D01*
G01*
X549739Y8701D02*
G03*
X551350Y12590I-3889J3889D01*
G01*
Y15993D02*
G03*
X570800Y25400I7450J9407D01*
G01*
D02*
G03*
X554940Y36762I-12000J0D01*
G01*
X596200Y25400D02*
G03*
X596200Y25400I-12000J0D01*
G01*
X621600D02*
G03*
X621600Y25400I-12000J0D01*
G01*
X615770Y97592D02*
G03*
X617390Y101490I-3881J3898D01*
G01*
X615779Y97601D02*
G03*
X617390Y101490I-3889J3889D01*
G01*
X635000Y7770D02*
G03*
X652630Y25400I0J17630D01*
G01*
X647000D02*
G03*
X647000Y25400I-12000J0D01*
G01*
X673049Y45870D02*
G03*
X652630Y25456I51J-20470D01*
G01*
X673100Y45870D02*
G03*
X678030Y50800I0J4930D01*
G01*
X678030Y93010D02*
G03*
X678030Y59390I-17630J-16810D01*
G01*
X344395Y251946D02*
G03*
X343758Y245708I11205J-4296D01*
G01*
X344395Y277346D02*
G03*
X343758Y271108I11205J-4296D01*
G01*
X344395Y302746D02*
G03*
X343758Y296508I11205J-4296D01*
G01*
X617390Y331062D02*
G03*
X615409Y335288I-5500J0D01*
G01*
X617390Y331062D02*
G03*
X615409Y335288I-5500J0D01*
G01*
X616945Y336824D02*
G03*
X618410Y340360I-3535J3535D01*
G01*
X616945Y336824D02*
G03*
X618410Y340360I-3535J3535D01*
G01*
Y372273D02*
G03*
X622808Y373870I500J5477D01*
G01*
X618410Y372273D02*
G03*
X622799Y373861I500J5477D01*
G01*
X678030Y372410D02*
G03*
X678030Y338790I-17630J-16810D01*
G01*
X652789Y403851D02*
G03*
X673100Y385930I20311J2549D01*
G01*
X678030Y381000D02*
G03*
X673100Y385930I-4930J-0D01*
G01*
X613410Y340360D02*
Y394860D01*
X595520Y412750D02*
X613410Y394860D01*
X561340Y412750D02*
X595520D01*
X575310Y398780D02*
X590550D01*
X567690Y294640D02*
X613410Y340360D01*
X567690Y320040D02*
X601980Y354330D01*
Y387350D01*
X590550Y398780D02*
X601980Y387350D01*
X567690Y345440D02*
X589280Y367030D01*
Y384810D01*
X316230Y323850D02*
Y349250D01*
X508000Y25400D02*
Y82550D01*
X533400Y25400D02*
Y107950D01*
X482600Y415290D02*
X497840Y400050D01*
Y212090D02*
Y400050D01*
X482600Y196850D02*
X497840Y212090D01*
X7770Y29491D02*
X115686D01*
X7770Y36491D02*
X118011D01*
X7770Y57491D02*
X145191D01*
X7770Y43491D02*
X123386D01*
X7770Y85491D02*
X117191D01*
X7770Y92491D02*
X110191D01*
X7770Y64491D02*
X138191D01*
X7770Y78491D02*
X124191D01*
X7770Y71491D02*
X131191D01*
X116762Y7770D02*
Y17200D01*
X109762Y7770D02*
Y92920D01*
X25400Y7770D02*
X122890D01*
X10819Y15490D02*
X117447D01*
X20411Y8490D02*
X122165D01*
X8012Y22491D02*
X115514D01*
X116762Y33600D02*
Y85920D01*
X123762Y43822D02*
Y78920D01*
X144762Y49228D02*
Y57920D01*
X130762Y48061D02*
Y71920D01*
X137762Y49683D02*
Y64920D01*
X11762Y14228D02*
Y114817D01*
X7770Y25400D02*
Y118712D01*
Y99491D02*
X103191D01*
X18762Y9068D02*
Y113770D01*
X25762Y7770D02*
Y113770D01*
X7770Y118712D02*
X11092Y115389D01*
X7770Y106491D02*
X96191D01*
X7770Y113491D02*
X89191D01*
X14990Y113770D02*
X88912D01*
X81762Y7770D02*
Y113770D01*
X74762Y7770D02*
Y113770D01*
X102762Y7770D02*
Y99920D01*
X88762Y7770D02*
Y113770D01*
X95762Y7770D02*
Y106920D01*
X46762Y7770D02*
Y113770D01*
X32762Y7770D02*
Y113770D01*
X39762Y7770D02*
Y113770D01*
X67762Y7770D02*
Y113770D01*
X53762Y7770D02*
Y113770D01*
X60762Y7770D02*
Y113770D01*
X158762Y7770D02*
Y10233D01*
X156510Y7770D02*
X301592D01*
X157235Y8490D02*
X300871D01*
X161389Y36491D02*
X272871D01*
X156014Y43491D02*
X265871D01*
X158762Y40567D02*
Y50270D01*
X161953Y15490D02*
X293871D01*
X163714Y29491D02*
X279871D01*
X163885Y22491D02*
X286871D01*
X277762Y7770D02*
Y31600D01*
X270762Y7770D02*
Y38600D01*
X298762Y7770D02*
Y10600D01*
X284762Y7770D02*
Y24600D01*
X291762Y7770D02*
Y17600D01*
X186762Y7770D02*
Y50270D01*
X165762Y7770D02*
Y50270D01*
X179762Y7770D02*
Y50270D01*
X263762Y7770D02*
Y45600D01*
X193762Y7770D02*
Y50270D01*
X200762Y7770D02*
Y50270D01*
X7770Y50491D02*
X153148D01*
X151762Y46564D02*
Y51114D01*
X154690Y50270D02*
X259092D01*
X88912Y113770D02*
X150792Y51889D01*
X151670Y240310D02*
Y245910D01*
X151762Y240401D02*
Y246002D01*
X151670Y240310D02*
X157068Y245708D01*
X151670Y245910D02*
X157705Y251946D01*
X152250Y246491D02*
X156966D01*
X242762Y7770D02*
Y50270D01*
X235762Y7770D02*
Y50270D01*
X259092D02*
X301592Y7770D01*
X249762D02*
Y50270D01*
X256762Y7770D02*
Y50270D01*
X207762Y7770D02*
Y50270D01*
X172762Y7770D02*
Y50270D01*
X228762Y7770D02*
Y50270D01*
X214762Y7770D02*
Y50270D01*
X221762Y7770D02*
Y50270D01*
X7770Y442491D02*
X15473D01*
X7770Y434788D02*
Y508000D01*
Y449491D02*
X22473D01*
X7770Y434788D02*
X46652Y473671D01*
X7770Y456491D02*
X29473D01*
X7770Y463491D02*
X36473D01*
X7770Y470491D02*
X43473D01*
X7770Y491491D02*
X134487D01*
X7770Y505491D02*
X128170D01*
X7770Y498491D02*
X129973D01*
X133670Y274491D02*
X135051D01*
X133670Y273109D02*
Y278710D01*
X142670Y256709D02*
Y262311D01*
X137762Y277201D02*
Y282802D01*
X144762Y258801D02*
Y264402D01*
X130762Y475290D02*
Y496811D01*
X137762Y475290D02*
Y488529D01*
X136451Y281491D02*
X142051D01*
X144762Y475290D02*
Y484869D01*
Y284201D02*
Y289802D01*
X11762Y438780D02*
Y519172D01*
X18762Y445780D02*
Y524333D01*
X39762Y466780D02*
Y525630D01*
X25762Y452780D02*
Y525630D01*
X32762Y459780D02*
Y525630D01*
X53762Y475290D02*
Y525630D01*
X46762Y473777D02*
Y525630D01*
X8352Y512491D02*
X128458D01*
X12030Y519491D02*
X130921D01*
X25400Y525630D02*
X135590D01*
X67762Y475290D02*
Y525630D01*
X60762Y475290D02*
Y525630D01*
X88762Y475290D02*
Y525630D01*
X74762Y475290D02*
Y525630D01*
X81762Y475290D02*
Y525630D01*
X109762Y475290D02*
Y525630D01*
X95762Y475290D02*
Y525630D01*
X102762Y475290D02*
Y525630D01*
X130762Y519189D02*
Y525630D01*
X116762Y475290D02*
Y525630D01*
X123762Y475290D02*
Y525630D01*
X142670Y260491D02*
X146451D01*
X147851Y267491D02*
X153451D01*
X142670Y256709D02*
X157068Y271108D01*
X133670Y273109D02*
X157068Y296508D01*
X142670Y262311D02*
X157705Y277346D01*
X143450Y288491D02*
X149052D01*
X7770Y484491D02*
X146017D01*
X150450Y295491D02*
X156052D01*
X133670Y278710D02*
X157705Y302746D01*
X7770Y477491D02*
X213033D01*
X50550Y475290D02*
X210832D01*
X151762Y265801D02*
Y271402D01*
X154851Y274491D02*
X156997D01*
X319420Y277771D02*
X344395Y302746D01*
X319420Y272169D02*
Y277771D01*
X151762Y291201D02*
Y296802D01*
Y475290D02*
Y483648D01*
X158762Y475290D02*
Y484486D01*
X158783Y484491D02*
X220033D01*
X210832Y475290D02*
X220310Y484768D01*
X165762Y475290D02*
Y487632D01*
X172762Y475290D02*
Y494628D01*
X170313Y491491D02*
X220310D01*
X174827Y498491D02*
X220310D01*
X176342Y512491D02*
X220310D01*
X172762Y521372D02*
Y525630D01*
X176630Y505491D02*
X220310D01*
X169210Y525630D02*
X225612D01*
X173879Y519491D02*
X220502D01*
X186762Y475290D02*
Y525630D01*
X179762Y475290D02*
Y525630D01*
X207762Y475290D02*
Y525630D01*
X193762Y475290D02*
Y525630D01*
X200762Y475290D02*
Y525630D01*
X220310Y484768D02*
Y518050D01*
X214762Y479220D02*
Y525630D01*
X221762Y521773D02*
Y525630D01*
X222379Y522398D02*
X224362Y524381D01*
X224379Y524398D02*
X225612Y525630D01*
X548808Y7770D02*
X549730Y8692D01*
X550762Y7770D02*
Y10117D01*
X557762Y7770D02*
Y13445D01*
X564762Y7770D02*
Y14986D01*
X551350Y12590D02*
Y15993D01*
X565568Y15490D02*
X577432D01*
X570081Y29491D02*
X572919D01*
X570442Y22491D02*
X572558D01*
X585762Y7770D02*
Y13502D01*
X578763Y7770D02*
Y14703D01*
X606763Y7770D02*
Y13740D01*
X592762Y7770D02*
Y16993D01*
X599762Y7770D02*
Y18528D01*
X613763Y7770D02*
Y14145D01*
X590968Y15490D02*
X602832D01*
X595842Y22491D02*
X597958D01*
X620763Y7770D02*
Y20996D01*
X620881Y29491D02*
X623719D01*
X621242Y22491D02*
X623358D01*
X564762Y35814D02*
Y46585D01*
X571763Y7770D02*
Y53584D01*
X578763Y36097D02*
Y60585D01*
X563382Y36491D02*
X579618D01*
X354692Y117460D02*
X369000D01*
X557762Y37355D02*
Y39585D01*
X588783Y36491D02*
X605018D01*
X554940Y36762D02*
X615770Y97592D01*
X585762Y37298D02*
Y67585D01*
X595481Y29491D02*
X598319D01*
X592762Y33807D02*
Y74584D01*
X599762Y32272D02*
Y81585D01*
X620763Y29804D02*
Y372571D01*
X606763Y37060D02*
Y88584D01*
X613763Y36655D02*
Y95584D01*
X617390Y101490D02*
Y331062D01*
X627763Y34972D02*
Y378825D01*
X634763Y7770D02*
Y13402D01*
X627763Y7770D02*
Y15828D01*
X548808Y7770D02*
X635000D01*
X549529Y8490D02*
X639989D01*
X616368Y15490D02*
X628232D01*
X575669Y57491D02*
X644800D01*
X614183Y36491D02*
X630418D01*
X561669Y43491D02*
X663522D01*
X568669Y50491D02*
X678020D01*
X641763Y9119D02*
Y15487D01*
X648763Y14382D02*
Y54800D01*
X641768Y15490D02*
X649582D01*
X646642Y22491D02*
X652388D01*
X646281Y29491D02*
X653043D01*
X639582Y36491D02*
X655895D01*
X655763Y36283D02*
Y52286D01*
X662763Y43068D02*
Y51955D01*
X669763Y45596D02*
Y53711D01*
X596669Y78491D02*
X636148D01*
X634763Y37398D02*
Y385825D01*
X582669Y64491D02*
X639039D01*
X589669Y71491D02*
X636500D01*
X603669Y85491D02*
X637881D01*
X610669Y92491D02*
X642289D01*
X641763Y91886D02*
Y339914D01*
X617014Y99491D02*
X653262D01*
X617390Y113491D02*
X678030D01*
X617390Y106491D02*
X678030D01*
X676763Y47500D02*
Y58154D01*
X641763Y35313D02*
Y60514D01*
X676000Y57491D02*
X678030D01*
Y93010D02*
Y338790D01*
Y50844D02*
Y59390D01*
X662763Y100445D02*
Y331355D01*
X648763Y97600D02*
Y334200D01*
X655763Y100114D02*
Y331686D01*
X667538Y99491D02*
X678030D01*
X669763Y98689D02*
Y333111D01*
X676763Y94246D02*
Y337554D01*
X328420Y260491D02*
X333141D01*
X328420Y255770D02*
Y261371D01*
X333762Y261112D02*
Y266713D01*
X328420Y261371D02*
X344395Y277346D01*
X328420Y255770D02*
X343758Y271108D01*
X319420Y274491D02*
X321741D01*
X319762Y272512D02*
Y278113D01*
X326762Y279512D02*
Y285113D01*
X323140Y281491D02*
X328741D01*
X330140Y288491D02*
X335742D01*
X333762Y286512D02*
Y292113D01*
X337420Y239370D02*
Y244970D01*
X340762Y242712D02*
Y248313D01*
X354692Y117460D02*
X369000D01*
X337420Y244970D02*
X344395Y251946D01*
X337420Y239370D02*
X343758Y245708D01*
X338940Y246491D02*
X343656D01*
X334540Y267491D02*
X340141D01*
X340762Y268112D02*
Y273713D01*
X341540Y274491D02*
X343687D01*
X337141Y295491D02*
X342742D01*
X340762Y293512D02*
Y299113D01*
X319420Y272169D02*
X343758Y296508D01*
X615409Y335288D02*
X616945Y336824D01*
X617505Y337491D02*
X644107D01*
X618410Y344491D02*
X638721D01*
X618410Y358491D02*
X636212D01*
X618410Y340360D02*
Y372273D01*
Y351491D02*
X636389D01*
X618410Y365491D02*
X638139D01*
X641763Y371286D02*
Y392825D01*
X620520Y372491D02*
X642847D01*
X648763Y377000D02*
Y399825D01*
X622808Y373870D02*
X652789Y403851D01*
X649429Y400491D02*
X653501D01*
X617390Y218491D02*
X678030D01*
X617390Y225491D02*
X678030D01*
X617390Y197491D02*
X678030D01*
X617390Y211491D02*
X678030D01*
X617390Y204491D02*
X678030D01*
X617390Y253491D02*
X678030D01*
X617390Y267491D02*
X678030D01*
X617390Y260491D02*
X678030D01*
X617390Y232491D02*
X678030D01*
X617390Y246491D02*
X678030D01*
X617390Y239491D02*
X678030D01*
X617390Y141491D02*
X678030D01*
X617390Y148491D02*
X678030D01*
X617390Y120491D02*
X678030D01*
X617390Y134491D02*
X678030D01*
X617390Y127491D02*
X678030D01*
X617390Y176491D02*
X678030D01*
X617390Y190491D02*
X678030D01*
X617390Y183491D02*
X678030D01*
X617390Y155491D02*
X678030D01*
X617390Y169491D02*
X678030D01*
X617390Y162491D02*
X678030D01*
X617390Y295491D02*
X678030D01*
X617390Y302491D02*
X678030D01*
X617390Y274491D02*
X678030D01*
X617390Y288491D02*
X678030D01*
X617390Y281491D02*
X678030D01*
X617390Y316491D02*
X678030D01*
X628429Y379491D02*
X655644D01*
X635429Y386491D02*
X668339D01*
X617390Y309491D02*
X678030D01*
X617390Y330491D02*
X678030D01*
X617390Y323491D02*
X678030D01*
X676763Y373646D02*
Y384300D01*
X669763Y378089D02*
Y386204D01*
X676693Y337491D02*
X678030D01*
Y372410D02*
Y380960D01*
X662763Y379845D02*
Y388732D01*
X642429Y393491D02*
X657213D01*
X655763Y379514D02*
Y395517D01*
X665156Y379491D02*
X678030D01*
D12*
X622300Y434340D02*
Y442140D01*
Y434340D02*
X630100D01*
X622300Y426540D02*
Y434340D01*
X614500D02*
X622300D01*
X575733D02*
X583533D01*
X575733D02*
Y442140D01*
X567933Y434340D02*
X575733D01*
Y426540D02*
Y434340D01*
X529167D02*
Y442140D01*
X482600Y434340D02*
Y442140D01*
X529167Y434340D02*
X536967D01*
X529167Y426540D02*
Y434340D01*
X521367D02*
X529167D01*
X482600D02*
X490400D01*
X482600Y426540D02*
Y434340D01*
X474800D02*
X482600D01*
X593090Y222250D02*
X603590D01*
X593090D02*
Y232750D01*
Y211750D02*
Y222250D01*
X582590D02*
X593090D01*
Y196850D02*
Y207350D01*
Y196850D02*
X603590D01*
X582590D02*
X593090D01*
Y186350D02*
Y196850D01*
X436600Y194310D02*
Y205310D01*
Y183310D02*
Y194310D01*
X425600D02*
X436600D01*
X447600D01*
X431800Y25400D02*
Y35900D01*
Y25400D02*
X442300D01*
X431800Y14900D02*
Y25400D01*
X421300D02*
X431800D01*
X395900D02*
X406400D01*
X416900D01*
X406400D02*
Y35900D01*
Y14900D02*
Y25400D01*
X355600Y374650D02*
Y385150D01*
Y374650D02*
X366100D01*
X355600Y364150D02*
Y374650D01*
X345100D02*
X355600D01*
X264160Y508000D02*
X274660D01*
X264160D02*
Y518500D01*
X253660Y508000D02*
X264160D01*
Y497500D02*
Y508000D01*
X168910Y374650D02*
X179410D01*
X168910D02*
Y385150D01*
X54340Y420980D02*
X79440D01*
X54340D02*
Y446080D01*
X29240Y420980D02*
X54340D01*
X86840Y372980D02*
Y398080D01*
X54340Y395880D02*
Y420980D01*
X168910Y364150D02*
Y374650D01*
X158410D02*
X168910D01*
X86840Y372980D02*
X111940D01*
X61740D02*
X86840D01*
Y347880D02*
Y372980D01*
X355600Y222250D02*
X366100D01*
X355600D02*
Y232750D01*
Y211750D02*
Y222250D01*
X249910Y194310D02*
Y205310D01*
Y194310D02*
X260910D01*
X238910D02*
X249910D01*
Y183310D02*
Y194310D01*
X168910Y211750D02*
Y222250D01*
Y232750D01*
Y222250D02*
X179410D01*
X80760Y187600D02*
X92160D01*
X80760D02*
Y199000D01*
Y176200D02*
Y187600D01*
X69360D02*
X80760D01*
X15760Y176200D02*
Y187600D01*
Y199000D01*
Y187600D02*
X27160D01*
D14*
X86840Y372980D02*
X111940D01*
X86840Y347880D02*
Y372980D01*
X61740D02*
X86840D01*
Y398080D01*
X54340Y420980D02*
X81440D01*
X54340Y395880D02*
Y420980D01*
X29240D02*
X54340D01*
Y446080D01*
D15*
X76200Y304800D02*
X78700Y302300D01*
Y230100D02*
Y302300D01*
Y230100D02*
X111170Y197630D01*
Y120826D02*
Y197630D01*
X457200Y25400D02*
Y52100D01*
X439200Y70100D02*
X457200Y52100D01*
X111170Y120826D02*
X161896Y70100D01*
X439200D01*
D17*
X635000Y25400D02*
D03*
X609600D02*
D03*
X584200D02*
D03*
X558800D02*
D03*
X533400D02*
D03*
X457200D02*
D03*
X431800D02*
D03*
X406400D02*
D03*
X381000D02*
D03*
X355600D02*
D03*
X635000Y508000D02*
D03*
X558800D02*
D03*
X584200D02*
D03*
X609600D02*
D03*
X533400D02*
D03*
X508000D02*
D03*
X482600D02*
D03*
X416560D02*
D03*
X340360D02*
D03*
X365760D02*
D03*
X391160D02*
D03*
X314960D02*
D03*
X289560D02*
D03*
X264160D02*
D03*
X168910Y222250D02*
D03*
Y196850D02*
D03*
Y247650D02*
D03*
Y273050D02*
D03*
Y298450D02*
D03*
Y323850D02*
D03*
Y349250D02*
D03*
X207010D02*
D03*
X232410D02*
D03*
X257810D02*
D03*
X232410Y374650D02*
D03*
X207010D02*
D03*
X270510Y124460D02*
D03*
X245110D02*
D03*
X219710D02*
D03*
X482600Y349250D02*
D03*
Y374650D02*
D03*
Y323850D02*
D03*
Y298450D02*
D03*
Y273050D02*
D03*
Y247650D02*
D03*
Y222250D02*
D03*
X393700Y349250D02*
D03*
X419100D02*
D03*
X444500D02*
D03*
X419100Y374650D02*
D03*
X393700D02*
D03*
X457200Y124460D02*
D03*
X431800D02*
D03*
X406400D02*
D03*
X542290Y320040D02*
D03*
Y345440D02*
D03*
X567690Y370840D02*
D03*
Y345440D02*
D03*
Y320040D02*
D03*
Y294640D02*
D03*
X542290D02*
D03*
X355600Y222250D02*
D03*
Y196850D02*
D03*
Y247650D02*
D03*
Y273050D02*
D03*
Y298450D02*
D03*
Y323850D02*
D03*
Y349250D02*
D03*
X295910D02*
D03*
Y374650D02*
D03*
Y323850D02*
D03*
Y298450D02*
D03*
Y273050D02*
D03*
Y247650D02*
D03*
Y222250D02*
D03*
X593090D02*
D03*
X567690D02*
D03*
X542290D02*
D03*
X567690Y196850D02*
D03*
X593090D02*
D03*
D18*
X508000Y25400D02*
D03*
X330200D02*
D03*
X457200Y508000D02*
D03*
X238760D02*
D03*
X257810Y374650D02*
D03*
X194310Y124460D02*
D03*
X444500Y374650D02*
D03*
X381000Y124460D02*
D03*
X542290Y196850D02*
D03*
D19*
X482600Y434340D02*
D03*
Y460340D02*
D03*
Y486340D02*
D03*
X529167Y434340D02*
D03*
Y460340D02*
D03*
Y486340D02*
D03*
X575733Y434340D02*
D03*
Y460340D02*
D03*
Y486340D02*
D03*
X622300Y434340D02*
D03*
Y460340D02*
D03*
Y486340D02*
D03*
D20*
X214910Y194310D02*
D03*
X249910D02*
D03*
X401600D02*
D03*
X436600D02*
D03*
D21*
X168910Y374650D02*
D03*
X482600Y196850D02*
D03*
X542290Y370840D02*
D03*
X355600Y374650D02*
D03*
X295910Y196850D02*
D03*
D22*
X15760Y142600D02*
D03*
X80760Y187600D02*
D03*
Y142600D02*
D03*
X15760Y187600D02*
D03*
D23*
X181610Y159250D02*
D03*
X283210D02*
D03*
X469900Y158250D02*
D03*
X368300D02*
D03*
D24*
X86840Y372980D02*
D03*
X54340Y420980D02*
D03*
D25*
X116840D02*
D03*
D26*
X76200Y304800D02*
D03*
X99060Y253800D02*
D03*
X33020Y304800D02*
D03*
X55880Y253800D02*
D03*
D27*
X139700Y25400D02*
D03*
X152400Y508000D02*
D03*
X660400Y355600D02*
D03*
Y76200D02*
D03*
D28*
X487500Y125000D02*
D03*
X512500Y362500D02*
D03*
Y312500D02*
D03*
X561340Y412750D02*
D03*
X575310Y398780D02*
D03*
X589280Y384810D02*
D03*
X516890Y237490D02*
D03*
X316230Y349250D02*
D03*
Y323850D02*
D03*
X508000Y82550D02*
D03*
X533400Y107950D02*
D03*
X482600Y415290D02*
D03*
X200000Y400000D02*
D03*
X250000D02*
D03*
X50000Y350000D02*
D03*
Y200000D02*
D03*
X300000Y100000D02*
D03*
X400000Y400000D02*
D03*
Y450000D02*
D03*
X500000D02*
D03*
X550000D02*
D03*
X600000D02*
D03*
X400000Y150000D02*
D03*
X450000D02*
D03*
X350000Y50000D02*
D03*
X550000D02*
D03*
X600000Y100000D02*
D03*
Y150000D02*
D03*
X225000Y425000D02*
D03*
X25000Y225000D02*
D03*
Y375000D02*
D03*
X575000Y250000D02*
D03*
X400000Y225000D02*
D03*
X475000Y75000D02*
D03*
X200000Y225000D02*
D03*
X113700Y224800D02*
D03*
X339300Y49900D02*
D03*
X328600Y49800D02*
D03*
X483500Y38700D02*
D03*
X313900Y100000D02*
D03*
X286600Y99900D02*
D03*
D29*
X406400Y119050D02*
Y124460D01*
X431800Y116840D02*
Y124460D01*
X457200Y111760D02*
Y124460D01*
X437900Y92460D02*
X457200Y111760D01*
X416420Y101460D02*
X431800Y116840D01*
X397810Y110460D02*
X406400Y119050D01*
X350520Y124460D02*
X381000D01*
X351792Y110460D02*
X397810D01*
X348064Y101460D02*
X416420D01*
X344336Y92460D02*
X437900D01*
X312420Y124376D02*
X344336Y92460D01*
X312420Y124376D02*
Y280670D01*
X355600Y323850D01*
X321420Y264270D02*
X355600Y298450D01*
X321420Y128104D02*
Y264270D01*
Y128104D02*
X348064Y101460D01*
X330420Y131832D02*
X351792Y110460D01*
X330420Y131832D02*
Y247870D01*
X355600Y273050D01*
X339420Y231470D02*
X355600Y247650D01*
X339420Y135560D02*
Y231470D01*
Y135560D02*
X350520Y124460D01*
X167640D02*
X194310D01*
X153670Y138430D02*
X167640Y124460D01*
X153670Y138430D02*
Y232410D01*
X168910Y247650D01*
X219710Y114300D02*
Y124460D01*
X144670Y134702D02*
Y248810D01*
X168910Y273050D01*
X245110Y111760D02*
Y124460D01*
X135670Y130974D02*
Y265210D01*
X168910Y298450D01*
X270510Y109220D02*
Y124460D01*
X126670Y127246D02*
Y281610D01*
X168910Y323850D01*
X228150Y94800D02*
X245110Y111760D01*
X247090Y85800D02*
X270510Y109220D01*
X126670Y127246D02*
X168116Y85800D01*
X135670Y130974D02*
X171844Y94800D01*
X168116Y85800D02*
X247090D01*
X171844Y94800D02*
X228150D01*
X144670Y134702D02*
X175372Y104000D01*
X209410D01*
X219710Y114300D01*
D30*
X407400Y49800D02*
X431800Y25400D01*
X406400D02*
Y48800D01*
X407400Y49800D01*
X328600D02*
X407400D01*
M02*
