%FSLAX44Y44*%
%MOMM*%
G71*
G01*
G75*
G04 Layer_Physical_Order=1*
G04 Layer_Color=255*
%ADD10C,0.4000*%
%ADD11C,0.3000*%
%ADD12C,0.5000*%
%ADD13C,0.8000*%
%ADD14C,1.0000*%
%ADD15C,2.0000*%
%ADD16C,1.5000*%
%ADD17C,1.7000*%
%ADD18R,1.7000X1.7000*%
%ADD19C,1.1600*%
%ADD20C,1.8000*%
%ADD21R,1.7000X1.7000*%
%ADD22C,1.8800*%
%ADD23C,2.0000*%
%ADD24C,4.6200*%
%ADD25C,5.3800*%
%ADD26C,1.2200*%
%ADD27C,1.5240*%
%ADD28C,0.9400*%
D10*
X8270Y131489D02*
G03*
X27478Y136100I7490J11111D01*
G01*
Y149100D02*
G03*
X8270Y153711I-11718J-6500D01*
G01*
X69042Y136100D02*
G03*
X84450Y129718I11718J6500D01*
G01*
X93642Y138910D02*
G03*
X94160Y142600I-12882J3690D01*
G01*
D02*
G03*
X69042Y149100I-13400J0D01*
G01*
X155258Y58910D02*
G03*
X159860Y57000I4602J4590D01*
G01*
X155264Y58904D02*
G03*
X159860Y57000I4596J4596D01*
G01*
X209718Y131970D02*
G03*
X232210Y124460I9992J-7510D01*
G01*
X158729Y134613D02*
G03*
X165100Y131970I6371J6357D01*
G01*
X158736Y134606D02*
G03*
X165100Y131970I6364J6364D01*
G01*
X194484Y164750D02*
G03*
X171128Y149970I-12874J-5500D01*
G01*
X232210Y124460D02*
G03*
X229702Y131970I-12500J0D01*
G01*
X8270Y176489D02*
G03*
X29160Y187600I7490J11111D01*
G01*
D02*
G03*
X8270Y198711I-13400J0D01*
G01*
X94160Y187600D02*
G03*
X94160Y187600I-13400J0D01*
G01*
X90060Y207010D02*
G03*
X92696Y200646I9000J0D01*
G01*
X90060Y207010D02*
G03*
X92703Y200639I9000J0D01*
G01*
X52757Y263405D02*
G03*
X65485Y250677I3123J-9605D01*
G01*
X129430Y212090D02*
G03*
X132066Y205726I9000J0D01*
G01*
X108060Y249216D02*
G03*
X109160Y253800I-9000J4584D01*
G01*
D02*
G03*
X90060Y249216I-10100J0D01*
G01*
X147299Y190493D02*
G03*
X153670Y187850I6371J6357D01*
G01*
X160235D02*
G03*
X173714Y185310I8675J9000D01*
G01*
X147306Y190486D02*
G03*
X153670Y187850I6364J6364D01*
G01*
X129430Y212090D02*
G03*
X132073Y205719I9000J0D01*
G01*
X179611Y203310D02*
G03*
X160235Y205850I-10701J-6460D01*
G01*
X205529Y185310D02*
G03*
X227910Y194310I9381J9000D01*
G01*
D02*
G03*
X205529Y203310I-13000J0D01*
G01*
X181410Y222250D02*
G03*
X181410Y222250I-12500J0D01*
G01*
X147430Y255270D02*
G03*
X144794Y261634I-9000J0D01*
G01*
X147430Y255270D02*
G03*
X144787Y261641I-9000J0D01*
G01*
X200510Y257810D02*
G03*
X202414Y253214I6500J0D01*
G01*
X200510Y257810D02*
G03*
X202420Y253208I6500J0D01*
G01*
X181410Y247650D02*
G03*
X181410Y247650I-12500J0D01*
G01*
Y273050D02*
G03*
X181410Y273050I-12500J0D01*
G01*
X296696Y68096D02*
G03*
X292100Y70000I-4596J-4596D01*
G01*
X296702Y68090D02*
G03*
X292100Y70000I-4602J-4590D01*
G01*
X235119Y131972D02*
G03*
X257610Y124460I9991J-7512D01*
G01*
D02*
G03*
X243573Y136865I-12500J0D01*
G01*
X283010Y124460D02*
G03*
X283010Y124460I-12500J0D01*
G01*
X269727Y163019D02*
G03*
X295610Y152750I13483J-3769D01*
G01*
Y165750D02*
G03*
X292094Y170070I-12400J-6500D01*
G01*
X368100Y25400D02*
G03*
X368100Y25400I-12500J0D01*
G01*
X369500Y30299D02*
G03*
X393500Y25400I11500J-4899D01*
G01*
X369696Y45292D02*
G03*
X369500Y43180I11304J-2112D01*
G01*
X369696Y45292D02*
G03*
X369500Y43180I11304J-2112D01*
G01*
X320886Y152750D02*
G03*
X324350Y151750I3464J5500D01*
G01*
X358624Y143026D02*
G03*
X356720Y138430I4596J-4596D01*
G01*
X320886Y152750D02*
G03*
X324350Y151750I3464J5500D01*
G01*
X316230Y170070D02*
G03*
X322594Y172706I0J9000D01*
G01*
X316230Y170070D02*
G03*
X322601Y172713I0J9000D01*
G01*
X326814Y164750D02*
G03*
X323350Y165750I-3464J-5500D01*
G01*
X326814Y164750D02*
G03*
X323350Y165750I-3464J-5500D01*
G01*
X356720Y60960D02*
G03*
X358630Y56358I6500J0D01*
G01*
X356720Y60960D02*
G03*
X358624Y56364I6500J0D01*
G01*
X355900Y151750D02*
G03*
X361571Y145973I12400J6500D01*
G01*
X382300Y158250D02*
G03*
X355900Y164750I-14000J0D01*
G01*
X358630Y143032D02*
G03*
X356720Y138430I4590J-4602D01*
G01*
X262143Y189911D02*
G03*
X262910Y194310I-12233J4399D01*
G01*
D02*
G03*
X254309Y182077I-13000J0D01*
G01*
X237974Y217654D02*
G03*
X242570Y215750I4596J4596D01*
G01*
X237968Y217660D02*
G03*
X242570Y215750I4602J4590D01*
G01*
X276860Y202350D02*
G03*
X272971Y200739I0J-5500D01*
G01*
X276860Y202350D02*
G03*
X272962Y200731I0J-5500D01*
G01*
X285233Y215750D02*
G03*
X304019Y212737I10677J6500D01*
G01*
X308410Y222250D02*
G03*
X285233Y228750I-12500J0D01*
G01*
X305423Y214141D02*
G03*
X308410Y222250I-9513J8109D01*
G01*
X250668Y243060D02*
G03*
X255270Y241150I4602J4590D01*
G01*
X250674Y243054D02*
G03*
X255270Y241150I4596J4596D01*
G01*
X285233D02*
G03*
X308410Y247650I10677J6500D01*
G01*
D02*
G03*
X285233Y254150I-12500J0D01*
G01*
Y266550D02*
G03*
X308410Y273050I10677J6500D01*
G01*
X334010Y205850D02*
G03*
X327639Y203207I0J-9000D01*
G01*
X334010Y205850D02*
G03*
X327646Y203214I0J-9000D01*
G01*
X346925Y187850D02*
G03*
X360404Y185310I8675J9000D01*
G01*
X366301Y203310D02*
G03*
X346925Y205850I-10701J-6460D01*
G01*
X368100Y222250D02*
G03*
X368100Y222250I-12500J0D01*
G01*
X320119Y213281D02*
G03*
X321730Y217170I-3889J3889D01*
G01*
X320111Y213272D02*
G03*
X321730Y217170I-3881J3898D01*
G01*
X368100Y247650D02*
G03*
X368100Y247650I-12500J0D01*
G01*
Y273050D02*
G03*
X368100Y273050I-12500J0D01*
G01*
X78940Y285860D02*
G03*
X72576Y283224I0J-9000D01*
G01*
X78940Y285860D02*
G03*
X72569Y283217I0J-9000D01*
G01*
X33020Y318800D02*
G03*
X33020Y290800I0J-14000D01*
G01*
X123211Y283217D02*
G03*
X116840Y285860I-6371J-6357D01*
G01*
X123204Y283224D02*
G03*
X116840Y285860I-6364J-6364D01*
G01*
X111760Y290800D02*
G03*
X121659Y294900I0J14000D01*
G01*
X181410Y298450D02*
G03*
X181410Y298450I-12500J0D01*
G01*
X111760Y290800D02*
G03*
X121659Y294900I0J14000D01*
G01*
X141980Y315221D02*
G03*
X146080Y325120I-9900J9900D01*
G01*
X141980Y315221D02*
G03*
X146080Y325120I-9900J9900D01*
G01*
X181410Y323850D02*
G03*
X181410Y323850I-12500J0D01*
G01*
X225910Y270510D02*
G03*
X227814Y265914I6500J0D01*
G01*
X225910Y270510D02*
G03*
X227820Y265908I6500J0D01*
G01*
X251310Y281940D02*
G03*
X253220Y277338I6500J0D01*
G01*
X251310Y281940D02*
G03*
X253214Y277344I6500J0D01*
G01*
X181610Y343750D02*
G03*
X185499Y345361I0J5500D01*
G01*
X181610Y343750D02*
G03*
X185508Y345369I0J5500D01*
G01*
X179860Y355278D02*
G03*
X180135Y343750I-10950J-6028D01*
G01*
X197497Y357359D02*
G03*
X200510Y338573I9513J-8109D01*
G01*
X213510D02*
G03*
X219510Y349250I-6500J10677D01*
G01*
X244910D02*
G03*
X225910Y338573I-12500J0D01*
G01*
X219510Y349250D02*
G03*
X198901Y358763I-12500J0D01*
G01*
X238910Y338573D02*
G03*
X244910Y349250I-6500J10677D01*
G01*
X95457Y398674D02*
G03*
X113940Y372980I-8617J-25694D01*
G01*
X81440Y420980D02*
G03*
X81440Y420980I-27100J0D01*
G01*
X147740D02*
G03*
X95457Y398674I-30900J0D01*
G01*
X113940Y372980D02*
G03*
X106159Y391985I-27100J0D01*
G01*
D02*
G03*
X118080Y390105I10681J28995D01*
G01*
X202962Y362824D02*
G03*
X218235Y369150I4048J11826D01*
G01*
X221185D02*
G03*
X243635Y369150I11225J5500D01*
G01*
X218235Y380150D02*
G03*
X195184Y370602I-11225J-5500D01*
G01*
X243635Y380150D02*
G03*
X221185Y380150I-11225J-5500D01*
G01*
X146080Y405740D02*
G03*
X145550Y409555I-14000J0D01*
G01*
X146080Y405740D02*
G03*
X145550Y409555I-14000J0D01*
G01*
D02*
G03*
X147740Y420980I-28710J11425D01*
G01*
X262098Y268460D02*
G03*
X266700Y266550I4602J4590D01*
G01*
X262104Y268454D02*
G03*
X266700Y266550I4596J4596D01*
G01*
X308410Y273050D02*
G03*
X285233Y279550I-12500J0D01*
G01*
X308410Y298450D02*
G03*
X301410Y309675I-12500J0D01*
G01*
X290410D02*
G03*
X308410Y298450I5500J-11225D01*
G01*
X285692Y331050D02*
G03*
X290410Y312625I10218J-7200D01*
G01*
X301410D02*
G03*
X308052Y320881I-5500J11225D01*
G01*
X264310Y338573D02*
G03*
X270310Y349250I-6500J10677D01*
G01*
X272630Y344170D02*
G03*
X274249Y340272I5500J0D01*
G01*
X272630Y344170D02*
G03*
X274241Y340281I5500J0D01*
G01*
X270310Y349250D02*
G03*
X251310Y338573I-12500J0D01*
G01*
X283630Y367030D02*
G03*
X282019Y370919I-5500J0D01*
G01*
X281852Y332669D02*
G03*
X285692Y331050I3898J3881D01*
G01*
X281861Y332661D02*
G03*
X285692Y331050I3889J3889D01*
G01*
X299958Y361076D02*
G03*
X283630Y351585I-4048J-11826D01*
G01*
X308052Y320881D02*
G03*
X310730Y317109I8178J2969D01*
G01*
X283630Y367030D02*
G03*
X282011Y370928I-5500J0D01*
G01*
X305423Y366541D02*
G03*
X308410Y374650I-9513J8109D01*
G01*
X324930Y323850D02*
G03*
X321114Y331050I-8700J0D01*
G01*
X321730Y317109D02*
G03*
X324930Y323850I-5500J6741D01*
G01*
X368100Y298450D02*
G03*
X368100Y298450I-12500J0D01*
G01*
Y323850D02*
G03*
X347491Y333363I-12500J0D01*
G01*
X346382Y332292D02*
G03*
X368100Y323850I9218J-8442D01*
G01*
X321114Y342050D02*
G03*
X324930Y349250I-4884J7200D01*
G01*
X342900Y331050D02*
G03*
X346382Y332292I0J5500D01*
G01*
X342900Y331050D02*
G03*
X346382Y332292I0J5500D01*
G01*
X324930Y349250D02*
G03*
X324886Y350127I-8700J0D01*
G01*
X329009Y354251D02*
G03*
X330620Y358140I-3889J3889D01*
G01*
X329001Y354242D02*
G03*
X330620Y358140I-3881J3898D01*
G01*
X351552Y337424D02*
G03*
X366825Y343750I4048J11826D01*
G01*
X368300D02*
G03*
X372189Y345361I0J5500D01*
G01*
X368300Y343750D02*
G03*
X372198Y345369I0J5500D01*
G01*
X366550Y355278D02*
G03*
X343774Y345202I-10950J-6028D01*
G01*
X274399Y378539D02*
G03*
X270510Y380150I-3889J-3889D01*
G01*
X274408Y378531D02*
G03*
X270510Y380150I-3898J-3881D01*
G01*
X284060Y381000D02*
G03*
X284319Y379331I5500J0D01*
G01*
D02*
G03*
X304019Y365137I11591J-4681D01*
G01*
X284060Y381000D02*
G03*
X284319Y379331I5500J0D01*
G01*
X308410Y374650D02*
G03*
X295060Y387121I-12500J0D01*
G01*
X276660Y508000D02*
G03*
X276660Y508000I-12500J0D01*
G01*
X302060D02*
G03*
X284060Y496775I-12500J0D01*
G01*
X295060D02*
G03*
X302060Y508000I-5500J11225D01*
G01*
X321231Y445849D02*
G03*
X320460Y444881I3889J-3889D01*
G01*
X321239Y445858D02*
G03*
X320460Y444881I3881J-3898D01*
G01*
Y496775D02*
G03*
X327460Y508000I-5500J11225D01*
G01*
D02*
G03*
X309460Y496775I-12500J0D01*
G01*
X352860Y508000D02*
G03*
X352860Y508000I-12500J0D01*
G01*
X378260D02*
G03*
X373869Y498487I-12500J0D01*
G01*
X393500Y25400D02*
G03*
X392500Y30299I-12500J0D01*
G01*
X392430Y66110D02*
G03*
X384291Y62734I0J-11500D01*
G01*
X392430Y66110D02*
G03*
X384298Y62742I0J-11500D01*
G01*
X418900Y25400D02*
G03*
X418900Y25400I-12500J0D01*
G01*
X444300D02*
G03*
X444300Y25400I-12500J0D01*
G01*
X372890Y138908D02*
G03*
X374800Y143510I-4590J4602D01*
G01*
X372896Y138914D02*
G03*
X374800Y143510I-4596J4596D01*
G01*
Y145850D02*
G03*
X382300Y158250I-6500J12400D01*
G01*
X418900Y124460D02*
G03*
X418900Y124460I-12500J0D01*
G01*
X444300D02*
G03*
X444300Y124460I-12500J0D01*
G01*
X414600Y194310D02*
G03*
X392219Y203310I-13000J0D01*
G01*
Y185310D02*
G03*
X414600Y194310I9381J9000D01*
G01*
X469700Y25400D02*
G03*
X469700Y25400I-12500J0D01*
G01*
X449600Y194310D02*
G03*
X449600Y194310I-13000J0D01*
G01*
X469700Y124460D02*
G03*
X469700Y124460I-12500J0D01*
G01*
X475115Y171243D02*
G03*
X483900Y158250I-5214J-12993D01*
G01*
D02*
G03*
X482893Y163465I-14000J0D01*
G01*
X486481Y167052D02*
G03*
X488100Y170950I-3881J3898D01*
G01*
X486489Y167061D02*
G03*
X488100Y170950I-3889J3889D01*
G01*
X427198Y217660D02*
G03*
X431800Y215750I4602J4590D01*
G01*
X427204Y217654D02*
G03*
X431800Y215750I4596J4596D01*
G01*
X387200Y260350D02*
G03*
X389104Y255754I6500J0D01*
G01*
X387200Y260350D02*
G03*
X389110Y255748I6500J0D01*
G01*
X434818Y243060D02*
G03*
X439420Y241150I4602J4590D01*
G01*
X434824Y243054D02*
G03*
X439420Y241150I4596J4596D01*
G01*
X412600Y267970D02*
G03*
X414510Y263368I6500J0D01*
G01*
X412600Y267970D02*
G03*
X414504Y263374I6500J0D01*
G01*
X438000Y281940D02*
G03*
X439904Y277344I6500J0D01*
G01*
X438000Y281940D02*
G03*
X439910Y277338I6500J0D01*
G01*
X448788Y268460D02*
G03*
X453390Y266550I4602J4590D01*
G01*
X448794Y268454D02*
G03*
X453390Y266550I4596J4596D01*
G01*
X471923Y215750D02*
G03*
X495100Y222250I10677J6500D01*
G01*
X471923Y241150D02*
G03*
X495100Y247650I10677J6500D01*
G01*
Y222250D02*
G03*
X471923Y228750I-12500J0D01*
G01*
Y266550D02*
G03*
X495100Y273050I10677J6500D01*
G01*
Y247650D02*
G03*
X471923Y254150I-12500J0D01*
G01*
X472382Y280250D02*
G03*
X471923Y279550I10218J-7200D01*
G01*
X495100Y273050D02*
G03*
X492818Y280250I-12500J0D01*
G01*
X458050Y292100D02*
G03*
X459669Y288202I5500J0D01*
G01*
X466002Y281869D02*
G03*
X469900Y280250I3898J3881D01*
G01*
X466011Y281861D02*
G03*
X469900Y280250I3889J3889D01*
G01*
X458050Y292100D02*
G03*
X459661Y288211I5500J0D01*
G01*
X477100Y309675D02*
G03*
X472382Y291250I5500J-11225D01*
G01*
X495100Y298450D02*
G03*
X488100Y309675I-12500J0D01*
G01*
X492818Y291250D02*
G03*
X495100Y298450I-10218J7200D01*
G01*
Y323850D02*
G03*
X477100Y312625I-12500J0D01*
G01*
X488100D02*
G03*
X495100Y323850I-5500J11225D01*
G01*
X502500Y89291D02*
G03*
X516700Y82550I5500J-6741D01*
G01*
D02*
G03*
X513500Y89291I-8700J0D01*
G01*
X514350Y43110D02*
G03*
X522482Y46478I0J11500D01*
G01*
X514350Y43110D02*
G03*
X522489Y46486I0J11500D01*
G01*
X545850Y26518D02*
G03*
X545850Y24281I-12450J-1119D01*
G01*
X504111Y191849D02*
G03*
X502500Y187960I3889J-3889D01*
G01*
X504119Y191858D02*
G03*
X502500Y187960I3881J-3898D01*
G01*
X534277Y116606D02*
G03*
X542100Y107950I-878J-8656D01*
G01*
D02*
G03*
X542056Y108827I-8700J0D01*
G01*
X575814Y99811D02*
G03*
X579190Y107950I-8124J8139D01*
G01*
X575822Y99818D02*
G03*
X579190Y107950I-8132J8132D01*
G01*
X546179Y112951D02*
G03*
X547790Y116840I-3889J3889D01*
G01*
X546171Y112942D02*
G03*
X547790Y116840I-3881J3898D01*
G01*
X579190Y191951D02*
G03*
X580190Y196850I-11500J4899D01*
G01*
X543993Y234634D02*
G03*
X530464Y218202I-1703J-12384D01*
G01*
X538242Y210424D02*
G03*
X554790Y222250I4048J11826D01*
G01*
X534293Y247869D02*
G03*
X536633Y241993I7997J-219D01*
G01*
X508088Y289631D02*
G03*
X504190Y291250I-3898J-3881D01*
G01*
X508079Y289639D02*
G03*
X504190Y291250I-3889J-3889D01*
G01*
X535790Y330717D02*
G03*
X535790Y309363I6500J-10677D01*
G01*
Y305317D02*
G03*
X535790Y283963I6500J-10677D01*
G01*
X548790D02*
G03*
X554790Y294640I-6500J10677D01*
G01*
D02*
G03*
X548790Y305317I-12500J0D01*
G01*
X554790Y320040D02*
G03*
X548790Y330717I-12500J0D01*
G01*
Y309363D02*
G03*
X554790Y320040I-6500J10677D01*
G01*
X556190Y201749D02*
G03*
X556190Y191951I11500J-4899D01*
G01*
X580190Y196850D02*
G03*
X579190Y201749I-12500J0D01*
G01*
X555242Y223385D02*
G03*
X556190Y217351I12448J-1135D01*
G01*
X554790Y222250D02*
G03*
X554674Y223953I-12500J0D01*
G01*
X579190Y217351D02*
G03*
X580190Y222250I-11500J4899D01*
G01*
D02*
G03*
X566555Y234698I-12500J0D01*
G01*
X605590Y196850D02*
G03*
X605590Y196850I-12500J0D01*
G01*
Y222250D02*
G03*
X605590Y222250I-12500J0D01*
G01*
X580190Y294640D02*
G03*
X580190Y294640I-12500J0D01*
G01*
Y320040D02*
G03*
X580190Y320040I-12500J0D01*
G01*
X384187Y357359D02*
G03*
X387200Y338573I9513J-8109D01*
G01*
X400200D02*
G03*
X406200Y349250I-6500J10677D01*
G01*
D02*
G03*
X385591Y358763I-12500J0D01*
G01*
X389652Y362824D02*
G03*
X404925Y369150I4048J11826D01*
G01*
X407875D02*
G03*
X430325Y369150I11225J5500D01*
G01*
X425600Y338573D02*
G03*
X431600Y349250I-6500J10677D01*
G01*
X451000Y338573D02*
G03*
X457000Y349250I-6500J10677D01*
G01*
X431600D02*
G03*
X412600Y338573I-12500J0D01*
G01*
X457000Y349250D02*
G03*
X438000Y338573I-12500J0D01*
G01*
X404925Y380150D02*
G03*
X381874Y370602I-11225J-5500D01*
G01*
X430325Y380150D02*
G03*
X407875Y380150I-11225J-5500D01*
G01*
X459819Y378539D02*
G03*
X457000Y380045I-3889J-3889D01*
G01*
X459828Y378531D02*
G03*
X457000Y380045I-3898J-3881D01*
G01*
X451700Y425450D02*
G03*
X453311Y421561I5500J0D01*
G01*
X451700Y425450D02*
G03*
X453319Y421552I5500J0D01*
G01*
X469050Y367030D02*
G03*
X467439Y370919I-5500J0D01*
G01*
X469050Y367030D02*
G03*
X467431Y370928I-5500J0D01*
G01*
X486648Y361076D02*
G03*
X495100Y349250I-4048J-11826D01*
G01*
D02*
G03*
X494426Y353298I-12500J0D01*
G01*
X501721Y360592D02*
G03*
X503340Y364490I-3881J3898D01*
G01*
X501729Y360601D02*
G03*
X503340Y364490I-3889J3889D01*
G01*
X490709Y384163D02*
G03*
X478552Y386476I-8109J-9513D01*
G01*
X470774Y378698D02*
G03*
X490709Y365137I11826J-4048D01*
G01*
X503340Y384810D02*
G03*
X501721Y388708I-5500J0D01*
G01*
X503340Y384810D02*
G03*
X501729Y388699I-5500J0D01*
G01*
X483760Y406668D02*
G03*
X491300Y415290I-1160J8622D01*
G01*
X480996Y424672D02*
G03*
X492400Y434340I1604J9668D01*
G01*
X491300Y415290D02*
G03*
X481722Y423946I-8700J0D01*
G01*
X508850Y421640D02*
G03*
X510469Y417742I5500J0D01*
G01*
X508850Y421640D02*
G03*
X510461Y417751I5500J0D01*
G01*
X519351Y408861D02*
G03*
X523240Y407250I3889J3889D01*
G01*
X519342Y408869D02*
G03*
X523240Y407250I3898J3881D01*
G01*
X411060Y440690D02*
G03*
X412671Y436801I5500J0D01*
G01*
X411060Y440690D02*
G03*
X412679Y436792I5500J0D01*
G01*
X492400Y434340D02*
G03*
X472932Y432736I-9800J0D01*
G01*
X472976Y462186D02*
G03*
X492400Y460340I9625J-1846D01*
G01*
X375273Y499891D02*
G03*
X378260Y508000I-9513J8109D01*
G01*
X387112Y496174D02*
G03*
X403660Y508000I4048J11826D01*
G01*
X422060Y496775D02*
G03*
X429060Y508000I-5500J11225D01*
G01*
X403660D02*
G03*
X379334Y503952I-12500J0D01*
G01*
X429060Y508000D02*
G03*
X411060Y496775I-12500J0D01*
G01*
X495100Y508000D02*
G03*
X470774Y503952I-12500J0D01*
G01*
X492400Y460340D02*
G03*
X480754Y469964I-9800J0D01*
G01*
X519850Y454590D02*
G03*
X518239Y458479I-5500J0D01*
G01*
X519850Y454590D02*
G03*
X518231Y458488I-5500J0D01*
G01*
X511390Y472617D02*
G03*
X513001Y468728I5500J0D01*
G01*
X511390Y472617D02*
G03*
X513009Y468719I5500J0D01*
G01*
X475400Y479692D02*
G03*
X484446Y476716I7200J6648D01*
G01*
X492400Y486340D02*
G03*
X491473Y490500I-9800J0D01*
G01*
X492225Y484494D02*
G03*
X492400Y486340I-9625J1846D01*
G01*
X496000Y490500D02*
G03*
X499889Y492111I0J5500D01*
G01*
X496000Y490500D02*
G03*
X499898Y492119I0J5500D01*
G01*
X493277Y501500D02*
G03*
X495100Y508000I-10677J6500D01*
G01*
X503952Y496174D02*
G03*
X516109Y498487I4048J11826D01*
G01*
X513001Y495379D02*
G03*
X511390Y491490I3889J-3889D01*
G01*
X513009Y495388D02*
G03*
X511390Y491490I3881J-3898D01*
G01*
X517513Y499891D02*
G03*
X520500Y508000I-9513J8109D01*
G01*
D02*
G03*
X496174Y503952I-12500J0D01*
G01*
X535790Y356117D02*
G03*
X535790Y334763I6500J-10677D01*
G01*
X554790Y345440D02*
G03*
X548790Y356117I-12500J0D01*
G01*
Y334763D02*
G03*
X554790Y345440I-6500J10677D01*
G01*
X580190D02*
G03*
X580190Y345440I-12500J0D01*
G01*
X578915Y376340D02*
G03*
X578915Y365340I-11225J-5500D01*
G01*
X569810Y405521D02*
G03*
X583780Y396793I5500J-6741D01*
G01*
X562758Y421334D02*
G03*
X554599Y418250I-1418J-8584D01*
G01*
X555840Y430530D02*
G03*
X557459Y426632I5500J0D01*
G01*
X519850Y431300D02*
G03*
X538967Y434340I9317J3040D01*
G01*
D02*
G03*
X519850Y437380I-9800J0D01*
G01*
X555840Y430530D02*
G03*
X557451Y426641I5500J0D01*
G01*
X554599Y407250D02*
G03*
X569810Y410763I6741J5500D01*
G01*
X583780Y439934D02*
G03*
X566840Y438457I-8047J-5594D01*
G01*
X575087Y424561D02*
G03*
X583780Y428746I646J9779D01*
G01*
X603250Y365340D02*
G03*
X607139Y366951I0J5500D01*
G01*
X603250Y365340D02*
G03*
X607148Y366959I0J5500D01*
G01*
X583780Y391551D02*
G03*
X587293Y376340I5500J-6741D01*
G01*
X583780Y400767D02*
G03*
X580810Y405521I-8470J-1987D01*
G01*
X597980Y384810D02*
G03*
X594780Y391551I-8700J0D01*
G01*
X591267Y376340D02*
G03*
X597980Y384810I-1987J8470D01*
G01*
X580810Y416560D02*
G03*
X579199Y420449I-5500J0D01*
G01*
X580810Y416560D02*
G03*
X579191Y420458I-5500J0D01*
G01*
X642691Y402502D02*
G03*
X644310Y406400I-3881J3898D01*
G01*
X642699Y402511D02*
G03*
X644310Y406400I-3889J3889D01*
G01*
X632100Y434340D02*
G03*
X632100Y434340I-9800J0D01*
G01*
X519542Y462186D02*
G03*
X538967Y460340I9625J-1846D01*
G01*
D02*
G03*
X527320Y469964I-9800J0D01*
G01*
X553300Y477273D02*
G03*
X554919Y473376I5500J0D01*
G01*
X553300Y477273D02*
G03*
X554911Y473384I5500J0D01*
G01*
X566840Y454167D02*
G03*
X565229Y458056I-5500J0D01*
G01*
X566109Y462186D02*
G03*
X583780Y454746I9625J-1846D01*
G01*
X566840Y454167D02*
G03*
X565221Y458064I-5500J0D01*
G01*
X583780Y465934D02*
G03*
X573887Y469964I-8047J-5594D01*
G01*
X522390Y479261D02*
G03*
X531013Y476716I6777J7079D01*
G01*
X538967Y486340D02*
G03*
X532578Y495527I-9800J0D01*
G01*
X538791Y484494D02*
G03*
X538967Y486340I-9625J1846D01*
G01*
X545900Y508000D02*
G03*
X521574Y503952I-12500J0D01*
G01*
X532578Y495527D02*
G03*
X545900Y508000I822J12473D01*
G01*
X579676Y495312D02*
G03*
X577580Y476716I-3943J-8972D01*
G01*
X579006Y496630D02*
G03*
X579676Y495312I5194J1810D01*
G01*
X579006Y496630D02*
G03*
X579676Y495312I5194J1810D01*
G01*
X571300Y508000D02*
G03*
X553300Y496775I-12500J0D01*
G01*
X564300D02*
G03*
X571300Y508000I-5500J11225D01*
G01*
X596700D02*
G03*
X579006Y496630I-12500J0D01*
G01*
X632100Y460340D02*
G03*
X620454Y469964I-9800J0D01*
G01*
X594780Y472793D02*
G03*
X593161Y476691I-5500J0D01*
G01*
X594780Y472793D02*
G03*
X593169Y476682I-5500J0D01*
G01*
X632100Y486340D02*
G03*
X624146Y476716I-9800J0D01*
G01*
X612676Y462186D02*
G03*
X632100Y460340I9625J-1846D01*
G01*
X644310Y469830D02*
G03*
X642699Y473719I-5500J0D01*
G01*
X644310Y469830D02*
G03*
X642691Y473728I-5500J0D01*
G01*
X585533Y486340D02*
G03*
X584798Y490063I-9800J0D01*
G01*
X585358Y484494D02*
G03*
X585533Y486340I-9625J1846D01*
G01*
X592103Y498315D02*
G03*
X596700Y508000I-7903J9685D01*
G01*
X631925Y484494D02*
G03*
X632100Y486340I-9625J1846D01*
G01*
X622100Y508000D02*
G03*
X622100Y508000I-12500J0D01*
G01*
X647500D02*
G03*
X647500Y508000I-12500J0D01*
G01*
X652130D02*
G03*
X635000Y525130I-17130J0D01*
G01*
X8270Y125990D02*
X14990Y119270D01*
X91190D01*
X80761D02*
Y129200D01*
X11769Y122491D02*
X91677D01*
X96761Y113699D02*
Y117406D01*
X104761Y105699D02*
Y109406D01*
X88761Y119270D02*
Y125407D01*
X95969Y114490D02*
X99677D01*
X32761Y119270D02*
Y136100D01*
X40761Y119270D02*
Y136100D01*
X16761Y119270D02*
Y129237D01*
X24761Y119270D02*
Y132673D01*
X64761Y119270D02*
Y136100D01*
X72761Y119270D02*
Y131849D01*
X48761Y119270D02*
Y136100D01*
X56761Y119270D02*
Y136100D01*
X120761Y89699D02*
Y93406D01*
X119969Y90490D02*
X123677D01*
X112761Y97699D02*
Y101406D01*
X111969Y98490D02*
X115677D01*
X136761Y73699D02*
Y77406D01*
X135969Y74490D02*
X139677D01*
X128761Y81699D02*
Y85406D01*
X127969Y82490D02*
X131677D01*
X91190Y119270D02*
X154690Y55770D01*
X84450Y129718D02*
X155258Y58910D01*
X103969Y106490D02*
X107677D01*
X93642Y138910D02*
X162552Y70000D01*
X120761Y111791D02*
Y172581D01*
X128761Y103791D02*
Y164581D01*
X112761Y119791D02*
Y180581D01*
X118062Y114490D02*
X181810D01*
X8270Y125990D02*
Y131489D01*
Y154490D02*
X9581D01*
X8270Y130491D02*
X10022D01*
X8761Y125499D02*
Y131173D01*
X27478Y136100D02*
X69042D01*
X27478Y149100D02*
X69042D01*
X21939Y154490D02*
X74581D01*
X8270Y153711D02*
Y176489D01*
X8761Y154027D02*
Y176173D01*
X16761Y155963D02*
Y174237D01*
X24761Y152527D02*
Y177673D01*
X72761Y153351D02*
Y176849D01*
X29114Y186491D02*
X67406D01*
X25587Y178491D02*
X70933D01*
X21498Y130491D02*
X75022D01*
X86939Y154490D02*
X138852D01*
X93583Y146490D02*
X146852D01*
X102062Y130491D02*
X181810D01*
X110062Y122491D02*
X181810D01*
X94062Y138490D02*
X154852D01*
X80761Y156000D02*
Y174200D01*
X8270Y170490D02*
X122852D01*
X8270Y162491D02*
X130852D01*
X88761Y153349D02*
Y176851D01*
X90587Y178491D02*
X114852D01*
X94114Y186491D02*
X106852D01*
X132307D02*
X161915D01*
X152761Y57699D02*
Y61406D01*
X143969Y66490D02*
X147677D01*
X151969Y58490D02*
X155718D01*
X168761Y55770D02*
Y57000D01*
X176761Y55770D02*
Y57000D01*
X160761Y55770D02*
Y57000D01*
X144761Y65699D02*
Y69406D01*
X152761Y79791D02*
Y140581D01*
X136761Y95791D02*
Y156581D01*
X144761Y87791D02*
Y148581D01*
X168761Y70000D02*
Y131970D01*
X176761Y70000D02*
Y131970D01*
X160761Y71791D02*
Y133085D01*
X181810Y111960D02*
Y131970D01*
X184761Y55770D02*
Y57000D01*
X192761Y55770D02*
Y57000D01*
X200761Y70000D02*
Y111960D01*
Y55770D02*
Y57000D01*
X224761Y55770D02*
Y57000D01*
X232761Y55770D02*
Y57000D01*
X208761Y55770D02*
Y57000D01*
X216761Y55770D02*
Y57000D01*
X184761Y70000D02*
Y111960D01*
X192761Y70000D02*
Y111960D01*
X206810D02*
Y131970D01*
X224761Y70000D02*
Y113026D01*
X232761Y70000D02*
Y122521D01*
X208761Y70000D02*
Y118429D01*
X216761Y70000D02*
Y112313D01*
X156307Y162491D02*
X167990D01*
X148307Y170490D02*
X173264D01*
X168828Y149970D02*
X171128D01*
X165100Y131970D02*
X181810D01*
X164307Y154490D02*
X168444D01*
X168761Y150037D02*
Y153690D01*
X160761Y158037D02*
Y187371D01*
X168761Y164810D02*
Y184351D01*
X173714Y185310D02*
X205529D01*
X192761Y167715D02*
Y185310D01*
X200761Y164750D02*
Y185310D01*
X176761Y172384D02*
Y185310D01*
X184761Y172891D02*
Y185310D01*
X181810Y111960D02*
X206810D01*
Y114490D02*
X212169D01*
X206810Y130491D02*
X208761D01*
X206810Y131970D02*
X209718D01*
X227250Y114490D02*
X237570D01*
X208761Y130491D02*
Y131970D01*
X230659Y130491D02*
X234161D01*
X216761Y164750D02*
Y181443D01*
X224761Y164750D02*
Y185828D01*
X208761Y164750D02*
Y182856D01*
X194484Y164750D02*
X236982D01*
X232761Y126399D02*
Y131970D01*
X229702D02*
X234950D01*
X225295Y186491D02*
X239525D01*
X240761Y168529D02*
Y185074D01*
X48761Y149100D02*
Y246635D01*
X56761Y149100D02*
Y243738D01*
X27253Y194491D02*
X69267D01*
X8270Y198711D02*
Y427510D01*
X24761Y197527D02*
Y293496D01*
X8761Y199027D02*
Y428001D01*
X16761Y200963D02*
Y436001D01*
X32761Y149100D02*
Y290802D01*
X40761Y149100D02*
Y290800D01*
X64761Y149100D02*
Y248990D01*
X72761Y198351D02*
Y257953D01*
X96761Y135791D02*
Y196581D01*
X104761Y127791D02*
Y188581D01*
X92253Y194491D02*
X98851D01*
X124307D02*
X143301D01*
X88761Y198349D02*
Y267860D01*
X92703Y200639D02*
X158729Y134613D01*
X108060Y210738D02*
X168828Y149970D01*
X120761Y198037D02*
Y260211D01*
X128761Y190037D02*
Y252211D01*
X8270Y210491D02*
X90060D01*
X8270Y202491D02*
X91277D01*
X8270Y226491D02*
X90060D01*
X8270Y218491D02*
X90060D01*
X8270Y234491D02*
X90060D01*
Y207010D02*
Y249216D01*
X65422Y250491D02*
X89518D01*
X8270Y242491D02*
X90060D01*
X8270Y250491D02*
X46338D01*
X8270Y258491D02*
X46935D01*
X48761Y260965D02*
Y290800D01*
X80761Y201000D02*
Y265953D01*
X65485Y250677D02*
X82668Y267860D01*
X73299Y258491D02*
X90115D01*
X104761Y262137D02*
Y267860D01*
X108060Y210738D02*
Y249216D01*
Y218491D02*
X129430D01*
X108060Y234491D02*
X129430D01*
X108060Y226491D02*
X129430D01*
X116307Y202491D02*
X135302D01*
X108060Y242491D02*
X129430D01*
X108307Y210491D02*
X129573D01*
X108005Y258491D02*
X122481D01*
X108602Y250491D02*
X129430D01*
X112761Y206037D02*
Y267860D01*
X129430Y212090D02*
Y251542D01*
X113112Y267860D02*
X129430Y251542D01*
X123211Y283217D02*
X144787Y261641D01*
X136761Y182037D02*
Y201031D01*
X144761Y174037D02*
Y193031D01*
X132073Y205719D02*
X147299Y190493D01*
X152761Y166037D02*
Y187896D01*
X153670Y187850D02*
X160235D01*
X147430Y215818D02*
X157398Y205850D01*
X147430Y215818D02*
Y255270D01*
X152757Y210491D02*
X164671D01*
X157398Y205850D02*
X160235D01*
X160761Y206329D02*
Y212771D01*
X152761Y210487D02*
Y469790D01*
X176761Y206577D02*
Y212523D01*
X179611Y203310D02*
X205529D01*
X232761Y164750D02*
Y222866D01*
X227909Y194491D02*
X236911D01*
X225013Y202491D02*
X239807D01*
X192761Y203310D02*
Y352623D01*
X200761Y203310D02*
Y256020D01*
X184761Y203310D02*
Y344742D01*
X208761Y205764D02*
Y246866D01*
X224761Y202792D02*
Y230866D01*
X216761Y207178D02*
Y238866D01*
X202420Y253208D02*
X237968Y217660D01*
X147430Y218491D02*
X156989D01*
X147430Y226491D02*
X157151D01*
X147430Y234491D02*
X166377D01*
X160761Y231729D02*
Y238171D01*
X176761Y231977D02*
Y237923D01*
X144761Y261667D02*
Y319188D01*
X146834Y258491D02*
X162687D01*
X147430Y250491D02*
X156737D01*
X147430Y242491D02*
X157524D01*
X160761Y257129D02*
Y263571D01*
X176761Y257377D02*
Y263323D01*
X171443Y234491D02*
X221137D01*
X180669Y226491D02*
X229137D01*
X175133Y258491D02*
X200510D01*
X180296Y242491D02*
X213137D01*
X181083Y250491D02*
X205137D01*
X180831Y218491D02*
X237137D01*
X200510Y257810D02*
Y338573D01*
X213510Y260502D02*
Y338573D01*
X224761Y249251D02*
Y339363D01*
X232761Y241251D02*
Y260966D01*
X216761Y257251D02*
Y341429D01*
X215522Y258491D02*
X235237D01*
X240761Y55770D02*
Y57000D01*
X154690Y55770D02*
X261370D01*
X248761D02*
Y57000D01*
X159860D02*
X289408D01*
X272761Y44378D02*
Y57000D01*
X280761Y36378D02*
Y57000D01*
X256761Y55770D02*
Y57000D01*
X264761Y52379D02*
Y57000D01*
X256761Y70000D02*
Y119933D01*
X264761Y70000D02*
Y113360D01*
X240761Y70000D02*
Y112741D01*
X248761Y70000D02*
Y112505D01*
X272761Y70000D02*
Y112164D01*
X288761Y28378D02*
Y57000D01*
X280761Y70000D02*
Y117308D01*
X288761Y70000D02*
Y146398D01*
X261370Y55770D02*
X308870Y8270D01*
X282649Y34490D02*
X311917D01*
X266649Y50490D02*
X295917D01*
X274650Y42490D02*
X303917D01*
X304761Y12378D02*
Y41646D01*
X298650Y18490D02*
X317700D01*
X296761Y20378D02*
Y49646D01*
X290650Y26490D02*
X317700D01*
X289408Y57000D02*
X317700Y28708D01*
X162552Y70000D02*
X292100D01*
X158062Y74490D02*
X356720D01*
X296702Y68090D02*
X326892Y37900D01*
X298302Y66490D02*
X356720D01*
X296761Y68031D02*
Y152750D01*
X252651Y114490D02*
X262969D01*
X248761Y136415D02*
Y142053D01*
X256059Y130491D02*
X259561D01*
X253198Y146490D02*
X277448D01*
X280761Y131613D02*
Y145466D01*
X189956Y170490D02*
X242722D01*
X243573Y136865D02*
X269727Y163019D01*
X248761Y176530D02*
Y181361D01*
X140307Y178491D02*
X250722D01*
X256761Y128987D02*
Y150054D01*
X264761Y135560D02*
Y158054D01*
X261198Y154490D02*
X270044D01*
X272761Y136756D02*
Y149932D01*
X142062Y90490D02*
X356720D01*
X150062Y82490D02*
X356720D01*
X126062Y106490D02*
X356720D01*
X134062Y98490D02*
X356720D01*
X282854Y122491D02*
X356720D01*
X278050Y114490D02*
X356720D01*
X281459Y130491D02*
X356720D01*
X245198Y138490D02*
X356720D01*
X288972Y146490D02*
X360703D01*
X292094Y170070D02*
X316230D01*
X295610Y152750D02*
X320886D01*
X295610Y165750D02*
X323350D01*
X296761D02*
Y170070D01*
X304761Y165750D02*
Y170070D01*
X320761Y8270D02*
Y12900D01*
X328761Y8270D02*
Y12900D01*
X317700D02*
Y28708D01*
Y12900D02*
X342700D01*
X336762Y8270D02*
Y12900D01*
X344762Y8270D02*
Y19173D01*
X342700Y18490D02*
X345183D01*
X352761Y8270D02*
Y13226D01*
X312761Y8270D02*
Y33646D01*
X326892Y37900D02*
X342700D01*
X320761Y44031D02*
Y152750D01*
X328761Y37900D02*
Y151750D01*
X342700Y12900D02*
Y37900D01*
X344762Y31627D02*
Y151750D01*
X336762Y37900D02*
Y151750D01*
X342700Y34490D02*
X347020D01*
X360761Y8270D02*
Y14015D01*
X308870Y8270D02*
X541530D01*
X306649Y10490D02*
X543750D01*
X368761Y8270D02*
Y22857D01*
X364180Y34490D02*
X369500D01*
X366017Y18490D02*
X370583D01*
X352761Y37573D02*
Y151750D01*
X360761Y36785D02*
Y54226D01*
X322302Y42490D02*
X369500D01*
X358630Y56358D02*
X369696Y45292D01*
X368761Y27943D02*
Y46226D01*
X369500Y30299D02*
Y43180D01*
X312761Y52031D02*
Y152750D01*
X306302Y58490D02*
X357207D01*
X304761Y60031D02*
Y152750D01*
X356720Y60960D02*
Y138430D01*
X324350Y151750D02*
X355900D01*
X312761Y165750D02*
Y170070D01*
X320761Y165750D02*
Y171294D01*
X328761Y164750D02*
Y178874D01*
X326814Y164750D02*
X355900D01*
X314302Y50490D02*
X364497D01*
X369720Y66490D02*
X509967D01*
X369720Y82490D02*
X499300D01*
X369720Y90490D02*
X502500D01*
X369720Y106490D02*
X502500D01*
X369720Y98490D02*
X502500D01*
X318949Y170490D02*
X361505D01*
X328378Y178491D02*
X477100D01*
X369720Y111960D02*
X393500D01*
X360761Y145164D02*
Y146453D01*
X358630Y143032D02*
X361571Y145973D01*
X236982Y164750D02*
X254309Y182077D01*
X262143Y189911D02*
X272962Y200731D01*
X262909Y194491D02*
X266722D01*
X240761Y203546D02*
Y216007D01*
X264761Y192530D02*
Y215750D01*
X272761Y200529D02*
Y215750D01*
X248761Y207259D02*
Y215750D01*
X256761Y205358D02*
Y215750D01*
X260013Y202491D02*
X283410D01*
X173149Y210491D02*
X291671D01*
X276860Y202350D02*
X283410D01*
Y209350D01*
X300632D01*
X300149Y210491D02*
X301772D01*
X280761Y202350D02*
Y215750D01*
X242570D02*
X285233D01*
X288761Y209350D02*
Y211996D01*
X300632Y209350D02*
X304019Y212737D01*
X305423Y214141D02*
X310730Y219448D01*
X248761Y228750D02*
Y244966D01*
X223522Y250491D02*
X243237D01*
X231522Y242491D02*
X251316D01*
X264761Y228750D02*
Y241150D01*
X272761Y228750D02*
Y241150D01*
X256761Y228750D02*
Y241150D01*
X240761Y233251D02*
Y252966D01*
X213510Y260502D02*
X245262Y228750D01*
X227820Y265908D02*
X250668Y243060D01*
X238910Y273202D02*
X257962Y254150D01*
X264761D02*
Y266846D01*
X272761Y254150D02*
Y266550D01*
X248761Y263351D02*
Y340626D01*
X256761Y255351D02*
Y273796D01*
X280761Y228750D02*
Y241150D01*
X245262Y228750D02*
X285233D01*
X255270Y241150D02*
X285233D01*
X239522Y234491D02*
X293377D01*
X288761Y232504D02*
Y237396D01*
X304761Y231076D02*
Y238824D01*
X298443Y234491D02*
X310730D01*
X280761Y254150D02*
Y266550D01*
X257962Y254150D02*
X285233D01*
X253622Y258491D02*
X289687D01*
X288761Y257904D02*
Y262796D01*
X304761Y256476D02*
Y264224D01*
X302133Y258491D02*
X310730D01*
X308410Y188070D02*
Y201572D01*
Y188070D02*
X312502D01*
X308410Y194491D02*
X318923D01*
X309329Y202491D02*
X326923D01*
X336762Y164750D02*
Y186874D01*
X344762Y164750D02*
Y187850D01*
X312502Y188070D02*
X327639Y203207D01*
X322601Y172713D02*
X337738Y187850D01*
X312761Y188329D02*
Y205923D01*
X320761Y196329D02*
Y214053D01*
X308410Y201572D02*
X320111Y213272D01*
X328761Y204161D02*
Y331050D01*
X336762Y205850D02*
Y331050D01*
X344762Y205850D02*
Y216023D01*
X352761Y164750D02*
Y184676D01*
X337738Y187850D02*
X346925D01*
X336378Y186491D02*
X348605D01*
X360761Y170047D02*
Y185310D01*
X368761Y172242D02*
Y185310D01*
X366301Y203310D02*
X392219D01*
X360404Y185310D02*
X392219D01*
X334010Y205850D02*
X346925D01*
X317329Y210491D02*
X351361D01*
X360761Y208235D02*
Y210865D01*
X368761Y203310D02*
Y343769D01*
X352761Y209023D02*
Y210077D01*
X359839Y210491D02*
X478361D01*
X307831Y218491D02*
X309772D01*
X307669Y226491D02*
X310730D01*
X321730Y218491D02*
X343679D01*
X321730Y226491D02*
X343841D01*
X344762Y228477D02*
Y241423D01*
X352761Y234424D02*
Y235476D01*
X307295Y242491D02*
X310730D01*
Y219448D02*
Y317109D01*
X308083Y250491D02*
X310730D01*
X321730Y242491D02*
X344214D01*
X321730Y217170D02*
Y317109D01*
Y250491D02*
X343427D01*
X344762Y253877D02*
Y266823D01*
X321730Y258491D02*
X349377D01*
X321730Y234491D02*
X353067D01*
X367521Y218491D02*
X426367D01*
X358133Y234491D02*
X410367D01*
X367359Y226491D02*
X418367D01*
X360761Y233635D02*
Y236265D01*
X352761Y259823D02*
Y260877D01*
X367773Y250491D02*
X394367D01*
X366986Y242491D02*
X402367D01*
X360761Y259035D02*
Y261665D01*
X361823Y258491D02*
X387472D01*
X8270Y266491D02*
X55843D01*
X52757Y263405D02*
X72569Y283217D01*
X8270Y274491D02*
X63843D01*
X8270Y282491D02*
X71843D01*
X56761Y267409D02*
Y290800D01*
X96761Y263635D02*
Y267860D01*
X64761Y275409D02*
Y290800D01*
X72761Y283404D02*
Y290800D01*
X33020D02*
X76200D01*
X96761Y285860D02*
Y290800D01*
X104761Y285860D02*
Y290800D01*
X80761Y285860D02*
Y290800D01*
X88761Y285860D02*
Y290800D01*
X82668Y267860D02*
X113112D01*
X81299Y266491D02*
X114481D01*
X78940Y285860D02*
X116840D01*
X131937Y274491D02*
X156493D01*
X139937Y266491D02*
X158269D01*
X123937Y282491D02*
X160717D01*
X112761Y285860D02*
Y290836D01*
X8270Y290491D02*
X159272D01*
X76200Y290800D02*
X111760D01*
X128761Y277667D02*
Y302002D01*
X136761Y269667D02*
Y310002D01*
X120761Y284961D02*
Y294077D01*
X8270Y306491D02*
X19123D01*
X8270Y298491D02*
X20522D01*
X8270Y314491D02*
X22916D01*
X8270Y330491D02*
X117652D01*
X33020Y318800D02*
X76200D01*
X105961D01*
X8270Y322491D02*
X109652D01*
X8270Y338491D02*
X118080D01*
X64761Y318800D02*
Y357266D01*
X72761Y318800D02*
Y349824D01*
X8270Y354491D02*
X67027D01*
X8270Y346491D02*
X81119D01*
X96761Y318800D02*
Y347761D01*
X104761Y318800D02*
Y352652D01*
X80761Y318800D02*
Y346571D01*
X88761Y318800D02*
Y345948D01*
X121659Y294900D02*
X141980Y315221D01*
X125250Y298491D02*
X156410D01*
X133250Y306491D02*
X159339D01*
X141250Y314491D02*
X160624D01*
X145831Y322491D02*
X156484D01*
X92561Y346491D02*
X118080D01*
X105961Y318800D02*
X118080Y330919D01*
X111828Y362491D02*
X118080D01*
X106653Y354491D02*
X118080D01*
X146080Y330491D02*
X158320D01*
X146080Y338491D02*
X162547D01*
X146080Y346491D02*
X156718D01*
X146080Y354491D02*
X157562D01*
X160761Y282529D02*
Y288971D01*
X177103Y282491D02*
X200510D01*
X176761Y282777D02*
Y288723D01*
X178548Y290491D02*
X200510D01*
X181327Y274491D02*
X200510D01*
X179551Y266491D02*
X200510D01*
X213510Y282491D02*
X225910D01*
X213510Y274491D02*
X225910D01*
X160761Y307929D02*
Y314371D01*
X176761Y308177D02*
Y314123D01*
X177196Y314491D02*
X200510D01*
X213510Y298491D02*
X225910D01*
Y270510D02*
Y338573D01*
X178481Y306491D02*
X200510D01*
X181410Y298491D02*
X200510D01*
X213510Y290491D02*
X225910D01*
X213510Y266491D02*
X227302D01*
X238910Y274491D02*
X256067D01*
X238910Y282491D02*
X251310D01*
X238910Y298491D02*
X251310D01*
X238910Y290491D02*
X251310D01*
X213510Y306491D02*
X225910D01*
X238910D02*
X251310D01*
X238910Y273202D02*
Y338573D01*
X240761Y271351D02*
Y339949D01*
X238910Y314491D02*
X251310D01*
Y281940D02*
Y338573D01*
X160761Y333329D02*
Y339771D01*
X179500Y330491D02*
X200510D01*
X176761Y333577D02*
Y339523D01*
X175273Y338491D02*
X200510D01*
X180135Y343750D02*
X181610D01*
X181336Y322491D02*
X200510D01*
X160761Y358729D02*
Y362150D01*
X176761Y358977D02*
Y362150D01*
X156410D02*
X181410D01*
X185508Y345369D02*
X197497Y357359D01*
X186629Y346491D02*
X194818D01*
X194629Y354491D02*
X195662D01*
X213510Y322491D02*
X225910D01*
X213510Y314491D02*
X225910D01*
X213510Y338491D02*
X225910D01*
X213510Y330491D02*
X225910D01*
X238910D02*
X251310D01*
X238910Y322491D02*
X251310D01*
X219202Y346491D02*
X220218D01*
X238910Y338491D02*
X251310D01*
X218358Y354491D02*
X221062D01*
X244602Y346491D02*
X245618D01*
X243758Y354491D02*
X246462D01*
X248761Y357874D02*
Y362150D01*
X8270Y370491D02*
X59855D01*
X8270Y378491D02*
X60306D01*
X8270Y394491D02*
X48619D01*
X8270Y386491D02*
X63348D01*
X48761Y318800D02*
Y394460D01*
X56761Y318800D02*
Y393988D01*
X8270Y362491D02*
X61852D01*
X60061Y394491D02*
X70357D01*
X24761Y316104D02*
Y444001D01*
X32761Y318798D02*
Y404586D01*
X8270Y402491D02*
X34527D01*
X40761Y318800D02*
Y397527D01*
X64761Y388694D02*
Y395964D01*
X72761Y396136D02*
Y401104D01*
X80761Y399389D02*
Y414953D01*
X110332Y386491D02*
X118080D01*
X112761Y325600D02*
Y365074D01*
X118080Y330919D02*
Y390105D01*
X113374Y378491D02*
X118080D01*
X113826Y370491D02*
X118080D01*
X112761Y380886D02*
Y390350D01*
X88761Y400012D02*
Y408081D01*
X8270Y418491D02*
X27355D01*
X8270Y410491D02*
X29352D01*
X8270Y426491D02*
X27806D01*
X15251Y434491D02*
X30848D01*
X23251Y442491D02*
X37857D01*
X32761Y437374D02*
Y452001D01*
X8270Y427510D02*
X50550Y469790D01*
X40761Y444433D02*
Y460001D01*
X48761Y447500D02*
Y468001D01*
X72761Y440856D02*
Y469790D01*
X80761Y427007D02*
Y469790D01*
X56761Y447972D02*
Y469790D01*
X64761Y445996D02*
Y469790D01*
X77832Y434491D02*
X89050D01*
X74153Y402491D02*
X92082D01*
X70823Y442491D02*
X94657D01*
X31251Y450491D02*
X107679D01*
X81325Y418491D02*
X86040D01*
X79328Y410491D02*
X87775D01*
X80874Y426491D02*
X86435D01*
X88761Y433879D02*
Y469790D01*
X96761Y444467D02*
Y469790D01*
X104761Y449421D02*
Y469790D01*
X112761Y451610D02*
Y469790D01*
X50550D02*
X213110D01*
X136761Y444601D02*
Y469790D01*
X144761Y434217D02*
Y469790D01*
X120761Y451630D02*
Y469790D01*
X128761Y449488D02*
Y469790D01*
X146080Y370491D02*
X156410D01*
X146080Y362491D02*
X156410D01*
X181410D02*
X187073D01*
X179860Y355278D02*
X195184Y370602D01*
X181410Y370491D02*
X195073D01*
X146080Y325120D02*
Y405740D01*
X156410Y362150D02*
Y387150D01*
X146080Y378491D02*
X156410D01*
X181410Y362150D02*
Y387150D01*
X184761Y360179D02*
Y469790D01*
X192761Y368180D02*
Y469790D01*
X181410Y378491D02*
X195115D01*
X198901Y358763D02*
X202962Y362824D01*
X202629Y362491D02*
X204111D01*
X209909D02*
X229511D01*
X216761Y357071D02*
Y366829D01*
X240761Y358551D02*
Y365349D01*
X224761Y359137D02*
Y364763D01*
X235309Y362491D02*
X245310D01*
X218235Y369150D02*
X221185D01*
X243635D02*
X245310D01*
Y362150D02*
Y369150D01*
Y380150D02*
Y387150D01*
X243635Y380150D02*
X245310D01*
X146080Y386491D02*
X156410D01*
X181410D02*
X203004D01*
X218235Y380150D02*
X221185D01*
X168761Y387150D02*
Y469790D01*
X156410Y387150D02*
X181410D01*
X200761Y385476D02*
Y469790D01*
X208761Y387027D02*
Y469790D01*
X160761Y387150D02*
Y469790D01*
X176761Y387150D02*
Y469790D01*
X216761Y382471D02*
Y473442D01*
X224761Y384537D02*
Y481441D01*
X225810Y482490D02*
Y518050D01*
X213110Y469790D02*
X225810Y482490D01*
X211016Y386491D02*
X228404D01*
X236416D02*
X245310D01*
X232761Y387145D02*
Y495500D01*
X226260D02*
X251260D01*
X240761Y383951D02*
Y495500D01*
X248761Y387150D02*
Y495500D01*
X251260Y514491D02*
X253477D01*
X251260Y498491D02*
X256047D01*
X226260Y495500D02*
Y518500D01*
X228260Y520500D01*
X232890Y525130D01*
X228260Y520500D02*
X251260D01*
X248761D02*
Y525130D01*
X251260Y495500D02*
Y520500D01*
X232761D02*
Y525001D01*
X240761Y520500D02*
Y525130D01*
X245622Y266491D02*
X285269D01*
X253220Y277338D02*
X262098Y268460D01*
X264310Y284632D02*
X269392Y279550D01*
X266700Y266550D02*
X285233D01*
X269392Y279550D02*
X285233D01*
X266452Y282491D02*
X287717D01*
X264310Y298491D02*
X283410D01*
X264310Y290491D02*
X286272D01*
X264310Y306491D02*
X286339D01*
X264310Y314491D02*
X287624D01*
X272761Y279550D02*
Y342975D01*
X280761Y279550D02*
Y333760D01*
X264310Y284632D02*
Y338573D01*
X264761Y284181D02*
Y338861D01*
X304103Y282491D02*
X310730D01*
X288761Y283304D02*
Y288196D01*
X304761Y281876D02*
Y289624D01*
X306551Y266491D02*
X310730D01*
X305481Y306491D02*
X310730D01*
X305548Y290491D02*
X310730D01*
X288761Y308704D02*
Y313596D01*
X290410Y309675D02*
Y312625D01*
X301410Y309675D02*
Y312625D01*
X304761Y307276D02*
Y315024D01*
X304196Y314491D02*
X310730D01*
X264310Y338491D02*
X276031D01*
X264310Y322491D02*
X283484D01*
X269158Y354491D02*
X272630D01*
X274249Y340272D02*
X281852Y332669D01*
X270002Y346491D02*
X272630D01*
X264761Y359639D02*
Y362150D01*
X245310D02*
X270310D01*
Y362491D02*
X272630D01*
X270310Y362150D02*
Y367072D01*
X272630Y344170D02*
Y364752D01*
X270310Y367072D02*
X272630Y364752D01*
X264310Y330491D02*
X285320D01*
X283630Y354491D02*
X284562D01*
X283630Y362491D02*
X293011D01*
X298809D02*
X301373D01*
X283630Y351585D02*
Y367030D01*
X288761Y359504D02*
Y364396D01*
X282405Y370491D02*
X284122D01*
X299958Y361076D02*
X304019Y365137D01*
X307698Y370491D02*
X309373D01*
X305423Y366541D02*
X309460Y370578D01*
X308327Y274491D02*
X310730D01*
X321730Y266491D02*
X344959D01*
X308410Y298491D02*
X310730D01*
X321730Y274491D02*
X343183D01*
X344762Y279277D02*
Y292223D01*
X321730Y282491D02*
X347407D01*
X321730Y298491D02*
X343100D01*
X321730Y290491D02*
X345962D01*
X321730Y306491D02*
X346029D01*
X321730Y314491D02*
X347314D01*
X324823Y322491D02*
X343174D01*
X344762Y304677D02*
Y317623D01*
Y330077D02*
Y331375D01*
X321851Y330491D02*
X345010D01*
X360761Y284435D02*
Y287065D01*
X363793Y282491D02*
X387200D01*
X352761Y285224D02*
Y286276D01*
X365171Y306491D02*
X387200D01*
X368017Y274491D02*
X387200D01*
X366241Y266491D02*
X387200D01*
X368100Y298491D02*
X387200D01*
X365238Y290491D02*
X387200D01*
X352761Y310623D02*
Y311677D01*
X360761Y309835D02*
Y312465D01*
X363886Y314491D02*
X387200D01*
X366190Y330491D02*
X387200D01*
X368026Y322491D02*
X387200D01*
X321114Y331050D02*
X342900D01*
X321114Y342050D02*
X340622D01*
X324481Y346491D02*
X343408D01*
X340622Y342050D02*
X343774Y345202D01*
X328761Y342050D02*
Y354003D01*
X324886Y350127D02*
X329001Y354242D01*
X329235Y354491D02*
X344252D01*
X344762Y355477D02*
Y362150D01*
X330620Y370491D02*
X343100D01*
X330620Y362491D02*
X343100D01*
X347491Y333363D02*
X351552Y337424D01*
X360761Y335235D02*
Y337865D01*
X352761Y336023D02*
Y337076D01*
X366825Y343750D02*
X368300D01*
X361963Y338491D02*
X387200D01*
X343100Y362150D02*
X368100D01*
X360761Y360635D02*
Y362150D01*
X366550Y355278D02*
X381874Y370602D01*
X368100Y362491D02*
X373763D01*
X368100Y370491D02*
X381763D01*
X270310Y380150D02*
Y387150D01*
Y386491D02*
X284060D01*
X245310Y387150D02*
X270310D01*
X145905Y410491D02*
X284060D01*
X274408Y378531D02*
X282011Y370928D01*
X274447Y378491D02*
X284015D01*
X256761Y387150D02*
Y497925D01*
X147640Y418491D02*
X284060D01*
X139023Y442491D02*
X284060D01*
X147245Y426491D02*
X284060D01*
X272761Y379668D02*
Y498930D01*
X280761Y372177D02*
Y499121D01*
X264761Y387150D02*
Y495514D01*
X284060Y381000D02*
Y496775D01*
X146080Y402491D02*
X284060D01*
X146080Y394491D02*
X284060D01*
X295060D02*
X309460D01*
X299916Y386491D02*
X309460D01*
X295060Y410491D02*
X309460D01*
X295060Y402491D02*
X309460D01*
X144630Y434491D02*
X284060D01*
X295060Y418491D02*
X309460D01*
X295060Y387121D02*
Y496775D01*
X296761Y387121D02*
Y497783D01*
X295060Y434491D02*
X309460D01*
X295060Y426491D02*
X309460D01*
X39251Y458491D02*
X284060D01*
X126001Y450491D02*
X284060D01*
X225810Y482491D02*
X284060D01*
X217811Y474491D02*
X284060D01*
X272273Y498491D02*
X281447D01*
X225810Y490491D02*
X284060D01*
X256761Y518075D02*
Y525130D01*
X274843Y514491D02*
X278877D01*
X280761Y516879D02*
Y525130D01*
X264761Y520485D02*
Y525130D01*
X272761Y517070D02*
Y525130D01*
X295060Y450491D02*
X309460D01*
X295060Y442491D02*
X309460D01*
X47251Y466491D02*
X284060D01*
X295060Y458491D02*
X309460D01*
X295060Y474491D02*
X309460D01*
X295060Y466491D02*
X309460D01*
X295060Y490491D02*
X309460D01*
X295060Y482491D02*
X309460D01*
X288761Y520475D02*
Y525130D01*
X232890D02*
X635000D01*
X230251Y522491D02*
X644135D01*
X297673Y498491D02*
X306847D01*
X296761Y518217D02*
Y525130D01*
X300243Y514491D02*
X304277D01*
X307805Y378491D02*
X309460D01*
X330620D02*
X343100D01*
X330620Y386491D02*
X343100D01*
X330620Y358140D02*
Y439682D01*
X336762Y342050D02*
Y445823D01*
X343100Y362150D02*
Y387150D01*
X304761Y383476D02*
Y500772D01*
X309460Y370578D02*
Y496775D01*
X320460Y450491D02*
X325873D01*
X344762Y387150D02*
Y453823D01*
X352761Y387150D02*
Y461823D01*
X320460Y444881D02*
Y496775D01*
X320761Y445315D02*
Y496928D01*
X343100Y387150D02*
X368100D01*
X330620Y394491D02*
X454981D01*
X330620Y410491D02*
X438981D01*
X330620Y402491D02*
X446981D01*
X368100Y362150D02*
Y387150D01*
Y378491D02*
X381805D01*
X368100Y386491D02*
X389694D01*
X330620Y434491D02*
X414981D01*
X330620Y426491D02*
X422981D01*
X321239Y445858D02*
X373869Y498487D01*
X330620Y439682D02*
X387112Y496174D01*
X360761Y387150D02*
Y469823D01*
X368761Y357490D02*
Y477823D01*
X333429Y442491D02*
X411060D01*
X330620Y418491D02*
X430981D01*
X320460Y458491D02*
X333873D01*
X320460Y466491D02*
X341873D01*
X320460Y474491D02*
X349873D01*
X328761Y453380D02*
Y503339D01*
X336762Y461380D02*
Y496029D01*
X323073Y498491D02*
X332247D01*
X344762Y469380D02*
Y496301D01*
X304761Y515228D02*
Y525130D01*
X312761Y520305D02*
Y525130D01*
X320761Y519072D02*
Y525130D01*
X328761Y512661D02*
Y525130D01*
X325643Y514491D02*
X329677D01*
X336762Y519971D02*
Y525130D01*
X344762Y519699D02*
Y525130D01*
X349429Y458491D02*
X411060D01*
X341429Y450491D02*
X411060D01*
X320460Y482491D02*
X357873D01*
X320460Y490491D02*
X365873D01*
X365429Y474491D02*
X411060D01*
X357429Y466491D02*
X411060D01*
X360761Y485380D02*
Y496543D01*
X368761Y493380D02*
Y495866D01*
X348473Y498491D02*
X357647D01*
X352761Y509566D02*
Y525130D01*
X351043Y514491D02*
X355077D01*
X352761Y477380D02*
Y506434D01*
X360761Y519457D02*
Y525130D01*
X368761Y520134D02*
Y525130D01*
X376762Y8270D02*
Y13641D01*
X384762Y8270D02*
Y13479D01*
X391417Y18490D02*
X395983D01*
X392761Y29633D02*
Y38678D01*
Y8270D02*
Y21167D01*
X392500Y30299D02*
Y38417D01*
X397193Y43110D01*
X376762Y56611D02*
Y111960D01*
X369720Y63652D02*
X377464Y55908D01*
X369720Y63652D02*
Y111960D01*
X374882Y58490D02*
X380047D01*
X377464Y55908D02*
X384291Y62734D01*
X384762Y63180D02*
Y111960D01*
X400762Y8270D02*
Y14244D01*
X408762Y8270D02*
Y13125D01*
X416762Y8270D02*
Y18408D01*
X416817Y18490D02*
X421383D01*
X392500Y34490D02*
X397820D01*
X400762Y36556D02*
Y43110D01*
X416762Y32392D02*
Y43110D01*
X408762Y37675D02*
Y43110D01*
X414980Y34490D02*
X423220D01*
X370942Y136960D02*
X372890Y138908D01*
X392761Y66110D02*
Y111960D01*
X370942Y136960D02*
X393500D01*
Y111960D02*
Y136960D01*
X400762Y66110D02*
Y113304D01*
X393500Y130491D02*
X395451D01*
X393500Y114490D02*
X398859D01*
X376762Y136960D02*
Y147096D01*
X374800Y143510D02*
Y145850D01*
X392761Y136960D02*
Y184777D01*
X400762Y135616D02*
Y181337D01*
X376762Y169404D02*
Y185310D01*
X384762Y136960D02*
Y185310D01*
X408762Y66110D02*
Y112185D01*
X381786Y154490D02*
X456414D01*
X375897Y146490D02*
X462303D01*
X416762Y66110D02*
Y117468D01*
X417349Y130491D02*
X420851D01*
X413941Y114490D02*
X424259D01*
X381642Y162491D02*
X456558D01*
X375095Y170490D02*
X463105D01*
X408762Y136735D02*
Y183461D01*
X411985Y186491D02*
X426215D01*
X414599Y194491D02*
X423601D01*
X411703Y202491D02*
X426497D01*
X424762Y8270D02*
Y15070D01*
X432762Y8270D02*
Y12937D01*
X440762Y8270D02*
Y16686D01*
X448762Y8270D02*
Y16178D01*
X442217Y18490D02*
X446783D01*
X456762Y8270D02*
Y12908D01*
X424762Y35730D02*
Y43110D01*
Y66110D02*
Y114130D01*
X432762Y37863D02*
Y43110D01*
X440762Y34114D02*
Y43110D01*
X440380Y34490D02*
X448620D01*
X448762Y66110D02*
Y115238D01*
Y34622D02*
Y43110D01*
X464762Y8270D02*
Y15446D01*
X465780Y34490D02*
X495500D01*
X467617Y18490D02*
X495500D01*
X472762Y8270D02*
Y43110D01*
X496762Y8270D02*
Y12900D01*
X469652Y26490D02*
X495500D01*
Y12900D02*
Y37900D01*
X456762Y37892D02*
Y43110D01*
X464762Y35354D02*
Y43110D01*
Y66110D02*
Y114507D01*
X472762Y66110D02*
Y144546D01*
X480762Y8270D02*
Y43110D01*
X488762Y8270D02*
Y43110D01*
X480762Y66110D02*
Y149417D01*
X488762Y66110D02*
Y184350D01*
X432762Y66110D02*
Y111997D01*
X440762Y66110D02*
Y115746D01*
X432762Y136923D02*
Y181890D01*
X439341Y114490D02*
X449660D01*
X442749Y130491D02*
X446251D01*
X456762Y66110D02*
Y111968D01*
Y136952D02*
Y153414D01*
X464762Y134413D02*
Y145227D01*
X424762Y134790D02*
Y188939D01*
X440762Y133174D02*
Y181994D01*
X448762Y133682D02*
Y189717D01*
X475115Y171243D02*
X477100Y173228D01*
X482893Y163465D02*
X486481Y167052D01*
X488100Y170950D02*
Y184350D01*
X446985Y186491D02*
X470100D01*
Y184350D02*
X477100D01*
X446703Y202491D02*
X470100D01*
X449599Y194491D02*
X470100D01*
X472762Y171954D02*
Y184350D01*
X477100Y173228D02*
Y184350D01*
X470100Y209350D02*
X495100D01*
X488100Y184350D02*
X495100D01*
X392761Y203843D02*
Y252096D01*
X408762Y205159D02*
Y236096D01*
X400762Y207283D02*
Y244096D01*
X412752Y250491D02*
X427387D01*
X416762Y131452D02*
Y228096D01*
X424762Y199681D02*
Y220096D01*
X376762Y203310D02*
Y349933D01*
X384762Y203310D02*
Y340512D01*
X424762Y238481D02*
Y253116D01*
X389110Y255748D02*
X427198Y217660D01*
X408762Y254481D02*
Y342224D01*
X416762Y246481D02*
Y261116D01*
X432762Y206730D02*
Y215750D01*
X431800D02*
X471923D01*
X420752Y242491D02*
X435466D01*
X428752Y234491D02*
X480067D01*
X440762Y206626D02*
Y215750D01*
X434492Y228750D02*
X471923D01*
X440762D02*
Y241150D01*
X439420D02*
X471923D01*
X432762Y230481D02*
Y245116D01*
X400200Y263042D02*
X434492Y228750D01*
X414510Y263368D02*
X434818Y243060D01*
X425600Y270662D02*
X442112Y254150D01*
X440762Y255501D02*
Y276486D01*
X442112Y254150D02*
X471923D01*
X400200Y274491D02*
X412600D01*
X400200Y266491D02*
X412771D01*
X400200Y298491D02*
X412600D01*
X400200Y282491D02*
X412600D01*
X404752Y258491D02*
X419387D01*
X400200Y290491D02*
X412600D01*
X387200Y260350D02*
Y338573D01*
X400200Y306491D02*
X412600D01*
X400200Y322491D02*
X412600D01*
X400200Y314491D02*
X412600D01*
X400200Y263042D02*
Y338573D01*
X400762Y262481D02*
Y338936D01*
X400200Y330491D02*
X412600D01*
Y267970D02*
Y338573D01*
X425600Y274491D02*
X442757D01*
X429772Y266491D02*
X471959D01*
X425600Y290491D02*
X438000D01*
X425600Y282491D02*
X438000D01*
X439910Y277338D02*
X448788Y268460D01*
X437772Y258491D02*
X476377D01*
X425600Y306491D02*
X438000D01*
X425600Y298491D02*
X438000D01*
X425600Y322491D02*
X438000D01*
X425600Y314491D02*
X438000D01*
X425600Y270662D02*
Y338573D01*
X432762Y263501D02*
Y344953D01*
X425600Y330491D02*
X438000D01*
Y281940D02*
Y338573D01*
X448762Y198903D02*
Y215750D01*
X456762Y163086D02*
Y215750D01*
X448762Y228750D02*
Y241150D01*
X456762Y254150D02*
Y266550D01*
X464762Y171273D02*
Y215750D01*
X470100Y184350D02*
Y209350D01*
X456762Y228750D02*
Y241150D01*
X464762Y228750D02*
Y241150D01*
X448762Y254150D02*
Y268486D01*
X451000Y284632D02*
X456082Y279550D01*
X464762Y254150D02*
Y266550D01*
X453390D02*
X471923D01*
X456762Y279550D02*
Y346820D01*
X464762Y279550D02*
Y283110D01*
X472762Y209350D02*
Y214539D01*
X488762Y209350D02*
Y211374D01*
X495100Y184350D02*
Y209350D01*
X472762Y229961D02*
Y239939D01*
X488762Y233126D02*
Y236774D01*
X456082Y279550D02*
X471923D01*
X472762Y255361D02*
Y265339D01*
X496762Y66110D02*
Y280250D01*
X488762Y258526D02*
Y262174D01*
X453142Y282491D02*
X465381D01*
X451000Y298491D02*
X458050D01*
X451000Y290491D02*
X458291D01*
X459669Y288202D02*
X466002Y281869D01*
X451000Y314491D02*
X458050D01*
X451000Y306491D02*
X458050D01*
X451000Y330491D02*
X458050D01*
X451000Y322491D02*
X458050D01*
X451000Y284632D02*
Y338573D01*
X458050Y292100D02*
Y364752D01*
X469050Y294378D02*
Y367030D01*
Y298491D02*
X470100D01*
X469050Y294378D02*
X472178Y291250D01*
X469900Y280250D02*
X472382D01*
X469050Y306491D02*
X473029D01*
X477100Y309675D02*
Y312625D01*
X488100Y309675D02*
Y312625D01*
X469050Y314491D02*
X474314D01*
X469050Y322491D02*
X470174D01*
X469050Y330491D02*
X472010D01*
X472762Y306161D02*
Y316139D01*
X496762Y291250D02*
Y355634D01*
X488762Y309326D02*
Y312974D01*
X495500Y37900D02*
X520500D01*
X495500Y12900D02*
X520500D01*
X496762Y37900D02*
Y43110D01*
X504762Y37900D02*
Y43110D01*
Y8270D02*
Y12900D01*
X512762Y8270D02*
Y12900D01*
Y37900D02*
Y43110D01*
X520500Y12900D02*
Y37900D01*
X392430Y66110D02*
X509587D01*
X397193Y43110D02*
X514350D01*
X369720Y74490D02*
X504724D01*
X504762Y66110D02*
Y74475D01*
X512762Y69285D02*
Y75269D01*
X511276Y74490D02*
X517967D01*
X520500Y34490D02*
X524820D01*
X396574Y42490D02*
X552890D01*
X520762Y8270D02*
Y45063D01*
X528762Y8270D02*
Y13792D01*
X520500Y18490D02*
X522983D01*
X509587Y66110D02*
X556190Y112713D01*
X522489Y46486D02*
X575814Y99811D01*
X520762Y77285D02*
Y192944D01*
X516700Y82490D02*
X525967D01*
X528762Y37008D02*
Y52758D01*
X526494Y50490D02*
X560890D01*
X528762Y85285D02*
Y100590D01*
X534494Y58490D02*
X568890D01*
X469544Y122491D02*
X502500D01*
X464740Y114490D02*
X502500D01*
X372473Y138490D02*
X502500D01*
X468149Y130491D02*
X502500D01*
X477497Y146490D02*
X502500D01*
X513500Y106490D02*
X524823D01*
X483242Y162491D02*
X502500D01*
X483386Y154490D02*
X502500D01*
X488100Y178491D02*
X502500D01*
X488081Y170490D02*
X502500D01*
X495100Y186491D02*
X502500D01*
X495100Y194491D02*
X506752D01*
X502500Y89291D02*
Y187960D01*
X513500Y89291D02*
Y185682D01*
Y90490D02*
X533967D01*
X513500Y98490D02*
X541967D01*
X513500Y114490D02*
X527663D01*
X513500Y130491D02*
X536790D01*
X534277Y116606D02*
X536790Y119118D01*
X513500Y138490D02*
X536790D01*
X513500Y122491D02*
X536790D01*
X513500Y154490D02*
X536790D01*
X513500Y146490D02*
X536790D01*
X513500Y170490D02*
X536790D01*
X513500Y162491D02*
X536790D01*
X529790Y184350D02*
X536790D01*
X513500Y178491D02*
X536790D01*
X522309Y194491D02*
X529790D01*
X514309Y186491D02*
X529790D01*
X536762Y8270D02*
Y13361D01*
X541530Y8270D02*
X545850Y12590D01*
X536762Y37439D02*
Y60758D01*
X541980Y34490D02*
X545850D01*
X544762Y11502D02*
Y20188D01*
X545850Y12590D02*
Y24281D01*
Y26518D02*
Y35450D01*
X543817Y18490D02*
X545850D01*
X536762Y93285D02*
Y99926D01*
X541977Y106490D02*
X549967D01*
X542056Y108827D02*
X546171Y112942D01*
X544762Y30612D02*
Y68758D01*
X552762Y42362D02*
Y76758D01*
X544762Y101285D02*
Y111534D01*
X552762Y109285D02*
Y184350D01*
X560762Y50362D02*
Y84758D01*
X542494Y66490D02*
X576890D01*
X550494Y74490D02*
X584890D01*
X558494Y82490D02*
X592890D01*
X568762Y58362D02*
Y92758D01*
X576762Y66362D02*
Y100882D01*
X566494Y90490D02*
X600890D01*
X574494Y98490D02*
X608890D01*
X545850Y35450D02*
X611890Y101490D01*
X579097Y106490D02*
X611890D01*
X584762Y74362D02*
Y187528D01*
X592762Y82362D02*
Y184354D01*
X579190Y107950D02*
Y191951D01*
X600762Y90362D02*
Y186981D01*
X547790Y122491D02*
X556190D01*
X547263Y114490D02*
X556190D01*
X547790Y138490D02*
X556190D01*
X547790Y130491D02*
X556190D01*
X547790Y154490D02*
X556190D01*
X547790Y146490D02*
X556190D01*
X536762Y119090D02*
Y184350D01*
X536790Y119118D02*
Y184350D01*
X547790Y170490D02*
X556190D01*
X547790Y162491D02*
X556190D01*
X547790Y116840D02*
Y184350D01*
X556190Y112713D02*
Y191951D01*
X547790Y184350D02*
X554790D01*
Y186491D02*
X556190D01*
X579190Y154490D02*
X611890D01*
X579190Y146490D02*
X611890D01*
X579190Y170490D02*
X611890D01*
X579190Y162491D02*
X611890D01*
X579190Y122491D02*
X611890D01*
X579190Y114490D02*
X611890D01*
X579190Y138490D02*
X611890D01*
X579190Y130491D02*
X611890D01*
X547790Y178491D02*
X556190D01*
X579190D02*
X611890D01*
X579190Y186491D02*
X586095D01*
X579965Y194491D02*
X580815D01*
X600085Y186491D02*
X611890D01*
X605365Y194491D02*
X611890D01*
X495100Y202491D02*
X514752D01*
X486839Y210491D02*
X522752D01*
X494521Y218491D02*
X530369D01*
X494359Y226491D02*
X530531D01*
X528762Y115310D02*
Y200944D01*
X529790Y184350D02*
Y201972D01*
X513500Y185682D02*
X529790Y201972D01*
X504119Y191858D02*
X530464Y218202D01*
X494773Y250491D02*
X531671D01*
X501912Y280250D02*
X534293Y247869D01*
X493241Y266491D02*
X515671D01*
X488823Y258491D02*
X523671D01*
X504762Y192500D02*
Y277400D01*
X512762Y200500D02*
Y269400D01*
X520762Y208500D02*
Y261400D01*
X528762Y216500D02*
Y253400D01*
X536762Y233461D02*
Y241865D01*
X485133Y234491D02*
X539757D01*
X536633Y241993D02*
X543993Y234634D01*
X537168Y209350D02*
X538242Y210424D01*
X537168Y209350D02*
X554790D01*
X546529Y210491D02*
X556190D01*
X493985Y242491D02*
X536176D01*
X531227Y266491D02*
X535790D01*
X508088Y289631D02*
X535790Y261928D01*
X548790Y252464D02*
Y283963D01*
Y252464D02*
X566555Y234698D01*
X535790Y261928D02*
Y283963D01*
X548790Y258491D02*
X611890D01*
X492818Y280250D02*
X501912D01*
X495017Y274491D02*
X507671D01*
X492818Y291250D02*
X504190D01*
X495100Y298491D02*
X530398D01*
X515228Y282491D02*
X535790D01*
X506978Y290491D02*
X530499D01*
X504762Y291220D02*
Y456400D01*
X490886Y314491D02*
X531089D01*
X495026Y322491D02*
X530033D01*
X493190Y330491D02*
X535432D01*
X520762Y276956D02*
Y407840D01*
X528762Y268956D02*
Y407250D01*
X512762Y284956D02*
Y415450D01*
X523228Y274491D02*
X535790D01*
X548790Y266491D02*
X611890D01*
X548790Y274491D02*
X611890D01*
X548790Y282491D02*
X564750D01*
X548790Y306491D02*
X563714D01*
X535790Y305317D02*
Y309363D01*
X548790Y305317D02*
Y309363D01*
X535790Y330717D02*
Y334763D01*
X492171Y306491D02*
X535790D01*
X548790Y330717D02*
Y334763D01*
X549148Y330491D02*
X560832D01*
X554790Y184350D02*
Y209350D01*
X552762D02*
Y215424D01*
X554790Y202491D02*
X556190D01*
Y201749D02*
Y217351D01*
X579190Y202491D02*
X581935D01*
X584762Y206171D02*
Y212929D01*
X554211Y218491D02*
X555769D01*
X554674Y223953D02*
X555242Y223385D01*
X579190Y201749D02*
Y217351D01*
X579611Y218491D02*
X581169D01*
X579190Y210491D02*
X588851D01*
X604245Y202491D02*
X611890D01*
X600762Y206719D02*
Y212381D01*
X597329Y210491D02*
X611890D01*
X608762Y98362D02*
Y368574D01*
X611890Y101490D02*
Y370730D01*
X605011Y218491D02*
X611890D01*
X552762Y248492D02*
Y287814D01*
X554182Y298491D02*
X555798D01*
X554081Y290491D02*
X555899D01*
X568762Y234704D02*
Y282186D01*
X576762Y230850D02*
Y286040D01*
X560762Y305044D02*
Y309636D01*
Y240492D02*
Y284236D01*
X552762Y301466D02*
Y313214D01*
X553491Y314491D02*
X556489D01*
X552762Y326866D02*
Y338614D01*
X554547Y322491D02*
X555433D01*
X576762Y303240D02*
Y311440D01*
X560762Y330444D02*
Y335036D01*
X576762Y328640D02*
Y336840D01*
X570223Y234491D02*
X590557D01*
X558763Y242491D02*
X611890D01*
X570630Y282491D02*
X611890D01*
X550763Y250491D02*
X611890D01*
X579449Y226491D02*
X581331D01*
X604849D02*
X611890D01*
X579481Y290491D02*
X611890D01*
X595623Y234491D02*
X611890D01*
X571666Y306491D02*
X611890D01*
X579582Y298491D02*
X611890D01*
X574548Y330491D02*
X611890D01*
X578891Y314491D02*
X611890D01*
X584762Y231572D02*
Y365340D01*
X600762Y232119D02*
Y365340D01*
X592762Y234746D02*
Y365340D01*
X579947Y322491D02*
X611890D01*
X372198Y345369D02*
X384187Y357359D01*
X373319Y346491D02*
X381508D01*
X381319Y354491D02*
X382352D01*
X400200Y338491D02*
X412600D01*
X405892Y346491D02*
X406908D01*
X405048Y354491D02*
X407752D01*
X385591Y358763D02*
X389652Y362824D01*
X400762Y359564D02*
Y364336D01*
X408762Y356276D02*
Y367624D01*
X424762Y360394D02*
Y363506D01*
X416762Y361529D02*
Y362371D01*
X425600Y338491D02*
X438000D01*
X431292Y346491D02*
X432308D01*
X430448Y354491D02*
X433152D01*
X451000Y338491D02*
X458050D01*
X455848Y354491D02*
X458050D01*
X456692Y346491D02*
X458050D01*
X432000Y362150D02*
Y369150D01*
Y362150D02*
X457000D01*
X432762Y353546D02*
Y362150D01*
X456762Y351679D02*
Y362150D01*
X440762Y361178D02*
Y362150D01*
X448762Y361001D02*
Y362150D01*
X389319Y362491D02*
X390801D01*
X396599D02*
X416201D01*
X404925Y369150D02*
X407875D01*
X397706Y386491D02*
X415094D01*
X430325Y369150D02*
X432000D01*
X421999Y362491D02*
X432000D01*
X404925Y380150D02*
X407875D01*
X430325D02*
X432000D01*
X416762Y386929D02*
Y432710D01*
X423106Y386491D02*
X432000D01*
X424762Y385794D02*
Y424710D01*
X432000Y380150D02*
Y387150D01*
X432762D02*
Y416710D01*
X440762Y387150D02*
Y408710D01*
X456762Y387150D02*
Y392710D01*
X457000Y365802D02*
X458050Y364752D01*
X448762Y387150D02*
Y400710D01*
X432000Y387150D02*
X457000D01*
Y362150D02*
Y365802D01*
Y362491D02*
X458050D01*
X446537Y418491D02*
X456381D01*
X430537Y434491D02*
X451700D01*
X438537Y426491D02*
X451700D01*
X456762Y408266D02*
Y418110D01*
X453319Y421552D02*
X490709Y384163D01*
X454537Y410491D02*
X464381D01*
X469050Y346491D02*
X470408D01*
X469050Y338491D02*
X476237D01*
X467825Y370491D02*
X470812D01*
X469050Y354491D02*
X471252D01*
X472762Y356961D02*
Y366939D01*
Y331561D02*
Y341539D01*
X469050Y362491D02*
X479701D01*
X485499D02*
X488063D01*
X459828Y378531D02*
X467431Y370928D01*
X459867Y378491D02*
X470705D01*
X457000Y380045D02*
Y387150D01*
Y386491D02*
X462981D01*
X464762Y373596D02*
Y384710D01*
X486606Y386491D02*
X488381D01*
X488762Y334726D02*
Y338374D01*
X486648Y361076D02*
X490709Y365137D01*
X494426Y353298D02*
X501721Y360592D01*
X502964Y362491D02*
X529790D01*
X503340Y364490D02*
Y384810D01*
X529790Y358340D02*
Y383340D01*
X503340Y378491D02*
X529790D01*
X503340Y370491D02*
X529790D01*
X472762Y392267D02*
Y402110D01*
X470537Y394491D02*
X480381D01*
X464762Y400266D02*
Y410110D01*
X462537Y402491D02*
X472381D01*
X480762Y387014D02*
Y394110D01*
X483760Y406668D02*
X501721Y388708D01*
X488762Y401666D02*
Y409148D01*
X480996Y424672D02*
X481722Y423946D01*
X471177Y434491D02*
X472801D01*
X488762Y421432D02*
Y426719D01*
X489857Y410491D02*
X517721D01*
X490690Y418491D02*
X509841D01*
X510469Y417742D02*
X519342Y408869D01*
X519850Y423918D02*
X525518Y418250D01*
X488468Y426491D02*
X508850D01*
X519850Y423918D02*
Y431300D01*
X492399Y434491D02*
X508850D01*
X519850Y426491D02*
X523299D01*
X520762Y423006D02*
Y429300D01*
X528762Y418250D02*
Y424548D01*
X376762Y365490D02*
Y485823D01*
X384762Y383388D02*
Y493823D01*
X373429Y482491D02*
X411060D01*
X448762Y416267D02*
Y495500D01*
X451700Y425450D02*
Y495500D01*
X422060Y474491D02*
X451700D01*
X400762Y384964D02*
Y499996D01*
X408762Y381676D02*
Y498231D01*
X392761Y387115D02*
Y495603D01*
X411060Y440690D02*
Y496775D01*
X432762Y432267D02*
Y525130D01*
X440762Y424267D02*
Y525130D01*
X422060Y442968D02*
Y496775D01*
X424762Y440267D02*
Y498567D01*
X412679Y436792D02*
X470774Y378698D01*
X422060Y442968D02*
X478552Y386476D01*
X422060Y450491D02*
X451700D01*
X422537Y442491D02*
X451700D01*
X469050Y436618D02*
X472932Y432736D01*
X469050Y442491D02*
X477159D01*
X469050Y450491D02*
X508850D01*
X422060Y458491D02*
X451700D01*
X469050D02*
X472976D01*
X422060Y482491D02*
X451700D01*
X422060Y466491D02*
X451700D01*
X469050Y436618D02*
Y466112D01*
X472762Y432906D02*
Y462400D01*
X469050Y466112D02*
X472976Y462186D01*
X381429Y490491D02*
X411060D01*
X375273Y499891D02*
X379334Y503952D01*
X376443Y514491D02*
X380477D01*
X401843D02*
X405877D01*
X399273Y498491D02*
X408447D01*
X376762Y513934D02*
Y525130D01*
X384762Y518738D02*
Y525130D01*
X392761Y520397D02*
Y525130D01*
X400762Y516004D02*
Y525130D01*
X424762Y517433D02*
Y525130D01*
X408762Y517769D02*
Y525130D01*
X416762Y520498D02*
Y525130D01*
X424673Y498491D02*
X444700D01*
X422060Y490491D02*
X451700D01*
X427243Y514491D02*
X444700D01*
X428969Y506491D02*
X444700D01*
Y495500D02*
Y520500D01*
Y495500D02*
X451700D01*
X469700Y502878D02*
X470774Y503952D01*
X469700Y514491D02*
X471917D01*
X444700Y520500D02*
X469700D01*
X448762D02*
Y525130D01*
X456762Y520500D02*
Y525130D01*
X469700Y502878D02*
Y520500D01*
X464762D02*
Y525130D01*
X472762Y515711D02*
Y525130D01*
X488762Y441961D02*
Y452719D01*
X480762Y443966D02*
Y450714D01*
X488041Y442491D02*
X508850D01*
X496762Y393666D02*
Y464400D01*
X508850Y421640D02*
Y452312D01*
X490229Y466491D02*
X494671D01*
X492224Y458491D02*
X502671D01*
X475400Y475318D02*
X480754Y469964D01*
X480762Y469966D02*
Y476714D01*
X476227Y474491D02*
X486671D01*
X488762Y467961D02*
Y472400D01*
X484446Y476716D02*
X508850Y452312D01*
X504762Y471956D02*
Y495927D01*
X511390Y472617D02*
Y491490D01*
X519850Y437380D02*
Y454590D01*
X518227Y458491D02*
X519543D01*
X520762Y439380D02*
Y455300D01*
X519850Y442491D02*
X523726D01*
X528762Y444132D02*
Y450548D01*
X510227Y466491D02*
X515238D01*
X492225Y484494D02*
X518231Y458488D01*
X512762Y463956D02*
Y468983D01*
X513009Y468719D02*
X519542Y462186D01*
X522390Y474895D02*
X527320Y469964D01*
X528762Y470132D02*
Y476548D01*
X475400Y475318D02*
Y479692D01*
X491473Y490500D02*
X496000D01*
X496762Y479957D02*
Y490553D01*
X493283Y514491D02*
X497317D01*
X480762Y520364D02*
Y525130D01*
X488762Y518876D02*
Y525130D01*
X493722Y501500D02*
X496174Y503952D01*
X499898Y492119D02*
X503952Y496174D01*
X496762Y513473D02*
Y525130D01*
X504762Y520073D02*
Y525130D01*
X494227Y482491D02*
X511390D01*
X502227Y474491D02*
X511390D01*
X491478Y490491D02*
X511390D01*
X522390Y474895D02*
Y479261D01*
X512762Y495124D02*
Y496442D01*
X513009Y495388D02*
X516109Y498487D01*
X512762Y519557D02*
Y525130D01*
X520762Y503140D02*
Y525130D01*
X517513Y499891D02*
X521574Y503952D01*
X518683Y514491D02*
X522717D01*
X528762Y519608D02*
Y525130D01*
X488963Y338491D02*
X531900D01*
X494792Y346491D02*
X529834D01*
X495619Y354491D02*
X533668D01*
X529790Y358340D02*
X535790D01*
Y356117D02*
Y358340D01*
X544762Y383340D02*
Y407250D01*
X548790Y356117D02*
Y358340D01*
X536762Y383340D02*
Y407250D01*
X529790Y383340D02*
X554790D01*
X552762Y352266D02*
Y358340D01*
X548790D02*
X554790D01*
X552762Y383340D02*
Y407250D01*
X554790Y358340D02*
Y383340D01*
X552680Y338491D02*
X557300D01*
X554790Y362491D02*
X558387D01*
X550912Y354491D02*
X559068D01*
X576762Y354040D02*
Y362240D01*
X576312Y354491D02*
X611890D01*
X560762Y355844D02*
Y360436D01*
X576993Y362491D02*
X611890D01*
X554790Y378491D02*
X557805D01*
X560762Y381244D02*
Y404069D01*
X503077Y386491D02*
X580744D01*
X576762Y379440D02*
Y390202D01*
X577575Y378491D02*
X583300D01*
X568762Y383294D02*
Y393052D01*
X525518Y418250D02*
X554599D01*
X523240Y407250D02*
X554599D01*
X525277Y418491D02*
X554803D01*
X535034Y426491D02*
X557601D01*
X536762Y418250D02*
Y428147D01*
X560762Y421431D02*
Y423330D01*
X519850Y450491D02*
X555840D01*
Y430530D02*
Y451889D01*
X534608Y442491D02*
X555840D01*
X538965Y434491D02*
X555840D01*
X487937Y402491D02*
X567441D01*
X495937Y394491D02*
X567741D01*
X557459Y426632D02*
X562758Y421334D01*
X568762Y404508D02*
Y408210D01*
X569810Y405521D02*
Y410763D01*
X576762Y422886D02*
Y424594D01*
X575087Y424561D02*
X579191Y420458D01*
X566840Y442491D02*
X570292D01*
X566840Y450491D02*
X583780D01*
X576762Y444086D02*
Y450594D01*
X578915Y365340D02*
X603250D01*
X578080Y338491D02*
X611890D01*
X584762Y376340D02*
Y377375D01*
X578915Y376340D02*
X587293D01*
X591267D02*
X600972D01*
X595260Y378491D02*
X603123D01*
X582879Y394491D02*
X583780D01*
Y400767D02*
Y428746D01*
Y391551D02*
Y396793D01*
X597816Y386491D02*
X611123D01*
X610679Y370491D02*
X611890D01*
X580146Y346491D02*
X611890D01*
X616762Y375602D02*
Y376574D01*
X618679Y378491D02*
X619651D01*
X624762Y383602D02*
Y384574D01*
X626679Y386491D02*
X627651D01*
X632762Y391602D02*
Y392574D01*
X634679Y394491D02*
X635651D01*
X607148Y366959D02*
X642691Y402502D01*
X611890Y370730D02*
X652130Y410970D01*
X594780Y394491D02*
X619123D01*
X600972Y376340D02*
X633310Y408678D01*
X616762Y392130D02*
Y426255D01*
X640762Y399602D02*
Y400574D01*
X624762Y400130D02*
Y424854D01*
X642679Y402491D02*
X643651D01*
X580810Y405521D02*
Y416560D01*
X580460Y418491D02*
X583780D01*
X580810Y410491D02*
X583780D01*
X594780Y402491D02*
X627123D01*
X581601Y426491D02*
X583780D01*
X594780D02*
X616432D01*
X594780Y434491D02*
X612501D01*
X581174Y442491D02*
X583780D01*
X594780D02*
X616859D01*
X616762Y442425D02*
Y452255D01*
X624762Y443826D02*
Y450854D01*
X594780Y410491D02*
X633310D01*
X628168Y426491D02*
X633310D01*
X594780Y418491D02*
X633310D01*
X644310Y410491D02*
X651651D01*
X644310Y426491D02*
X652130D01*
X644310Y418491D02*
X652130D01*
X594780Y450491D02*
X633310D01*
X627741Y442491D02*
X633310D01*
X632099Y434491D02*
X633310D01*
X644310D02*
X652130D01*
X644310Y450491D02*
X652130D01*
X644310Y442491D02*
X652130D01*
X536762Y440533D02*
Y454147D01*
X536796Y466491D02*
X541238D01*
X538791Y458491D02*
X549238D01*
X544762Y418250D02*
Y462967D01*
X552762Y418250D02*
Y454967D01*
X560762Y462523D02*
Y467533D01*
X556794Y466491D02*
X561804D01*
X531013Y476716D02*
X555840Y451889D01*
X522794Y474491D02*
X533238D01*
X536762Y466533D02*
Y470967D01*
X552762Y470523D02*
Y497055D01*
X548794Y474491D02*
X554056D01*
X564794Y458491D02*
X566109D01*
X566840Y438457D02*
Y454167D01*
X583780Y439934D02*
Y454746D01*
X568762Y441227D02*
Y453452D01*
X538791Y484494D02*
X565221Y458064D01*
X554919Y473376D02*
X566109Y462186D01*
X568762Y475090D02*
Y479453D01*
X564300Y479552D02*
X573887Y469964D01*
X576762Y470086D02*
Y476594D01*
X583780Y465934D02*
Y470515D01*
X569361Y474491D02*
X579804D01*
X577580Y476716D02*
X583780Y470515D01*
X536762Y492533D02*
Y495961D01*
X538044Y490491D02*
X553300D01*
X540794Y482491D02*
X553300D01*
Y477273D02*
Y496775D01*
X541513Y498491D02*
X550687D01*
X536762Y520039D02*
Y525130D01*
X544083Y514491D02*
X548117D01*
X544762Y513212D02*
Y525130D01*
Y478523D02*
Y502788D01*
X552762Y518945D02*
Y525130D01*
X560762Y520345D02*
Y525130D01*
X564300Y479552D02*
Y496775D01*
Y482491D02*
X566721D01*
X564300Y490491D02*
X566856D01*
X566913Y498491D02*
X576087D01*
X576762Y496086D02*
Y497954D01*
X568762Y493228D02*
Y500449D01*
Y515551D02*
Y525130D01*
X569483Y514491D02*
X573517D01*
X576762Y518046D02*
Y525130D01*
X584762Y520487D02*
Y525130D01*
X594780Y391551D02*
Y472793D01*
Y458491D02*
X612676D01*
X594511Y474491D02*
X600371D01*
X594780Y466491D02*
X608371D01*
X600762Y376340D02*
Y474100D01*
X608762Y384130D02*
Y466100D01*
X615927Y474491D02*
X626371D01*
X584798Y490063D02*
X612676Y462186D01*
X592103Y498315D02*
X620454Y469964D01*
X585358Y484494D02*
X593161Y476691D01*
X624762Y469826D02*
Y476100D01*
X616762Y473656D02*
Y478255D01*
X632762Y408130D02*
Y468100D01*
X629929Y466491D02*
X633310D01*
X631924Y458491D02*
X633310D01*
Y408678D02*
Y467552D01*
X644310Y406400D02*
Y469830D01*
Y466491D02*
X652130D01*
X644310Y458491D02*
X652130D01*
X624146Y476716D02*
X633310Y467552D01*
X631925Y484494D02*
X642691Y473728D01*
X640762Y475656D02*
Y496907D01*
X641927Y474491D02*
X652130D01*
X648762Y407602D02*
Y518200D01*
X652130Y410970D02*
Y508000D01*
X587360Y482491D02*
X592371D01*
X592762Y477090D02*
Y482100D01*
X608762Y481656D02*
Y495528D01*
X607927Y482491D02*
X613288D01*
X599927Y490491D02*
X613423D01*
X616762Y494425D02*
Y497755D01*
X592762Y497656D02*
Y498893D01*
Y517108D02*
Y525130D01*
X592313Y498491D02*
X601487D01*
X594883Y514491D02*
X598917D01*
X600762Y489656D02*
Y499160D01*
Y516839D02*
Y525130D01*
X608762Y520472D02*
Y525130D01*
X631177Y490491D02*
X652130D01*
X624762Y495826D02*
Y500829D01*
X617713Y498491D02*
X626887D01*
X632762Y483656D02*
Y495702D01*
X633927Y482491D02*
X652130D01*
X647409Y506491D02*
X652130D01*
X643113Y498491D02*
X652130D01*
X616762Y518245D02*
Y525130D01*
X620283Y514491D02*
X624317D01*
X645683D02*
X650853D01*
X624762Y515171D02*
Y525130D01*
X640762Y519093D02*
Y524132D01*
X632762Y520298D02*
Y525130D01*
D11*
X7770Y25400D02*
G03*
X25400Y7770I17630J0D01*
G01*
X11101Y115381D02*
G03*
X14990Y113770I3889J3889D01*
G01*
X11092Y115389D02*
G03*
X14990Y113770I3898J3881D01*
G01*
X164060Y25400D02*
G03*
X122890Y7770I-24360J0D01*
G01*
X156510D02*
G03*
X164060Y25400I-16810J17630D01*
G01*
X150801Y51881D02*
G03*
X154690Y50270I3889J3889D01*
G01*
X150792Y51889D02*
G03*
X154690Y50270I3898J3881D01*
G01*
X190916Y149470D02*
G03*
X194150Y154250I-9306J9780D01*
G01*
X50550Y475290D02*
G03*
X46652Y473671I0J-5500D01*
G01*
X50550Y475290D02*
G03*
X46661Y473679I0J-5500D01*
G01*
X25400Y525630D02*
G03*
X7770Y508000I0J-17630D01*
G01*
X307643Y326366D02*
G03*
X305114Y331550I-11733J-2516D01*
G01*
X283275Y346096D02*
G03*
X284323Y346129I355J5488D01*
G01*
X283275Y346096D02*
G03*
X284323Y346129I355J5488D01*
G01*
D02*
G03*
X284905Y344466I11587J3121D01*
G01*
X305114Y341550D02*
G03*
X307910Y349250I-9204J7700D01*
G01*
X135590Y525630D02*
G03*
X176760Y508000I16810J-17630D01*
G01*
D02*
G03*
X169210Y525630I-24360J0D01*
G01*
X222152Y522158D02*
G03*
X220310Y518050I3658J-4108D01*
G01*
X549730Y8692D02*
G03*
X551350Y12590I-3881J3898D01*
G01*
X549739Y8701D02*
G03*
X551350Y12590I-3889J3889D01*
G01*
Y15993D02*
G03*
X570800Y25400I7450J9407D01*
G01*
D02*
G03*
X554940Y36762I-12000J0D01*
G01*
X596200Y25400D02*
G03*
X596200Y25400I-12000J0D01*
G01*
X621600D02*
G03*
X621600Y25400I-12000J0D01*
G01*
X615770Y97592D02*
G03*
X617390Y101490I-3881J3898D01*
G01*
X615779Y97601D02*
G03*
X617390Y101490I-3889J3889D01*
G01*
X635000Y7770D02*
G03*
X652630Y25400I0J17630D01*
G01*
X647000D02*
G03*
X647000Y25400I-12000J0D01*
G01*
X673049Y45870D02*
G03*
X652630Y25456I51J-20470D01*
G01*
X673100Y45870D02*
G03*
X678030Y50800I0J4930D01*
G01*
X678030Y93010D02*
G03*
X678030Y59390I-17630J-16810D01*
G01*
X308426Y326368D02*
G03*
X307643Y326366I-374J-5487D01*
G01*
X308426Y326368D02*
G03*
X307643Y326366I-374J-5487D01*
G01*
X307910Y349250D02*
G03*
X307159Y353428I-12000J0D01*
G01*
X317290Y357381D02*
G03*
X313410Y341550I-1060J-8131D01*
G01*
Y331550D02*
G03*
X308426Y326368I2820J-7700D01*
G01*
X318496Y364765D02*
G03*
X319960Y368300I-3535J3535D01*
G01*
X318496Y364765D02*
G03*
X319960Y368300I-3535J3535D01*
G01*
X474469Y416350D02*
G03*
X474400Y415321I8131J-1060D01*
G01*
X678030Y372410D02*
G03*
X678030Y338790I-17630J-16810D01*
G01*
X652789Y403851D02*
G03*
X673100Y385930I20311J2549D01*
G01*
X678030Y381000D02*
G03*
X673100Y385930I-4930J-0D01*
G01*
X575310Y398780D02*
Y416560D01*
X561340Y430530D02*
X575310Y416560D01*
X561340Y430530D02*
Y454167D01*
X514350Y421640D02*
X523240Y412750D01*
X561340D01*
X529167Y486340D02*
X561340Y454167D01*
X514350Y421640D02*
Y454590D01*
X482600Y486340D02*
X514350Y454590D01*
X469900Y473040D02*
X482600Y460340D01*
X469900Y473040D02*
Y487680D01*
X478220Y496000D01*
X496000D01*
X508000Y508000D01*
X516890Y472617D02*
X529167Y460340D01*
X516890Y472617D02*
Y491490D01*
X533400Y508000D01*
X463550Y488950D02*
X482600Y508000D01*
X463550Y434340D02*
Y488950D01*
Y434340D02*
X482600Y415290D01*
X589280Y384810D02*
Y472793D01*
X575733Y486340D02*
X589280Y472793D01*
X567690Y370840D02*
X603250D01*
X638810Y406400D01*
Y469830D01*
X622300Y486340D02*
X638810Y469830D01*
X504190Y285750D02*
X542290Y247650D01*
X181610Y159250D02*
X239260D01*
X276860Y196850D01*
X295910D01*
X168910Y349250D02*
X181610D01*
X207010Y374650D01*
X232410D01*
X257810D01*
X270510D01*
X278130Y367030D01*
Y344170D02*
Y367030D01*
Y344170D02*
X285750Y336550D01*
X342900D01*
X355600Y349250D01*
X368300D01*
X393700Y374650D01*
X419100D01*
X444500D01*
X455930D01*
X463550Y367030D01*
Y292100D02*
Y367030D01*
Y292100D02*
X469900Y285750D01*
X289560Y381000D02*
X295910Y374650D01*
X289560Y381000D02*
Y508000D01*
X295910Y349250D02*
X314960Y368300D01*
Y508000D01*
X295910Y298450D02*
Y323850D01*
X325120Y441960D02*
X391160Y508000D01*
X325120Y358140D02*
Y441960D01*
X316230Y349250D02*
X325120Y358140D01*
X316230Y217170D02*
Y323850D01*
X295910Y196850D02*
X316230Y217170D01*
X508000Y82550D02*
Y187960D01*
X542290Y222250D01*
X533400Y107950D02*
X542290Y116840D01*
Y196850D01*
X469900Y285750D02*
X504190D01*
X558800Y477273D02*
X575733Y460340D01*
X558800Y477273D02*
Y508000D01*
X584200Y498440D02*
X622300Y460340D01*
X584200Y498440D02*
Y508000D01*
X457200Y425450D02*
Y508000D01*
Y425450D02*
X497840Y384810D01*
Y364490D02*
Y384810D01*
X482600Y349250D02*
X497840Y364490D01*
X416560Y440690D02*
Y508000D01*
Y440690D02*
X482600Y374650D01*
Y170950D02*
Y196850D01*
X469900Y158250D02*
X482600Y170950D01*
Y298450D02*
Y323850D01*
X7770Y29491D02*
X115686D01*
X7770Y36491D02*
X118011D01*
X7770Y64491D02*
X138191D01*
X7770Y43491D02*
X123386D01*
X7770Y92491D02*
X110191D01*
X7770Y99491D02*
X103191D01*
X7770Y71491D02*
X131191D01*
X7770Y85491D02*
X117191D01*
X7770Y78491D02*
X124191D01*
X116762Y7770D02*
Y17200D01*
X109762Y7770D02*
Y92920D01*
X25400Y7770D02*
X122890D01*
X10819Y15490D02*
X117447D01*
X20411Y8490D02*
X122165D01*
X8012Y22491D02*
X115514D01*
X116762Y33600D02*
Y85920D01*
X123762Y43822D02*
Y78920D01*
X144762Y49228D02*
Y57920D01*
X130762Y48061D02*
Y71920D01*
X137762Y49683D02*
Y64920D01*
X11762Y14228D02*
Y114817D01*
X7770Y25400D02*
Y118712D01*
Y106491D02*
X96191D01*
X18762Y9068D02*
Y113770D01*
X25762Y7770D02*
Y113770D01*
X7770Y118712D02*
X11092Y115389D01*
X7770Y113491D02*
X89191D01*
X14990Y113770D02*
X88912D01*
X81762Y7770D02*
Y113770D01*
X74762Y7770D02*
Y113770D01*
X102762Y7770D02*
Y99920D01*
X88762Y7770D02*
Y113770D01*
X95762Y7770D02*
Y106920D01*
X46762Y7770D02*
Y113770D01*
X32762Y7770D02*
Y113770D01*
X39762Y7770D02*
Y113770D01*
X67762Y7770D02*
Y113770D01*
X53762Y7770D02*
Y113770D01*
X60762Y7770D02*
Y113770D01*
X158762Y7770D02*
Y10233D01*
X156510Y7770D02*
X301592D01*
X157235Y8490D02*
X300871D01*
X161389Y36491D02*
X272871D01*
X156014Y43491D02*
X265871D01*
X161953Y15490D02*
X293871D01*
X163714Y29491D02*
X279871D01*
X163885Y22491D02*
X286871D01*
X277762Y7770D02*
Y31600D01*
X270762Y7770D02*
Y38600D01*
X298762Y7770D02*
Y10600D01*
X284762Y7770D02*
Y24600D01*
X291762Y7770D02*
Y17600D01*
X193762Y7770D02*
Y50270D01*
X165762Y7770D02*
Y50270D01*
X186762Y7770D02*
Y50270D01*
X263762Y7770D02*
Y45600D01*
X200762Y7770D02*
Y50270D01*
X207762Y7770D02*
Y50270D01*
X151762Y46564D02*
Y51114D01*
X179762Y7770D02*
Y50270D01*
X158762Y40567D02*
Y50270D01*
X172762Y7770D02*
Y50270D01*
X7770Y50491D02*
X153148D01*
X7770Y57491D02*
X145191D01*
X88912Y113770D02*
X150792Y51889D01*
X154690Y50270D02*
X259092D01*
X221762Y7770D02*
Y50270D01*
X214762Y7770D02*
Y50270D01*
X256762Y7770D02*
Y50270D01*
X228762Y7770D02*
Y50270D01*
X235762Y7770D02*
Y50270D01*
X193762Y149470D02*
Y153369D01*
X214762Y149470D02*
Y154250D01*
X231429Y149470D02*
X236209Y154250D01*
X259092Y50270D02*
X301592Y7770D01*
X242762D02*
Y50270D01*
X249762Y7770D02*
Y50270D01*
X7770Y442491D02*
X15473D01*
X7770Y449491D02*
X22473D01*
X7770Y456491D02*
X29473D01*
X7770Y434788D02*
X46652Y473671D01*
X7770Y463491D02*
X36473D01*
X7770Y470491D02*
X43473D01*
X7770Y505491D02*
X128170D01*
X7770Y484491D02*
X146017D01*
X7770Y498491D02*
X129973D01*
X7770Y491491D02*
X134487D01*
X7770Y434788D02*
Y508000D01*
X130762Y475290D02*
Y496811D01*
X137762Y475290D02*
Y488529D01*
X151762Y475290D02*
Y483648D01*
X8352Y512491D02*
X128458D01*
X144762Y475290D02*
Y484869D01*
X158762Y475290D02*
Y484486D01*
X165762Y475290D02*
Y487632D01*
X172762Y475290D02*
Y494628D01*
X11762Y438780D02*
Y519172D01*
X18762Y445780D02*
Y524333D01*
X39762Y466780D02*
Y525630D01*
X25762Y452780D02*
Y525630D01*
X32762Y459780D02*
Y525630D01*
X46762Y473777D02*
Y525630D01*
X12030Y519491D02*
X130921D01*
X25400Y525630D02*
X135590D01*
X53762Y475290D02*
Y525630D01*
X67762Y475290D02*
Y525630D01*
X60762Y475290D02*
Y525630D01*
X88762Y475290D02*
Y525630D01*
X74762Y475290D02*
Y525630D01*
X81762Y475290D02*
Y525630D01*
X109762Y475290D02*
Y525630D01*
X95762Y475290D02*
Y525630D01*
X102762Y475290D02*
Y525630D01*
X130762Y519189D02*
Y525630D01*
X116762Y475290D02*
Y525630D01*
X123762Y475290D02*
Y525630D01*
X207762Y149470D02*
Y154250D01*
X200762Y149470D02*
Y154250D01*
X190916Y149470D02*
X231429D01*
X221762D02*
Y154250D01*
X228762Y149470D02*
Y154250D01*
X50550Y475290D02*
X210832D01*
X7770Y477491D02*
X213033D01*
X194150Y154250D02*
X236209D01*
X274651Y187570D02*
X278931Y191850D01*
X274651Y187570D02*
X283910D01*
X277762D02*
Y190681D01*
X283910Y187570D02*
Y191850D01*
X277572Y190491D02*
X283910D01*
X278931Y191850D02*
X283910D01*
X283275Y346096D02*
X284905Y344466D01*
X305114Y341550D02*
X313410D01*
X179762Y475290D02*
Y525630D01*
X158783Y484491D02*
X220033D01*
X170313Y491491D02*
X220310D01*
X174827Y498491D02*
X220310D01*
X176342Y512491D02*
X220310D01*
X172762Y521372D02*
Y525630D01*
X176630Y505491D02*
X220310D01*
X169210Y525630D02*
X225612D01*
X173879Y519491D02*
X220502D01*
X193762Y475290D02*
Y525630D01*
X186762Y475290D02*
Y525630D01*
X210832Y475290D02*
X220310Y484768D01*
X200762Y475290D02*
Y525630D01*
X207762Y475290D02*
Y525630D01*
X220310Y484768D02*
Y518050D01*
X214762Y479220D02*
Y525630D01*
X221762Y521773D02*
Y525630D01*
X222379Y522398D02*
X224362Y524381D01*
X224379Y524398D02*
X225612Y525630D01*
X548808Y7770D02*
X549730Y8692D01*
X550762Y7770D02*
Y10117D01*
X557762Y7770D02*
Y13445D01*
X564762Y7770D02*
Y14986D01*
X551350Y12590D02*
Y15993D01*
X565568Y15490D02*
X577432D01*
X570442Y22491D02*
X572558D01*
X585762Y7770D02*
Y13502D01*
X578763Y7770D02*
Y14703D01*
X606763Y7770D02*
Y13740D01*
X592762Y7770D02*
Y16993D01*
X599762Y7770D02*
Y18528D01*
X613763Y7770D02*
Y14145D01*
X590968Y15490D02*
X602832D01*
X595842Y22491D02*
X597958D01*
X620763Y7770D02*
Y20996D01*
X620881Y29491D02*
X623719D01*
X621242Y22491D02*
X623358D01*
X564762Y35814D02*
Y46585D01*
X570081Y29491D02*
X572919D01*
X571763Y7770D02*
Y53584D01*
X557762Y37355D02*
Y39585D01*
X578763Y36097D02*
Y60585D01*
X563382Y36491D02*
X579618D01*
X554940Y36762D02*
X615770Y97592D01*
X585762Y37298D02*
Y67585D01*
X595481Y29491D02*
X598319D01*
X592762Y33807D02*
Y74584D01*
X599762Y32272D02*
Y81585D01*
X620763Y29804D02*
Y371825D01*
X588783Y36491D02*
X605018D01*
X606763Y37060D02*
Y88584D01*
X613763Y36655D02*
Y95584D01*
X617390Y101490D02*
Y368452D01*
X634763Y7770D02*
Y13402D01*
X627763Y7770D02*
Y15828D01*
X548808Y7770D02*
X635000D01*
X549529Y8490D02*
X639989D01*
X616368Y15490D02*
X628232D01*
X614183Y36491D02*
X630418D01*
X561669Y43491D02*
X663522D01*
X568669Y50491D02*
X678020D01*
X641763Y9119D02*
Y15487D01*
X648763Y14382D02*
Y54800D01*
X641768Y15490D02*
X649582D01*
X646642Y22491D02*
X652388D01*
X646281Y29491D02*
X653043D01*
X639582Y36491D02*
X655895D01*
X655763Y36283D02*
Y52286D01*
X662763Y43068D02*
Y51955D01*
X669763Y45596D02*
Y53711D01*
X627763Y34972D02*
Y378825D01*
X634763Y37398D02*
Y385825D01*
X575669Y57491D02*
X644800D01*
X582669Y64491D02*
X639039D01*
X589669Y71491D02*
X636500D01*
X596669Y78491D02*
X636148D01*
X603669Y85491D02*
X637881D01*
X610669Y92491D02*
X642289D01*
X617014Y99491D02*
X653262D01*
X641763Y91886D02*
Y339914D01*
X676763Y47500D02*
Y58154D01*
X641763Y35313D02*
Y60514D01*
X676000Y57491D02*
X678030D01*
Y93010D02*
Y338790D01*
Y50844D02*
Y59390D01*
X662763Y100445D02*
Y331355D01*
X648763Y97600D02*
Y334200D01*
X655763Y100114D02*
Y331686D01*
X667538Y99491D02*
X678030D01*
X669763Y98689D02*
Y333111D01*
X676763Y94246D02*
Y337554D01*
X305762Y330701D02*
Y331550D01*
X305114D02*
X313410D01*
X305905Y330491D02*
X311420D01*
X305762Y341550D02*
Y342399D01*
X306926Y344491D02*
X309552D01*
X307159Y353428D02*
X318496Y364765D01*
X312762Y356681D02*
Y359031D01*
X617390Y337491D02*
X644107D01*
X617390Y351491D02*
X636389D01*
X617390Y344491D02*
X638721D01*
X312222Y358491D02*
X318400D01*
X317290Y357381D02*
X320120Y360211D01*
X319762Y359853D02*
Y366907D01*
X617390Y358491D02*
X636212D01*
X319096Y365491D02*
X320120D01*
X617390D02*
X638139D01*
X462200Y427521D02*
X474400Y415321D01*
X319960Y368300D02*
Y439404D01*
X320120Y360211D02*
Y439392D01*
X462200Y427521D02*
Y428619D01*
Y494671D02*
X463529Y496000D01*
X462200Y494671D02*
Y496000D01*
X466762Y422959D02*
Y424057D01*
X462200Y496000D02*
X463529D01*
X462200Y428619D02*
X474469Y416350D01*
X621429Y372491D02*
X642847D01*
X641763Y371286D02*
Y392825D01*
X628429Y379491D02*
X655644D01*
X617390Y368452D02*
X652789Y403851D01*
X648763Y377000D02*
Y399825D01*
X468230Y421491D02*
X469328D01*
X473762Y415959D02*
Y417057D01*
X642429Y393491D02*
X657213D01*
X649429Y400491D02*
X653501D01*
X655763Y379514D02*
Y395517D01*
X617390Y204491D02*
X678030D01*
X617390Y211491D02*
X678030D01*
X617390Y183491D02*
X678030D01*
X617390Y197491D02*
X678030D01*
X617390Y190491D02*
X678030D01*
X617390Y239491D02*
X678030D01*
X617390Y246491D02*
X678030D01*
X617390Y218491D02*
X678030D01*
X617390Y232491D02*
X678030D01*
X617390Y225491D02*
X678030D01*
X617390Y127491D02*
X678030D01*
X617390Y134491D02*
X678030D01*
X617390Y106491D02*
X678030D01*
X617390Y120491D02*
X678030D01*
X617390Y113491D02*
X678030D01*
X617390Y162491D02*
X678030D01*
X617390Y176491D02*
X678030D01*
X617390Y169491D02*
X678030D01*
X617390Y141491D02*
X678030D01*
X617390Y155491D02*
X678030D01*
X617390Y148491D02*
X678030D01*
X617390Y274491D02*
X678030D01*
X617390Y281491D02*
X678030D01*
X617390Y253491D02*
X678030D01*
X617390Y267491D02*
X678030D01*
X617390Y260491D02*
X678030D01*
X617390Y309491D02*
X678030D01*
X617390Y323491D02*
X678030D01*
X617390Y316491D02*
X678030D01*
X617390Y288491D02*
X678030D01*
X617390Y302491D02*
X678030D01*
X617390Y295491D02*
X678030D01*
Y372410D02*
Y380960D01*
X676763Y373646D02*
Y384300D01*
X617390Y330491D02*
X678030D01*
X676693Y337491D02*
X678030D01*
X669763Y378089D02*
Y386204D01*
X635429Y386491D02*
X668339D01*
X662763Y379845D02*
Y388732D01*
X665156Y379491D02*
X678030D01*
D12*
X542290Y345440D02*
Y370840D01*
Y320040D02*
Y345440D01*
Y294640D02*
Y320040D01*
Y247650D02*
Y294640D01*
X232410Y270510D02*
Y349250D01*
Y270510D02*
X255270Y247650D01*
X295910D01*
X393700Y260350D02*
Y349250D01*
Y260350D02*
X431800Y222250D01*
X482600D01*
X419100Y267970D02*
Y349250D01*
Y267970D02*
X439420Y247650D01*
X482600D01*
X444500Y281940D02*
Y349250D01*
Y281940D02*
X453390Y273050D01*
X482600D01*
X15760Y142600D02*
X80760D01*
X159860Y63500D01*
X292100D01*
X330200Y25400D01*
X283210Y159250D02*
X323350D01*
X324350Y158250D02*
X368300D01*
X323350Y159250D02*
X324350Y158250D01*
X368300Y143510D02*
Y158250D01*
X363220Y138430D02*
X368300Y143510D01*
X363220Y60960D02*
Y138430D01*
Y60960D02*
X381000Y43180D01*
X207010Y257810D02*
Y349250D01*
Y257810D02*
X242570Y222250D01*
X295910D01*
X257810Y281940D02*
Y349250D01*
Y281940D02*
X266700Y273050D01*
X295910D01*
X15760Y176200D02*
Y187600D01*
X27160D01*
X15760D02*
Y199000D01*
X69360Y187600D02*
X80760D01*
Y176200D02*
Y187600D01*
Y199000D01*
Y187600D02*
X92160D01*
X168910Y211750D02*
Y222250D01*
X158410D02*
X168910D01*
Y232750D01*
Y222250D02*
X179410D01*
X249910Y183310D02*
Y194310D01*
X238910D02*
X249910D01*
X260910D01*
X249910D02*
Y205310D01*
X355600Y211750D02*
Y222250D01*
X366100D01*
X345100D02*
X355600D01*
Y232750D01*
X54340Y395880D02*
Y420980D01*
X61740Y372980D02*
X86840D01*
Y347880D02*
Y372980D01*
X111940D01*
X86840D02*
Y398080D01*
X54340Y420980D02*
Y446080D01*
Y420980D02*
X79440D01*
X29240D02*
X54340D01*
X158410Y374650D02*
X168910D01*
X179410D01*
X168910Y364150D02*
Y374650D01*
Y385150D01*
X345100Y374650D02*
X355600D01*
X366100D01*
X253660Y508000D02*
X264160D01*
X274660D01*
X264160Y497500D02*
Y508000D01*
Y518500D01*
X355600Y364150D02*
Y374650D01*
Y385150D01*
X406400Y14900D02*
Y25400D01*
X395900D02*
X406400D01*
X416900D01*
X421300D02*
X431800D01*
X406400D02*
Y35900D01*
X431800Y14900D02*
Y25400D01*
X442300D01*
X431800D02*
Y35900D01*
X425600Y194310D02*
X436600D01*
Y183310D02*
Y194310D01*
Y205310D01*
Y194310D02*
X447600D01*
X593090Y196850D02*
X603590D01*
X593090Y186350D02*
Y196850D01*
X582590D02*
X593090D01*
Y207350D01*
Y211750D02*
Y222250D01*
X582590D02*
X593090D01*
X603590D01*
X593090D02*
Y232750D01*
X474800Y434340D02*
X482600D01*
Y426540D02*
Y434340D01*
X490400D01*
X521367D02*
X529167D01*
Y426540D02*
Y434340D01*
X482600D02*
Y442140D01*
X529167Y434340D02*
Y442140D01*
Y434340D02*
X536967D01*
X567933D02*
X575733D01*
Y426540D02*
Y434340D01*
Y442140D01*
X614500Y434340D02*
X622300D01*
Y442140D01*
Y426540D02*
Y434340D01*
X630100D01*
D13*
X542290Y247650D02*
X567690Y222250D01*
D14*
X86360Y348280D02*
Y372980D01*
Y373380D01*
Y372980D02*
X86840D01*
X61740D02*
X86360D01*
X86840D02*
Y398080D01*
X54340Y420980D02*
X79440D01*
X54340Y395880D02*
Y420980D01*
Y446080D01*
X29240Y420980D02*
X54340D01*
X78940Y276860D02*
X116840D01*
X138430Y255270D01*
Y212090D02*
Y255270D01*
Y212090D02*
X153670Y196850D01*
X168910D01*
X171450Y194310D02*
X214910D01*
X168910Y196850D02*
X171450Y194310D01*
X99060Y207010D02*
X165100Y140970D01*
X358140Y194310D02*
X401600D01*
X355600Y196850D02*
X358140Y194310D01*
X316230Y179070D02*
X334010Y196850D01*
X355600D01*
X165100Y140970D02*
X234950D01*
X273050Y179070D01*
X316230D01*
X99060Y207010D02*
Y253800D01*
X55880D02*
X78940Y276860D01*
D15*
X116840Y420980D02*
X132080Y405740D01*
Y325120D02*
Y405740D01*
X111760Y304800D02*
X132080Y325120D01*
X76200Y304800D02*
X111760D01*
X33020D02*
X76200D01*
D16*
X567690Y196850D02*
Y222250D01*
X381000Y25400D02*
Y43180D01*
X392430Y54610D01*
X514350D01*
X567690Y107950D01*
Y196850D01*
D17*
X635000Y25400D02*
D03*
X609600D02*
D03*
X584200D02*
D03*
X558800D02*
D03*
X533400D02*
D03*
X457200D02*
D03*
X431800D02*
D03*
X406400D02*
D03*
X381000D02*
D03*
X355600D02*
D03*
X635000Y508000D02*
D03*
X558800D02*
D03*
X584200D02*
D03*
X609600D02*
D03*
X533400D02*
D03*
X508000D02*
D03*
X482600D02*
D03*
X416560D02*
D03*
X340360D02*
D03*
X365760D02*
D03*
X391160D02*
D03*
X314960D02*
D03*
X289560D02*
D03*
X264160D02*
D03*
X168910Y222250D02*
D03*
Y196850D02*
D03*
Y247650D02*
D03*
Y273050D02*
D03*
Y298450D02*
D03*
Y323850D02*
D03*
Y349250D02*
D03*
X207010D02*
D03*
X232410D02*
D03*
X257810D02*
D03*
X232410Y374650D02*
D03*
X207010D02*
D03*
X270510Y124460D02*
D03*
X245110D02*
D03*
X219710D02*
D03*
X482600Y349250D02*
D03*
Y374650D02*
D03*
Y323850D02*
D03*
Y298450D02*
D03*
Y273050D02*
D03*
Y247650D02*
D03*
Y222250D02*
D03*
X393700Y349250D02*
D03*
X419100D02*
D03*
X444500D02*
D03*
X419100Y374650D02*
D03*
X393700D02*
D03*
X457200Y124460D02*
D03*
X431800D02*
D03*
X406400D02*
D03*
X542290Y320040D02*
D03*
Y345440D02*
D03*
X567690Y370840D02*
D03*
Y345440D02*
D03*
Y320040D02*
D03*
Y294640D02*
D03*
X542290D02*
D03*
X355600Y222250D02*
D03*
Y196850D02*
D03*
Y247650D02*
D03*
Y273050D02*
D03*
Y298450D02*
D03*
Y323850D02*
D03*
Y349250D02*
D03*
X295910D02*
D03*
Y374650D02*
D03*
Y323850D02*
D03*
Y298450D02*
D03*
Y273050D02*
D03*
Y247650D02*
D03*
Y222250D02*
D03*
X593090D02*
D03*
X567690D02*
D03*
X542290D02*
D03*
X567690Y196850D02*
D03*
X593090D02*
D03*
D18*
X508000Y25400D02*
D03*
X330200D02*
D03*
X457200Y508000D02*
D03*
X238760D02*
D03*
X257810Y374650D02*
D03*
X194310Y124460D02*
D03*
X444500Y374650D02*
D03*
X381000Y124460D02*
D03*
X542290Y196850D02*
D03*
D19*
X482600Y434340D02*
D03*
Y460340D02*
D03*
Y486340D02*
D03*
X529167Y434340D02*
D03*
Y460340D02*
D03*
Y486340D02*
D03*
X575733Y434340D02*
D03*
Y460340D02*
D03*
Y486340D02*
D03*
X622300Y434340D02*
D03*
Y460340D02*
D03*
Y486340D02*
D03*
D20*
X214910Y194310D02*
D03*
X249910D02*
D03*
X401600D02*
D03*
X436600D02*
D03*
D21*
X168910Y374650D02*
D03*
X482600Y196850D02*
D03*
X542290Y370840D02*
D03*
X355600Y374650D02*
D03*
X295910Y196850D02*
D03*
D22*
X15760Y142600D02*
D03*
X80760Y187600D02*
D03*
Y142600D02*
D03*
X15760Y187600D02*
D03*
D23*
X181610Y159250D02*
D03*
X283210D02*
D03*
X469900Y158250D02*
D03*
X368300D02*
D03*
D24*
X86840Y372980D02*
D03*
X54340Y420980D02*
D03*
D25*
X116840D02*
D03*
D26*
X76200Y304800D02*
D03*
X99060Y253800D02*
D03*
X33020Y304800D02*
D03*
X55880Y253800D02*
D03*
D27*
X139700Y25400D02*
D03*
X152400Y508000D02*
D03*
X660400Y355600D02*
D03*
Y76200D02*
D03*
D28*
X487500Y125000D02*
D03*
X512500Y362500D02*
D03*
Y312500D02*
D03*
X561340Y412750D02*
D03*
X575310Y398780D02*
D03*
X589280Y384810D02*
D03*
X516890Y237490D02*
D03*
X316230Y349250D02*
D03*
Y323850D02*
D03*
X508000Y82550D02*
D03*
X533400Y107950D02*
D03*
X482600Y415290D02*
D03*
X200000Y400000D02*
D03*
X250000D02*
D03*
X50000Y350000D02*
D03*
Y200000D02*
D03*
X300000Y100000D02*
D03*
X400000Y400000D02*
D03*
Y450000D02*
D03*
X500000D02*
D03*
X550000D02*
D03*
X600000D02*
D03*
X400000Y150000D02*
D03*
X450000D02*
D03*
X350000Y50000D02*
D03*
X550000D02*
D03*
X600000Y100000D02*
D03*
Y150000D02*
D03*
X225000Y425000D02*
D03*
X25000Y225000D02*
D03*
Y375000D02*
D03*
X575000Y250000D02*
D03*
X400000Y225000D02*
D03*
X475000Y75000D02*
D03*
X200000Y225000D02*
D03*
X113700Y224800D02*
D03*
X339300Y49900D02*
D03*
X328600Y49800D02*
D03*
X483500Y38700D02*
D03*
X313900Y100000D02*
D03*
X286600Y99900D02*
D03*
M02*
