  0
SECTION
  2
HEADER
  9
$ACADVER
  1
AC1014
  9
$HANDSEED
  5
FFFF
  9
$MEASUREMENT
 70
     1
  0
ENDSEC
  0
SECTION
  2
TABLES
  0
TABLE
  2
VPORT
  5
8
330
0
100
AcDbSymbolTable
 70
     4
  0
VPORT
  5
2E
330
8
100
AcDbSymbolTableRecord
100
AcDbViewportTableRecord
  2
*ACTIVE
 70
     0
 10
0.0
 20
0.0
 11
1.0
 21
1.0
 12
210.0
 22
148.5
 13
0.0
 23
0.0
 14
10.0
 24
10.0
 15
10.0
 25
10.0
 16
0.0
 26
0.0
 36
1.0
 17
0.0
 27
0.0
 37
0.0
 40
341.0
 41
1.24
 42
50.0
 43
0.0
 44
0.0
 50
0.0
 51
0.0
 71
     0
 72
   100
 73
     1
 74
     3
 75
     0
 76
     0
 77
     0
 78
     0
  0
ENDTAB
  0
TABLE
  2
LTYPE
  5
5
330
0
100
AcDbSymbolTable
 70
     1
  0
LTYPE
  5
14
330
5
100
AcDbSymbolTableRecord
100
AcDbLinetypeTableRecord
  2
BYBLOCK
 70
     0
  3

 72
    65
 73
     0
 40
0.0
  0
LTYPE
  5
15
330
5
100
AcDbSymbolTableRecord
100
AcDbLinetypeTableRecord
  2
BYLAYER
 70
     0
  3

 72
    65
 73
     0
 40
0.0
  0
LTYPE
  5
16
330
5
100
AcDbSymbolTableRecord
100
AcDbLinetypeTableRecord
  2
CONTINUOUS
 70
     0
  3
Solid line
 72
    65
 73
     0
 40
0.0
  0
ENDTAB
  0
TABLE
  2
LAYER
  5
2
100
AcDbSymbolTable
 70
1
  0
LAYER
  5
50
100
AcDbSymbolTableRecord
100
AcDbLayerTableRecord
  2
0
 70
0
  6
CONTINUOUS
  0
ENDTAB
  0
TABLE
  2
STYLE
  5
3
330
0
100
AcDbSymbolTable
 70
     1
  0
STYLE
  5
11
330
3
100
AcDbSymbolTableRecord
100
AcDbTextStyleTableRecord
  2
STANDARD
 70
     0
 40
0.0
 41
1.0
 50
0.0
 71
     0
 42
2.5
  3
txt
  4

  0
ENDTAB
  0
TABLE
  2
VIEW
  5
6
330
0
100
AcDbSymbolTable
 70
     0
  0
ENDTAB
  0
TABLE
  2
UCS
  5
7
330
0
100
AcDbSymbolTable
 70
     0
  0
ENDTAB
  0
TABLE
  2
APPID
  5
9
330
0
100
AcDbSymbolTable
 70
     2
  0
APPID
  5
12
330
9
100
AcDbSymbolTableRecord
100
AcDbRegAppTableRecord
  2
ACAD
 70
     0
  0
ENDTAB
  0
TABLE
  2
DIMSTYLE
  5
A
330
0
100
AcDbSymbolTable
 70
     1
  0
DIMSTYLE
105
27
330
A
100
AcDbSymbolTableRecord
100
AcDbDimStyleTableRecord
  2
ISO-25
 70
     0
  3

  4

  5

  6

  7

 40
1.0
 41
2.5
 42
0.625
 43
3.75
 44
1.25
 45
0.0
 46
0.0
 47
0.0
 48
0.0
140
2.5
141
2.5
142
0.0
143
0.03937007874016
144
1.0
145
0.0
146
1.0
147
0.625
 71
     0
 72
     0
 73
     0
 74
     0
 75
     0
 76
     0
 77
     1
 78
     8
170
     0
171
     3
172
     1
173
     0
174
     0
175
     0
176
     0
177
     0
178
     0
270
     2
271
     2
272
     2
273
     2
274
     3
340
11
275
     0
280
     0
281
     0
282
     0
283
     0
284
     8
285
     0
286
     0
287
     3
288
     0
  0
ENDTAB
  0
TABLE
  2
BLOCK_RECORD
  5
1
330
0
100
AcDbSymbolTable
 70
     1
  0
BLOCK_RECORD
  5
1F
330
1
100
AcDbSymbolTableRecord
100
AcDbBlockTableRecord
  2
*MODEL_SPACE
  0
BLOCK_RECORD
  5
1B
330
1
100
AcDbSymbolTableRecord
100
AcDbBlockTableRecord
  2
*PAPER_SPACE
  0
ENDTAB
  0
ENDSEC
  0
SECTION
  2
BLOCKS
  0
BLOCK
  5
20
330
1F
100
AcDbEntity
  8
0
100
AcDbBlockBegin
  2
*MODEL_SPACE
 70
     0
 10
0.0
 20
0.0
 30
0.0
  3
*MODEL_SPACE
  1

  0
ENDBLK
  5
21
330
1F
100
AcDbEntity
  8
0
100
AcDbBlockEnd
  0
BLOCK
  5
1C
330
1B
100
AcDbEntity
 67
     1
  8
0
100
AcDbBlockBegin
  2
*PAPER_SPACE
  1

  0
ENDBLK
  5
1D
330
1B
100
AcDbEntity
 67
     1
  8
0
100
AcDbBlockEnd
  0
ENDSEC
  0
SECTION
  2
ENTITIES
  0
LWPOLYLINE
  5
100
100
AcDbEntity
  8
0
 62
7
100
AcDbPolyline
 90
65
 70
0
 10
49.599921
 20
256.606118
 30
0.0
 10
49.640911
 20
256.470992
 30
0.0
 10
49.707475
 20
256.346459
 30
0.0
 10
49.797056
 20
256.237307
 30
0.0
 10
49.906208
 20
256.147727
 30
0.0
 10
50.030741
 20
256.081162
 30
0.0
 10
50.165866
 20
256.040172
 30
0.0
 10
50.306393
 20
256.026343
 30
0.0
 10
67.510660
 20
256.029803
 30
0.0
 10
67.651178
 20
256.040158
 30
0.0
 10
67.786306
 20
256.081162
 30
0.0
 10
67.910851
 20
256.147727
 30
0.0
 10
68.019986
 20
256.237307
 30
0.0
 10
68.109592
 20
256.346459
 30
0.0
 10
68.176140
 20
256.470992
 30
0.0
 10
68.217119
 20
256.606118
 30
0.0
 10
68.230976
 20
256.746644
 30
0.0
 10
68.224428
 20
256.746642
 30
0.0
 10
68.236733
 20
256.840210
 30
0.0
 10
68.272858
 20
256.927399
 30
0.0
 10
68.330290
 20
257.002273
 30
0.0
 10
68.405163
 20
257.059725
 30
0.0
 10
68.492370
 20
257.095841
 30
0.0
 10
68.585927
 20
257.108146
 30
0.0
 10
68.585927
 20
257.101976
 30
0.0
 10
68.679483
 20
257.114281
 30
0.0
 10
68.766690
 20
257.150408
 30
0.0
 10
68.841564
 20
257.207860
 30
0.0
 10
68.898996
 20
257.282734
 30
0.0
 10
68.935120
 20
257.369924
 30
0.0
 10
68.947425
 20
257.463492
 30
0.0
 10
68.944349
 20
266.782467
 30
0.0
 10
68.935120
 20
266.876023
 30
0.0
 10
68.898996
 20
266.963230
 30
0.0
 10
68.841564
 20
267.038075
 30
0.0
 10
68.766690
 20
267.095536
 30
0.0
 10
68.679483
 20
267.131660
 30
0.0
 10
68.585927
 20
267.143965
 30
0.0
 10
68.585927
 20
267.137784
 30
0.0
 10
68.492370
 20
267.150118
 30
0.0
 10
68.405163
 20
267.186214
 30
0.0
 10
68.330290
 20
267.243674
 30
0.0
 10
68.272829
 20
267.318548
 30
0.0
 10
68.236733
 20
267.405726
 30
0.0
 10
68.224400
 20
267.499311
 30
0.0
 10
68.227504
 20
270.366689
 30
0.0
 10
68.217119
 20
270.507207
 30
0.0
 10
68.176140
 20
270.642335
 30
0.0
 10
68.109592
 20
270.766880
 30
0.0
 10
68.019986
 20
270.876015
 30
0.0
 10
67.910851
 20
270.965621
 30
0.0
 10
67.786306
 20
271.032169
 30
0.0
 10
67.651178
 20
271.073148
 30
0.0
 10
67.510660
 20
271.087005
 30
0.0
 10
50.306393
 20
271.083533
 30
0.0
 10
50.165866
 20
271.073148
 30
0.0
 10
50.030741
 20
271.032169
 30
0.0
 10
49.906208
 20
270.965621
 30
0.0
 10
49.797056
 20
270.876015
 30
0.0
 10
49.707475
 20
270.766880
 30
0.0
 10
49.640911
 20
270.642335
 30
0.0
 10
49.599921
 20
270.507207
 30
0.0
 10
49.586092
 20
270.366689
 30
0.0
 10
49.589552
 20
256.746644
 30
0.0
 10
49.599906
 20
256.606118
 30
0.0
  0
LWPOLYLINE
  5
101
100
AcDbEntity
  8
0
 62
7
100
AcDbPolyline
 90
33
 70
0
 10
53.532193
 20
257.214848
 30
0.0
 10
53.440838
 20
257.205845
 30
0.0
 10
53.353010
 20
257.179209
 30
0.0
 10
53.272069
 20
257.135942
 30
0.0
 10
53.201118
 20
257.077714
 30
0.0
 10
53.142896
 20
257.006763
 30
0.0
 10
53.099631
 20
256.925819
 30
0.0
 10
53.072990
 20
256.837986
 30
0.0
 10
53.063987
 20
256.746644
 30
0.0
 10
53.072990
 20
256.655303
 30
0.0
 10
53.099631
 20
256.567470
 30
0.0
 10
53.142896
 20
256.486526
 30
0.0
 10
53.201118
 20
256.415575
 30
0.0
 10
53.272069
 20
256.357347
 30
0.0
 10
53.353010
 20
256.314082
 30
0.0
 10
53.440838
 20
256.287441
 30
0.0
 10
53.532193
 20
256.278435
 30
0.0
 10
53.623549
 20
256.287443
 30
0.0
 10
53.711376
 20
256.314080
 30
0.0
 10
53.792318
 20
256.357347
 30
0.0
 10
53.863268
 20
256.415575
 30
0.0
 10
53.921491
 20
256.486526
 30
0.0
 10
53.964755
 20
256.567470
 30
0.0
 10
53.991397
 20
256.655303
 30
0.0
 10
54.000400
 20
256.746644
 30
0.0
 10
53.991397
 20
256.837986
 30
0.0
 10
53.964755
 20
256.925819
 30
0.0
 10
53.921491
 20
257.006763
 30
0.0
 10
53.863268
 20
257.077714
 30
0.0
 10
53.792318
 20
257.135942
 30
0.0
 10
53.711376
 20
257.179206
 30
0.0
 10
53.623549
 20
257.205848
 30
0.0
 10
53.532193
 20
257.214854
 30
0.0
  0
LWPOLYLINE
  5
102
100
AcDbEntity
  8
0
 62
7
100
AcDbPolyline
 90
33
 70
0
 10
53.890616
 20
270.834896
 30
0.0
 10
53.799260
 20
270.825893
 30
0.0
 10
53.711433
 20
270.799251
 30
0.0
 10
53.630491
 20
270.755986
 30
0.0
 10
53.559541
 20
270.697764
 30
0.0
 10
53.501318
 20
270.626813
 30
0.0
 10
53.458054
 20
270.545872
 30
0.0
 10
53.431412
 20
270.458044
 30
0.0
 10
53.422409
 20
270.366689
 30
0.0
 10
53.431412
 20
270.275334
 30
0.0
 10
53.458054
 20
270.187506
 30
0.0
 10
53.501318
 20
270.106565
 30
0.0
 10
53.559541
 20
270.035614
 30
0.0
 10
53.630491
 20
269.977392
 30
0.0
 10
53.711433
 20
269.934127
 30
0.0
 10
53.799260
 20
269.907485
 30
0.0
 10
53.890616
 20
269.898482
 30
0.0
 10
53.981971
 20
269.907485
 30
0.0
 10
54.069798
 20
269.934127
 30
0.0
 10
54.150740
 20
269.977392
 30
0.0
 10
54.221690
 20
270.035614
 30
0.0
 10
54.279913
 20
270.106565
 30
0.0
 10
54.323178
 20
270.187506
 30
0.0
 10
54.349819
 20
270.275334
 30
0.0
 10
54.358822
 20
270.366689
 30
0.0
 10
54.349819
 20
270.458044
 30
0.0
 10
54.323178
 20
270.545872
 30
0.0
 10
54.279913
 20
270.626813
 30
0.0
 10
54.221690
 20
270.697764
 30
0.0
 10
54.150740
 20
270.755986
 30
0.0
 10
54.069798
 20
270.799251
 30
0.0
 10
53.981971
 20
270.825893
 30
0.0
 10
53.890616
 20
270.834896
 30
0.0
  0
LWPOLYLINE
  5
103
100
AcDbEntity
  8
0
 62
7
100
AcDbPolyline
 90
33
 70
0
 10
68.227504
 20
258.648537
 30
0.0
 10
68.136149
 20
258.639534
 30
0.0
 10
68.048322
 20
258.612898
 30
0.0
 10
67.967380
 20
258.569631
 30
0.0
 10
67.896430
 20
258.511403
 30
0.0
 10
67.838207
 20
258.440452
 30
0.0
 10
67.794942
 20
258.359508
 30
0.0
 10
67.768301
 20
258.271675
 30
0.0
 10
67.759298
 20
258.180333
 30
0.0
 10
67.768301
 20
258.088992
 30
0.0
 10
67.794942
 20
258.001159
 30
0.0
 10
67.838207
 20
257.920215
 30
0.0
 10
67.896430
 20
257.849264
 30
0.0
 10
67.967380
 20
257.791036
 30
0.0
 10
68.048322
 20
257.747771
 30
0.0
 10
68.136149
 20
257.721130
 30
0.0
 10
68.227504
 20
257.712124
 30
0.0
 10
68.318860
 20
257.721132
 30
0.0
 10
68.406687
 20
257.747769
 30
0.0
 10
68.487629
 20
257.791036
 30
0.0
 10
68.558579
 20
257.849264
 30
0.0
 10
68.616802
 20
257.920215
 30
0.0
 10
68.660066
 20
258.001159
 30
0.0
 10
68.686708
 20
258.088992
 30
0.0
 10
68.695711
 20
258.180333
 30
0.0
 10
68.686708
 20
258.271675
 30
0.0
 10
68.660066
 20
258.359508
 30
0.0
 10
68.616802
 20
258.440452
 30
0.0
 10
68.558579
 20
258.511403
 30
0.0
 10
68.487629
 20
258.569631
 30
0.0
 10
68.406687
 20
258.612895
 30
0.0
 10
68.318860
 20
258.639537
 30
0.0
 10
68.227504
 20
258.648543
 30
0.0
  0
LWPOLYLINE
  5
104
100
AcDbEntity
  8
0
 62
7
100
AcDbPolyline
 90
33
 70
0
 10
68.227504
 20
266.533829
 30
0.0
 10
68.136149
 20
266.524826
 30
0.0
 10
68.048322
 20
266.498184
 30
0.0
 10
67.967380
 20
266.454920
 30
0.0
 10
67.896430
 20
266.396697
 30
0.0
 10
67.838207
 20
266.325746
 30
0.0
 10
67.794942
 20
266.244805
 30
0.0
 10
67.768301
 20
266.156978
 30
0.0
 10
67.759298
 20
266.065622
 30
0.0
 10
67.768301
 20
265.974267
 30
0.0
 10
67.794942
 20
265.886439
 30
0.0
 10
67.838207
 20
265.805498
 30
0.0
 10
67.896430
 20
265.734547
 30
0.0
 10
67.967380
 20
265.676325
 30
0.0
 10
68.048322
 20
265.633060
 30
0.0
 10
68.136149
 20
265.606418
 30
0.0
 10
68.227504
 20
265.597416
 30
0.0
 10
68.318860
 20
265.606418
 30
0.0
 10
68.406687
 20
265.633060
 30
0.0
 10
68.487629
 20
265.676325
 30
0.0
 10
68.558579
 20
265.734547
 30
0.0
 10
68.616802
 20
265.805498
 30
0.0
 10
68.660066
 20
265.886439
 30
0.0
 10
68.686708
 20
265.974267
 30
0.0
 10
68.695711
 20
266.065622
 30
0.0
 10
68.686708
 20
266.156978
 30
0.0
 10
68.660066
 20
266.244805
 30
0.0
 10
68.616802
 20
266.325746
 30
0.0
 10
68.558579
 20
266.396697
 30
0.0
 10
68.487629
 20
266.454920
 30
0.0
 10
68.406687
 20
266.498184
 30
0.0
 10
68.318860
 20
266.524826
 30
0.0
 10
68.227504
 20
266.533829
 30
0.0
  0
ENDSEC
  0
SECTION
  2
OBJECTS
  0
DICTIONARY
  5
C
330
0
100
AcDbDictionary
  3
ACAD_GROUP
350
D
  3
ACAD_MLINESTYLE
350
17
  0
DICTIONARY
  5
D
330
C
100
AcDbDictionary
  0
DICTIONARY
  5
1A
330
C
100
AcDbDictionary
  0
DICTIONARY
  5
17
330
C
100
AcDbDictionary
  3
STANDARD
350
18
  0
DICTIONARY
  5
19
330
C
100
AcDbDictionary
  0
ENDSEC
  0
EOF
