M48
;Layer_Color=9474304
;FILE_FORMAT=4:4
METRIC,LZ
;TYPE=PLATED
T1F00S00C0.5000
T2F00S00C0.6600
T3F00S00C0.7200
T4F00S00C0.8000
T5F00S00C1.0000
T6F00S00C1.1000
T7F00S00C3.0500
T8F00S00C3.5600
;TYPE=NON_PLATED
T9F00S00C3.3000
%
T01
X006Y001
Y0015
X00575Y0025
X0058928Y0038481
X005125Y003625
Y003125
X0051689Y0023749
X004Y00225
Y0015
X0045
X004875Y00125
X00475Y00075
X00508Y0008255
X005334Y0010795
X0055Y0005
X004835Y000387
X0035Y0005
X003393Y000499
X003286Y000498
X003139Y001
X003
X002866Y000999
X002Y00225
X0031623Y0032385
Y0034925
X0005Y0035
X00025Y00375
Y00225
X0005Y002
X001137Y002248
X002Y004
X0025
X00225Y00425
X004Y004
Y0045
X005
X0055
X004826Y0041529
X0056134Y0041275
X0057531Y0039878
X006Y0045
T02
X004826Y0043434
Y0046034
Y0048634
X00529167
Y0046034
Y0043434
X00575733
Y0046034
Y0048634
X006223
Y0046034
Y0043434
T03
X0005588Y002538
X0009906
X000762Y003048
X0003302
T04
X0021491Y0019431
X0024991
X004016
X004366
T05
X0001576Y001426
Y001876
X0008076
Y001426
T06
X005588Y000254
X005842
X006096
X00635
X0059309Y0019685
Y0022225
X0056769
Y0019685
Y0029464
Y0032004
Y0034544
Y0037084
X0054229
Y0034544
Y0032004
Y0029464
X004826Y0029845
Y0032385
Y0034925
Y0037465
X004445
Y0034925
X004191
X003937
Y0037465
X004191
X003556
Y0034925
Y0032385
Y0029845
Y0027305
Y0024765
Y0022225
Y0019685
X003683Y0015825
X00381Y0012446
X004064
X004318
X004572
X004699Y0015825
X004826Y0019685
Y0022225
Y0024765
Y0027305
X0054229Y0022225
Y0019685
X005334Y000254
X00508
X004572
X004318
X004064
X00381
X003556
X003302
X0027051Y0012446
X0024511
X0021971
X0019431
X0018161Y0015925
X0016891Y0019685
Y0022225
Y0024765
Y0027305
Y0029845
Y0032385
Y0034925
Y0037465
X0020701
Y0034925
X0023241
X0025781
Y0037465
X0023241
X0029591
Y0034925
Y0032385
Y0029845
Y0027305
Y0024765
Y0022225
Y0019685
X0028321Y0015925
X0028956Y00508
X0031496
X0034036
X0036576
X0039116
X0041656
X004572
X004826
X00508
X005334
X0026416
X0023876
X005588
X005842
X006096
X00635
T07
X0008684Y0037298
X0005434Y0042098
T08
X0011684Y0042098
T09
X006604Y000762
Y003556
X001397Y000254
X001524Y00508
M30
