999
dxflib 2.2.0.0
  0
SECTION
  2
HEADER
  9
$ACADVER
  1
AC1015
  9
$HANDSEED
  5
FFFF
  9
$OBSCOLOR
 70
257
  9
$DIMLIM
 70
0
  9
$LENSLENGTH
 40
50.0
  9
$LONGITUDE
 40
-122.3940000000000055
  9
$DIMLUNIT
 70
2
  9
$DIMTIX
 70
0
  9
$LOFTANG1
 40
1.570796326794897
  9
$AUNITS
 70
0
  9
$LOFTANG2
 40
1.570796326794897
  9
$SHOWHIST
280
1
  9
$QTEXTMODE
 70
0
  9
$USERR1
 40
0.0
  9
$DIMALTU
 70
2
  9
$UCSORGBOTTOM
 10
0.0
 20
0.0
 30
0.0
  9
$USERR2
 40
0.0
  9
$USERR3
 40
0.0
  9
$USERR4
 40
0.0
  9
$LIMMAX
 10
197.0812797000000103
 20
155.4239995400000112
  9
$USERR5
 40
0.0
  9
$PELEVATION
 40
0.0
  9
$DIMALTZ
 70
0
  9
$DIMADEC
 70
0
  9
$JOINSTYLE
280
0
  9
$DIMATFIT
 70
3
  9
$TILEMODE
 70
1
  9
$PEXTMIN
 10
100000000000000000000.0
 20
100000000000000000000.0
 30
100000000000000000000.0
  9
$TDUSRTIMER
 40
0.0000000116
  9
$DWGCODEPAGE
  3
ANSI_1252
  9
$SORTENTS
280
127
  9
$UCSORTHOVIEW
 70
0
  9
$DIMSOXD
 70
0
  9
$DIMTZIN
 70
8
  9
$SPLINETYPE
 70
6
  9
$DIMLFAC
 40
1.0
  9
$DIMSE1
 70
0
  9
$FILLETRAD
 40
10.0
  9
$DIMSE2
 70
0
  9
$PSTYLEMODE
290
1
  9
$TEXTSTYLE
  7
Standard
  9
$DIMTSZ
 40
0.0
  9
$PUCSXDIR
 10
1.0
 20
0.0
 30
0.0
  9
$DIMTFILL
 70
0
  9
$XCLIPFRAME
280
2
  9
$DIMTXSTY
  7
Standard
  9
$PLIMMAX
 10
420.0
 20
297.0
  9
$LOFTNORMALS
280
1
  9
$DIMTFILLCLR
 70
0
  9
$DIMTM
 40
0.0
  9
$UCSORG
 10
0.0
 20
0.0
 30
0.0
  9
$DIMJOGANG
 40
0.7853981633974483
  9
$DIMTP
 40
0.0
  9
$PSLTSCALE
 70
1
  9
$ANGBASE
 50
0.0
  9
$PUCSYDIR
 10
0.0
 20
1.0
 30
0.0
  9
$EXTNAMES
290
1
  9
$LIGHTGLYPHDISPLAY
280
1
  9
$DIMASZ
 40
2.5
  9
$PUCSORTHOVIEW
 70
0
  9
$INSBASE
 10
0.0
 20
0.0
 30
0.0
  9
$UNITMODE
 70
0
  9
$MEASUREMENT
 70
1
  9
$INDEXCTL
280
0
  9
$REALWORLDSCALE
290
1
  9
$EXTMAX
 10
-100000000000000000000.0
 20
-100000000000000000000.0
 30
-100000000000000000000.0
  9
$ELEVATION
 40
0.0
  9
$TDCREATE
 40
2456930.5972779281437397
  9
$STEPSPERSEC
 40
2.0
  9
$DIMDEC
 70
2
  9
$LATITUDE
 40
37.7950000000000017
  9
$CELTYPE
  6
ByLayer
  9
$MENU
  1
.
  9
$ANGDIR
 70
0
  9
$DIMALTTD
 70
3
  9
$TREEDEPTH
 70
3020
  9
$LTSCALE
 40
1.0
  9
$PROXYGRAPHICS
 70
1
  9
$DIMTMOVE
 70
0
  9
$DIMAZIN
 70
0
  9
$TDUPDATE
 40
2456930.597304827068001
  9
$DIMTOLJ
 70
0
  9
$DIMCEN
 40
2.5
  9
$DIMTVP
 40
0.0
  9
$TRACEWID
 40
1.0
  9
$CMLSTYLE
  2
Standard
  9
$DISPSILH
 70
0
  9
$DIMSTYLE
  2
ISO-25
  9
$STEPSIZE
 40
6.0
  9
$SKETCHINC
 40
1.0
  9
$FILLMODE
 70
1
  9
$PLINEGEN
 70
0
  9
$DIMLWD
 70
-2
  9
$THICKNESS
 40
0.0
  9
$DIMLWE
 70
-2
  9
$CELTSCALE
 40
1.0
  9
$PUCSORG
 10
0.0
 20
0.0
 30
0.0
  9
$DIMALTTZ
 70
0
  9
$INSUNITS
 70
4
  9
$UCSORGBACK
 10
0.0
 20
0.0
 30
0.0
  9
$PLINEWID
 40
0.0
  9
$PEXTMAX
 10
-100000000000000000000.0
 20
-100000000000000000000.0
 30
-100000000000000000000.0
  9
$DIMJUST
 70
0
  9
$CSHADOW
280
0
  9
$DIMASSOC
280
2
  9
$DIMTXTDIRECTION
 70
0
  9
$UCSYDIR
 10
0.0
 20
1.0
 30
0.0
  9
$PUCSORGBACK
 10
0.0
 20
0.0
 30
0.0
  9
$PDSIZE
 40
0.0
  9
$PUCSORGBOTTOM
 10
0.0
 20
0.0
 30
0.0
  9
$REQUIREDVERSIONS
160
0
  9
$DIMUPT
 70
0
  9
$TILEMODELIGHTSYNCH
280
1
  9
$DIMTAD
 70
1
  9
$SHADOWPLANELOCATION
 40
0.0
  9
$UCSXDIR
 10
1.0
 20
0.0
 30
0.0
  9
$MAXACTVP
 70
64
  9
$DIMSAH
 70
0
  9
$HALOGAP
280
0
  9
$TDUCREATE
 40
2456930.5139445951208472
  9
$DIMFRAC
 70
0
  9
$USERI1
 70
0
  9
$USERI2
 70
0
  9
$UCSORGRIGHT
 10
0.0
 20
0.0
 30
0.0
  9
$USERI3
 70
0
  9
$CELWEIGHT
370
-1
  9
$LWDISPLAY
290
0
  9
$SKPOLY
 70
0
  9
$USERI4
 70
0
  9
$USERI5
 70
0
  9
$LOFTPARAM
 70
7
  9
$LIMMIN
 10
82.0709991800000012
 20
90.1826593599999882
  9
$ACADMAINTVER
 70
8
  9
$UCSORGTOP
 10
0.0
 20
0.0
 30
0.0
  9
$PSOLHEIGHT
 40
80.0
  9
$MIRRTEXT
 70
1
  9
$TDUUPDATE
 40
2456930.513971493113786
  9
$TEXTSIZE
 40
2.5
  9
$CMATERIAL
347
44
  9
$DIMGAP
 40
0.625
  9
$LUPREC
 70
4
  9
$INTERFERECOLOR
 62
256
  9
$CECOLOR
 62
256
  9
$TIMEZONE
 70
-8000
  9
$DIMSD1
 70
0
  9
$3DDWFPREC
 40
2.0
  9
$DIMSD2
 70
0
  9
$WORLDVIEW
 70
1
  9
$PUCSORGRIGHT
 10
0.0
 20
0.0
 30
0.0
  9
$PLIMCHECK
 70
0
  9
$DIMTFAC
 40
1.0
  9
$CMLJUST
 70
0
  9
$DWFFRAME
280
2
  9
$USRTIMER
 70
1
  9
$SURFU
 70
6
  9
$SURFV
 70
6
  9
$DIMASO
 70
1
  9
$PSOLWIDTH
 40
5.0
  9
$DIMDLE
 40
0.0
  9
$EXTMIN
 10
100000000000000000000.0
 20
100000000000000000000.0
 30
100000000000000000000.0
  9
$UCSORGLEFT
 10
0.0
 20
0.0
 30
0.0
  9
$OLESTARTUP
290
0
  9
$PUCSORGFRONT
 10
0.0
 20
0.0
 30
0.0
  9
$DIMDLI
 40
3.75
  9
$LUNITS
 70
2
  9
$DIMCLRD
 70
0
  9
$SHADEDIF
 70
70
  9
$DIMCLRE
 70
0
  9
$SPLINESEGS
 70
8
  9
$PUCSORGLEFT
 10
0.0
 20
0.0
 30
0.0
  9
$INTERSECTIONDISPLAY
280
0
  9
$DIMALTRND
 40
0.0
  9
$DIMRND
 40
0.0
  9
$DIMALT
 70
0
  9
$FINGERPRINTGUID
  2
{140F2DBB-28CA-41CE-94FC-272EC7E10344}
  9
$DIMCLRT
 70
0
  9
$DIMFXLON
 70
0
  9
$PUCSORGTOP
 10
0.0
 20
0.0
 30
0.0
  9
$OBSLTYPE
280
0
  9
$DIMTOH
 70
0
  9
$UCSORGFRONT
 10
0.0
 20
0.0
 30
0.0
  9
$VISRETAIN
 70
1
  9
$SHADEDGE
 70
3
  9
$CAMERADISPLAY
290
0
  9
$DIMTOL
 70
0
  9
$SURFTYPE
 70
6
  9
$VERSIONGUID
  2
{FAEB1C32-E019-11D5-929B-00C0DF256EC4}
  9
$CHAMFERA
 40
0.0
  9
$SURFTAB1
 70
6
  9
$CHAMFERB
 40
0.0
  9
$SURFTAB2
 70
6
  9
$CHAMFERC
 40
0.0
  9
$AUPREC
 70
0
  9
$NORTHDIRECTION
 40
0.0
  9
$CHAMFERD
 40
0.0
  9
$DIMTDEC
 70
2
  9
$PDMODE
 70
0
  9
$SPLFRAME
 70
0
  9
$PLIMMIN
 10
0.0
 20
0.0
  9
$SOLIDHIST
280
1
  9
$XEDIT
290
1
  9
$CAMERAHEIGHT
 40
0.0
  9
$DIMDSEP
 70
44
  9
$DIMARCSYM
 70
0
  9
$LIMCHECK
 70
0
  9
$PINSBASE
 10
0.0
 20
0.0
 30
0.0
  9
$ORTHOMODE
 70
0
  9
$PSVPSCALE
 40
0.0
  9
$CLAYER
  8
0
  9
$DIMSHO
 70
1
  9
$DIMTOFL
 70
1
  9
$LOFTMAG1
 40
0.0
  9
$DIMTXT
 40
2.5
  9
$DIMEXE
 40
1.25
  9
$TDINDWG
 40
0.0000000116
  9
$LOFTMAG2
 40
0.0
  9
$REGENMODE
 70
1
  9
$ATTMODE
 70
1
  9
$CMLSCALE
 40
20.0
  9
$DIMTIH
 70
0
  9
$DIMZIN
 70
8
  9
$CEPSNTYPE
380
0
  9
$DIMFXL
 40
1.0
  9
$HIDETEXT
280
1
  9
$DIMSCALE
 40
1.0
  9
$INTERSECTIONCOLOR
 70
257
  9
$DIMALTD
 70
3
  9
$DIMAUNIT
 70
0
  9
$DIMALTF
 40
0.03937007874016
  9
$DIMEXO
 40
0.625
  9
$DGNFRAME
280
2
  9
$ENDCAPS
280
0
  0
ENDSEC
  0
SECTION
  2
TABLES
  0
TABLE
  2
VPORT
  5
8
100
AcDbSymbolTable
 70
1
  0
VPORT
  5
30
100
AcDbSymbolTableRecord
100
AcDbViewportTableRecord
  2
*Active
 70
0
 10
0.0
 20
0.0
 11
1.0
 21
1.0
 12
286.3055555555554861
 22
148.5
 13
0.0
 23
0.0
 14
10.0
 24
10.0
 15
10.0
 25
10.0
 16
0.0
 26
0.0
 36
1.0
 17
0.0
 27
0.0
 37
0.0
 40
297.0
 41
1.92798353909465
 42
50.0
 43
0.0
 44
0.0
 50
0.0
 51
0.0
 71
0
 72
100
 73
1
 74
3
 75
1
 76
1
 77
0
 78
0
281
0
 65
1
110
0.0
120
0.0
130
0.0
111
1.0
121
0.0
131
0.0
112
0.0
122
1.0
132
0.0
 79
0
146
0.0
  0
ENDTAB
  0
TABLE
  2
LTYPE
  5
5
100
AcDbSymbolTable
 70
21
  0
LTYPE
  5
14
100
AcDbSymbolTableRecord
100
AcDbLinetypeTableRecord
  2
ByBlock
 70
0
  3

 72
65
 73
0
 40
0.0
  0
LTYPE
  5
15
100
AcDbSymbolTableRecord
100
AcDbLinetypeTableRecord
  2
ByLayer
 70
0
  3

 72
65
 73
0
 40
0.0
  0
LTYPE
  5
16
100
AcDbSymbolTableRecord
100
AcDbLinetypeTableRecord
  2
CONTINUOUS
 70
0
  3
Solid line
 72
65
 73
0
 40
0.0
  0
LTYPE
  5
31
100
AcDbSymbolTableRecord
100
AcDbLinetypeTableRecord
  2
DOT
 70
0
  3
Dot . . . . . . . . . . . . . . . . . . . . . .
 72
65
 73
2
 40
6.3499999999999996
 49
0.0
 74
0
 49
-6.3499999999999996
 74
0
  0
LTYPE
  5
32
100
AcDbSymbolTableRecord
100
AcDbLinetypeTableRecord
  2
DOT2
 70
0
  3
Dot (.5x) .....................................
 72
65
 73
2
 40
3.1749999999999998
 49
0.0
 74
0
 49
-3.1749999999999998
 74
0
  0
LTYPE
  5
33
100
AcDbSymbolTableRecord
100
AcDbLinetypeTableRecord
  2
DOTX2
 70
0
  3
Dot (2x) .  .  .  .  .  .  .  .  .  .  .  .  .
 72
65
 73
2
 40
12.6999999999999993
 49
0.0
 74
0
 49
-12.6999999999999993
 74
0
  0
LTYPE
  5
34
100
AcDbSymbolTableRecord
100
AcDbLinetypeTableRecord
  2
DASHED
 70
0
  3
Dashed __ __ __ __ __ __ __ __ __ __ __ __ __ _
 72
65
 73
2
 40
19.0500000000000007
 49
12.6999999999999993
 74
0
 49
-6.3499999999999996
 74
0
  0
LTYPE
  5
35
100
AcDbSymbolTableRecord
100
AcDbLinetypeTableRecord
  2
DASHED2
 70
0
  3
Dashed (.5x) _ _ _ _ _ _ _ _ _ _ _ _ _ _ _ _ _
 72
65
 73
2
 40
9.5250000000000004
 49
6.3499999999999996
 74
0
 49
-3.1749999999999998
 74
0
  0
LTYPE
  5
36
100
AcDbSymbolTableRecord
100
AcDbLinetypeTableRecord
  2
DASHEDX2
 70
0
  3
Dashed (2x) ____  ____  ____  ____  ____  ___
 72
65
 73
2
 40
38.1000000000000014
 49
25.3999999999999986
 74
0
 49
-12.6999999999999993
 74
0
  0
LTYPE
  5
37
100
AcDbSymbolTableRecord
100
AcDbLinetypeTableRecord
  2
DASHDOT
 70
0
  3
Dash dot __ . __ . __ . __ . __ . __ . __ . __
 72
65
 73
4
 40
25.3999999999999986
 49
12.6999999999999993
 74
0
 49
-6.3499999999999996
 74
0
 49
0.0
 74
0
 49
-6.3499999999999996
 74
0
  0
LTYPE
  5
38
100
AcDbSymbolTableRecord
100
AcDbLinetypeTableRecord
  2
DASHDOT2
 70
0
  3
Dash dot (.5x) _._._._._._._._._._._._._._._.
 72
65
 73
4
 40
12.6999999999999993
 49
6.3499999999999996
 74
0
 49
-3.1749999999999998
 74
0
 49
0.0
 74
0
 49
-3.1749999999999998
 74
0
  0
LTYPE
  5
39
100
AcDbSymbolTableRecord
100
AcDbLinetypeTableRecord
  2
DASHDOTX2
 70
0
  3
Dash dot (2x) ____  .  ____  .  ____  .  ___
 72
65
 73
4
 40
50.7999999999999972
 49
25.3999999999999986
 74
0
 49
-12.6999999999999993
 74
0
 49
0.0
 74
0
 49
-12.6999999999999993
 74
0
  0
LTYPE
  5
3A
100
AcDbSymbolTableRecord
100
AcDbLinetypeTableRecord
  2
DIVIDE
 70
0
  3
Divide ____ . . ____ . . ____ . . ____ . . ____
 72
65
 73
6
 40
31.75
 49
12.6999999999999993
 74
0
 49
-6.3499999999999996
 74
0
 49
0.0
 74
0
 49
-6.3499999999999996
 74
0
 49
0.0
 74
0
 49
-6.3499999999999996
 74
0
  0
LTYPE
  5
3B
100
AcDbSymbolTableRecord
100
AcDbLinetypeTableRecord
  2
DIVIDE2
 70
0
  3
Divide (.5x) __..__..__..__..__..__..__..__.._
 72
65
 73
6
 40
15.875
 49
6.3499999999999996
 74
0
 49
-3.1749999999999998
 74
0
 49
0.0
 74
0
 49
-3.1749999999999998
 74
0
 49
0.0
 74
0
 49
-3.1749999999999998
 74
0
  0
LTYPE
  5
3C
100
AcDbSymbolTableRecord
100
AcDbLinetypeTableRecord
  2
DIVIDEX2
 70
0
  3
Divide (2x) ________  .  .  ________  .  .  _
 72
65
 73
6
 40
63.5
 49
25.3999999999999986
 74
0
 49
-12.6999999999999993
 74
0
 49
0.0
 74
0
 49
-12.6999999999999993
 74
0
 49
0.0
 74
0
 49
-12.6999999999999993
 74
0
  0
LTYPE
  5
3D
100
AcDbSymbolTableRecord
100
AcDbLinetypeTableRecord
  2
CENTER
 70
0
  3
Center ____ _ ____ _ ____ _ ____ _ ____ _ ____
 72
65
 73
4
 40
50.7999999999999972
 49
31.75
 74
0
 49
-6.3499999999999996
 74
0
 49
6.3499999999999996
 74
0
 49
-6.3499999999999996
 74
0
  0
LTYPE
  5
3E
100
AcDbSymbolTableRecord
100
AcDbLinetypeTableRecord
  2
CENTER2
 70
0
  3
Center (.5x) ___ _ ___ _ ___ _ ___ _ ___ _ ___
 72
65
 73
4
 40
28.5749999999999993
 49
19.0500000000000007
 74
0
 49
-3.1749999999999998
 74
0
 49
3.1749999999999998
 74
0
 49
-3.1749999999999998
 74
0
  0
LTYPE
  5
3F
100
AcDbSymbolTableRecord
100
AcDbLinetypeTableRecord
  2
CENTERX2
 70
0
  3
Center (2x) ________  __  ________  __  _____
 72
65
 73
4
 40
101.5999999999999943
 49
63.5
 74
0
 49
-12.6999999999999993
 74
0
 49
12.6999999999999993
 74
0
 49
-12.6999999999999993
 74
0
  0
LTYPE
  5
40
100
AcDbSymbolTableRecord
100
AcDbLinetypeTableRecord
  2
BORDER
 70
0
  3
Border __ __ . __ __ . __ __ . __ __ . __ __ .
 72
65
 73
6
 40
44.4500000000000028
 49
12.6999999999999993
 74
0
 49
-6.3499999999999996
 74
0
 49
12.6999999999999993
 74
0
 49
-6.3499999999999996
 74
0
 49
0.0
 74
0
 49
-6.3499999999999996
 74
0
  0
LTYPE
  5
41
100
AcDbSymbolTableRecord
100
AcDbLinetypeTableRecord
  2
BORDER2
 70
0
  3
Border (.5x) __.__.__.__.__.__.__.__.__.__.__.
 72
65
 73
6
 40
22.2250000000000014
 49
6.3499999999999996
 74
0
 49
-3.1749999999999998
 74
0
 49
6.3499999999999996
 74
0
 49
-3.1749999999999998
 74
0
 49
0.0
 74
0
 49
-3.1749999999999998
 74
0
  0
LTYPE
  5
42
100
AcDbSymbolTableRecord
100
AcDbLinetypeTableRecord
  2
BORDERX2
 70
0
  3
Border (2x) ____  ____  .  ____  ____  .  ___
 72
65
 73
6
 40
88.9000000000000057
 49
25.3999999999999986
 74
0
 49
-12.6999999999999993
 74
0
 49
25.3999999999999986
 74
0
 49
-12.6999999999999993
 74
0
 49
0.0
 74
0
 49
-12.6999999999999993
 74
0
  0
ENDTAB
  0
TABLE
  2
LAYER
  5
2
100
AcDbSymbolTable
 70
2
  0
LAYER
  5
10
100
AcDbSymbolTableRecord
100
AcDbLayerTableRecord
  2
0
 70
0
 62
7
  6
CONTINUOUS
370
-3
390
F
  0
LAYER
  5
43
100
AcDbSymbolTableRecord
100
AcDbLayerTableRecord
  2
KeepOutLayer
 70
0
 62
6
  6
CONTINUOUS
370
-3
390
F
  0
ENDTAB
  0
TABLE
  2
STYLE
  5
3
100
AcDbSymbolTable
 70
1
  0
STYLE
  5
11
100
AcDbSymbolTableRecord
100
AcDbTextStyleTableRecord
  2
Standard
 70
0
 40
0.0
 41
0.75
 50
0.0
 71
0
 42
2.5
  3
txt
  4

  0
ENDTAB
  0
TABLE
  2
VIEW
  5
6
100
AcDbSymbolTable
 70
0
  0
ENDTAB
  0
TABLE
  2
UCS
  5
7
100
AcDbSymbolTable
 70
0
  0
ENDTAB
  0
TABLE
  2
APPID
  5
9
100
AcDbSymbolTable
 70
1
  0
APPID
  5
12
100
AcDbSymbolTableRecord
100
AcDbRegAppTableRecord
  2
ACAD
 70
0
  0
ENDTAB
  0
TABLE
  2
DIMSTYLE
  5
A
100
AcDbSymbolTable
 70
1
100
AcDbDimStyleTable
 71
0
  0
DIMSTYLE
105
27
100
AcDbSymbolTableRecord
100
AcDbDimStyleTableRecord
  2
Standard
 41
2.5
 42
0.625
 43
3.75
 44
1.25
 70
0
 73
0
 74
0
 77
1
 78
8
140
2.5
141
2.5
143
0.03937007874016
147
0.625
171
3
172
1
271
2
272
2
274
3
278
44
283
0
284
8
340
11
  0
ENDTAB
  0
TABLE
  2
BLOCK_RECORD
  5
1
100
AcDbSymbolTable
 70
1
  0
BLOCK_RECORD
  5
1F
100
AcDbSymbolTableRecord
100
AcDbBlockTableRecord
  2
*Model_Space
340
22
  0
BLOCK_RECORD
  5
1B
100
AcDbSymbolTableRecord
100
AcDbBlockTableRecord
  2
*Paper_Space
340
1E
  0
BLOCK_RECORD
  5
23
100
AcDbSymbolTableRecord
100
AcDbBlockTableRecord
  2
*Paper_Space0
340
26
  0
ENDTAB
  0
ENDSEC
  0
SECTION
  2
BLOCKS
  0
BLOCK
  5
20
100
AcDbEntity
  8
0
100
AcDbBlockBegin
  2
*Model_Space
 70
0
 10
0.0
 20
0.0
 30
0.0
  3
*Model_Space
  1

  0
ENDBLK
  5
21
100
AcDbEntity
  8
0
100
AcDbBlockEnd
  0
BLOCK
  5
1C
100
AcDbEntity
 67
1
  8
0
100
AcDbBlockBegin
  2
*Paper_Space
 70
0
 10
0.0
 20
0.0
 30
0.0
  3
*Paper_Space
  1

  0
ENDBLK
  5
1D
100
AcDbEntity
 67
1
  8
0
100
AcDbBlockEnd
  0
BLOCK
  5
24
100
AcDbEntity
  8
0
100
AcDbBlockBegin
  2
*Paper_Space0
 70
0
 10
0.0
 20
0.0
 30
0.0
  3
*Paper_Space0
  1

  0
ENDBLK
  5
25
100
AcDbEntity
  8
0
100
AcDbBlockEnd
  0
ENDSEC
  0
SECTION
  2
ENTITIES
  0
LWPOLYLINE
  5
44
  8
KeepOutLayer
 62
256
370
-1
  6
ByLayer
100
AcDbEntity
100
AcDbPolyline
 90
2
 70
0
 10
105.9180000000000064
 20
97.9170000000000016
 10
166.8779999999999859
 20
97.9170000000000016
  0
LWPOLYLINE
  5
45
  8
KeepOutLayer
 62
256
370
-1
  6
ByLayer
100
AcDbEntity
100
AcDbPolyline
 90
2
 70
1
 10
105.8545000000000016
 20
97.9170000000000016
 42
0.9999999999999999
 10
105.9815000000000111
 20
97.9170000000000016
 42
0.9999999999999999
  0
LWPOLYLINE
  5
46
  8
KeepOutLayer
 62
256
370
-1
  6
ByLayer
100
AcDbEntity
100
AcDbPolyline
 90
2
 70
1
 10
166.8145000000000095
 20
97.9170000000000016
 42
0.9999999999999999
 10
166.9414999999999623
 20
97.9170000000000016
 42
0.9999999999999999
  0
LWPOLYLINE
  5
47
  8
KeepOutLayer
 62
256
370
-1
  6
ByLayer
100
AcDbEntity
100
AcDbPolyline
 90
2
 70
0
 10
103.3780000000000001
 20
100.4569999999999936
 10
103.3780000000000001
 20
148.717000000000013
  0
LWPOLYLINE
  5
48
  8
KeepOutLayer
 62
256
370
-1
  6
ByLayer
100
AcDbEntity
100
AcDbPolyline
 90
2
 70
1
 10
103.3144999999999953
 20
100.4569999999999936
 42
0.9999999999999999
 10
103.4415000000000049
 20
100.4569999999999936
 42
0.9999999999999999
  0
LWPOLYLINE
  5
49
  8
KeepOutLayer
 62
256
370
-1
  6
ByLayer
100
AcDbEntity
100
AcDbPolyline
 90
2
 70
1
 10
103.3144999999999953
 20
148.717000000000013
 42
0.9999999999999999
 10
103.4415000000000049
 20
148.717000000000013
 42
0.9999999999999999
  0
LWPOLYLINE
  5
4A
  8
KeepOutLayer
 62
256
370
-1
  6
ByLayer
100
AcDbEntity
100
AcDbPolyline
 90
2
 70
0
 10
105.9180000000000064
 20
151.257000000000005
 10
166.8779999999999859
 20
151.257000000000005
  0
LWPOLYLINE
  5
4B
  8
KeepOutLayer
 62
256
370
-1
  6
ByLayer
100
AcDbEntity
100
AcDbPolyline
 90
2
 70
1
 10
105.8545000000000016
 20
151.257000000000005
 42
0.9999999999999999
 10
105.9815000000000111
 20
151.257000000000005
 42
0.9999999999999999
  0
LWPOLYLINE
  5
4C
  8
KeepOutLayer
 62
256
370
-1
  6
ByLayer
100
AcDbEntity
100
AcDbPolyline
 90
2
 70
1
 10
166.8145000000000095
 20
151.257000000000005
 42
0.9999999999999999
 10
166.9414999999999623
 20
151.257000000000005
 42
0.9999999999999999
  0
LWPOLYLINE
  5
4D
  8
KeepOutLayer
 62
256
370
-1
  6
ByLayer
100
AcDbEntity
100
AcDbPolyline
 90
2
 70
0
 10
171.9579999999999984
 20
102.9969999999999999
 10
171.9579999999999984
 20
136.0169999999999959
  0
LWPOLYLINE
  5
4E
  8
KeepOutLayer
 62
256
370
-1
  6
ByLayer
100
AcDbEntity
100
AcDbPolyline
 90
2
 70
1
 10
171.8944999999999936
 20
102.9969999999999999
 42
0.9999999999999999
 10
172.0215000000000032
 20
102.9969999999999999
 42
0.9999999999999999
  0
LWPOLYLINE
  5
4F
  8
KeepOutLayer
 62
256
370
-1
  6
ByLayer
100
AcDbEntity
100
AcDbPolyline
 90
2
 70
1
 10
171.8944999999999936
 20
136.0169999999999959
 42
0.9999999999999999
 10
172.0215000000000032
 20
136.0169999999999959
 42
0.9999999999999999
  0
LWPOLYLINE
  5
50
  8
KeepOutLayer
 62
256
370
-1
  6
ByLayer
100
AcDbEntity
100
AcDbPolyline
 90
2
 70
0
 10
169.4180000000000064
 20
138.5569999999999879
 10
169.4180000000000064
 20
148.717000000000013
  0
LWPOLYLINE
  5
51
  8
KeepOutLayer
 62
256
370
-1
  6
ByLayer
100
AcDbEntity
100
AcDbPolyline
 90
2
 70
1
 10
169.3545000000000016
 20
138.5569999999999879
 42
0.9999999999999999
 10
169.4815000000000111
 20
138.5569999999999879
 42
0.9999999999999999
  0
LWPOLYLINE
  5
52
  8
KeepOutLayer
 62
256
370
-1
  6
ByLayer
100
AcDbEntity
100
AcDbPolyline
 90
2
 70
1
 10
169.3545000000000016
 20
148.717000000000013
 42
0.9999999999999999
 10
169.4815000000000111
 20
148.717000000000013
 42
0.9999999999999999
  0
LWPOLYLINE
  5
53
  8
KeepOutLayer
 62
256
370
-1
  6
ByLayer
100
AcDbEntity
100
AcDbPolyline
 90
2
 70
1
 10
129.3210748600000102
 20
134.5700000999999872
 42
0.9999999999999999
 10
126.0089250199999924
 20
134.5700000999999872
 42
0.9999999999999999
  0
LWPOLYLINE
  5
54
  8
KeepOutLayer
 62
256
370
-1
  6
ByLayer
100
AcDbEntity
100
AcDbPolyline
 90
2
 70
1
 10
129.2575748600000338
 20
134.5700000999999872
 42
0.9999999999999999
 10
129.3845748599999865
 20
134.5700000999999872
 42
0.9999999999999999
  0
LWPOLYLINE
  5
55
  8
KeepOutLayer
 62
256
370
-1
  6
ByLayer
100
AcDbEntity
100
AcDbPolyline
 90
2
 70
1
 10
125.9454250199999876
 20
134.5700000999999872
 42
0.9999999999999999
 10
126.0724250199999972
 20
134.5700000999999872
 42
0.9999999999999999
  0
LWPOLYLINE
  5
56
  8
KeepOutLayer
 62
256
370
-1
  6
ByLayer
100
AcDbEntity
100
AcDbPolyline
 90
2
 70
1
 10
149.3070191399999942
 20
134.5770003400000121
 42
0.9999999999999999
 10
146.0089815400000077
 20
134.5770003400000121
 42
0.9999999999999999
  0
LWPOLYLINE
  5
57
  8
KeepOutLayer
 62
256
370
-1
  6
ByLayer
100
AcDbEntity
100
AcDbPolyline
 90
2
 70
1
 10
149.2435191399999894
 20
134.5770003400000121
 42
0.9999999999999999
 10
149.370519139999999
 20
134.5770003400000121
 42
0.9999999999999999
  0
LWPOLYLINE
  5
58
  8
KeepOutLayer
 62
256
370
-1
  6
ByLayer
100
AcDbEntity
100
AcDbPolyline
 90
2
 70
1
 10
145.945481540000003
 20
134.5770003400000121
 42
0.9999999999999999
 10
146.0724815400000125
 20
134.5770003400000121
 42
0.9999999999999999
  0
LWPOLYLINE
  5
59
  8
KeepOutLayer
 62
256
370
-1
  6
ByLayer
100
AcDbEntity
100
AcDbPolyline
 90
2
 70
1
 10
149.3240015800000151
 20
114.6450005800000014
 42
0.9999999999999999
 10
146.0079960200000073
 20
114.6450005800000014
 42
0.9999999999999999
  0
LWPOLYLINE
  5
5A
  8
KeepOutLayer
 62
256
370
-1
  6
ByLayer
100
AcDbEntity
100
AcDbPolyline
 90
2
 70
1
 10
149.2605015800000388
 20
114.6450005800000014
 42
0.9999999999999999
 10
149.3875015799999915
 20
114.6450005800000014
 42
0.9999999999999999
  0
LWPOLYLINE
  5
5B
  8
KeepOutLayer
 62
256
370
-1
  6
ByLayer
100
AcDbEntity
100
AcDbPolyline
 90
2
 70
1
 10
145.9444960200000025
 20
114.6450005800000014
 42
0.9999999999999999
 10
146.0714960200000121
 20
114.6450005800000014
 42
0.9999999999999999
  0
LWPOLYLINE
  5
5C
  8
KeepOutLayer
 62
256
370
-1
  6
ByLayer
100
AcDbEntity
100
AcDbPolyline
 90
2
 70
1
 10
129.327018460000005
 20
114.5769997000000018
 42
0.9999999999999999
 10
126.0089809000000116
 20
114.5769997000000018
 42
0.9999999999999999
  0
LWPOLYLINE
  5
5D
  8
KeepOutLayer
 62
256
370
-1
  6
ByLayer
100
AcDbEntity
100
AcDbPolyline
 90
2
 70
1
 10
129.2635184600000002
 20
114.5769997000000018
 42
0.9999999999999999
 10
129.3905184600000098
 20
114.5769997000000018
 42
0.9999999999999999
  0
LWPOLYLINE
  5
5E
  8
KeepOutLayer
 62
256
370
-1
  6
ByLayer
100
AcDbEntity
100
AcDbPolyline
 90
2
 70
1
 10
125.9454809000000068
 20
114.5769997000000018
 42
0.9999999999999999
 10
126.0724809000000164
 20
114.5769997000000018
 42
0.9999999999999999
  0
LWPOLYLINE
  5
5F
  8
KeepOutLayer
 62
256
370
-1
  6
ByLayer
100
AcDbEntity
100
AcDbPolyline
 90
2
 70
1
 10
119.0069883000000033
 20
100.4569999999999936
 42
0.9999999999999999
 10
115.6890116999999947
 20
100.4569999999999936
 42
0.9999999999999999
  0
LWPOLYLINE
  5
60
  8
KeepOutLayer
 62
256
370
-1
  6
ByLayer
100
AcDbEntity
100
AcDbPolyline
 90
2
 70
1
 10
118.9434882999999843
 20
100.4569999999999936
 42
0.9999999999999999
 10
119.0704882999999938
 20
100.4569999999999936
 42
0.9999999999999999
  0
LWPOLYLINE
  5
61
  8
KeepOutLayer
 62
256
370
-1
  6
ByLayer
100
AcDbEntity
100
AcDbPolyline
 90
2
 70
1
 10
115.6255117000000041
 20
100.4569999999999936
 42
0.9999999999999999
 10
115.7525117000000137
 20
100.4569999999999936
 42
0.9999999999999999
  0
LWPOLYLINE
  5
62
  8
KeepOutLayer
 62
256
370
-1
  6
ByLayer
100
AcDbEntity
100
AcDbPolyline
 90
2
 70
1
 10
171.0769883000000107
 20
105.5370000000000061
 42
0.9999999999999999
 10
167.7590117000000021
 20
105.5370000000000061
 42
0.9999999999999999
  0
LWPOLYLINE
  5
63
  8
KeepOutLayer
 62
256
370
-1
  6
ByLayer
100
AcDbEntity
100
AcDbPolyline
 90
2
 70
1
 10
171.0134883000000059
 20
105.5370000000000061
 42
0.9999999999999999
 10
171.1404882999999586
 20
105.5370000000000061
 42
0.9999999999999999
  0
LWPOLYLINE
  5
64
  8
KeepOutLayer
 62
256
370
-1
  6
ByLayer
100
AcDbEntity
100
AcDbPolyline
 90
2
 70
1
 10
167.6955116999999973
 20
105.5370000000000061
 42
0.9999999999999999
 10
167.8225117000000068
 20
105.5370000000000061
 42
0.9999999999999999
  0
LWPOLYLINE
  5
65
  8
KeepOutLayer
 62
256
370
-1
  6
ByLayer
100
AcDbEntity
100
AcDbPolyline
 90
2
 70
1
 10
171.0769883000000107
 20
133.4770000000000039
 42
0.9999999999999999
 10
167.7590117000000021
 20
133.4770000000000039
 42
0.9999999999999999
  0
LWPOLYLINE
  5
66
  8
KeepOutLayer
 62
256
370
-1
  6
ByLayer
100
AcDbEntity
100
AcDbPolyline
 90
2
 70
1
 10
171.0134883000000059
 20
133.4770000000000039
 42
0.9999999999999999
 10
171.1404882999999586
 20
133.4770000000000039
 42
0.9999999999999999
  0
LWPOLYLINE
  5
67
  8
KeepOutLayer
 62
256
370
-1
  6
ByLayer
100
AcDbEntity
100
AcDbPolyline
 90
2
 70
1
 10
167.6955116999999973
 20
133.4770000000000039
 42
0.9999999999999999
 10
167.8225117000000068
 20
133.4770000000000039
 42
0.9999999999999999
  0
LWPOLYLINE
  5
68
  8
KeepOutLayer
 62
256
370
-1
  6
ByLayer
100
AcDbEntity
100
AcDbPolyline
 90
2
 70
1
 10
120.2769882999999993
 20
148.717000000000013
 42
0.9999999999999999
 10
116.9590116999999907
 20
148.717000000000013
 42
0.9999999999999999
  0
LWPOLYLINE
  5
69
  8
KeepOutLayer
 62
256
370
-1
  6
ByLayer
100
AcDbEntity
100
AcDbPolyline
 90
2
 70
1
 10
120.2134882999999945
 20
148.717000000000013
 42
0.9999999999999999
 10
120.3404883000000041
 20
148.717000000000013
 42
0.9999999999999999
  0
LWPOLYLINE
  5
6A
  8
KeepOutLayer
 62
256
370
-1
  6
ByLayer
100
AcDbEntity
100
AcDbPolyline
 90
2
 70
1
 10
116.8955116999999859
 20
148.717000000000013
 42
0.9999999999999999
 10
117.0225116999999955
 20
148.717000000000013
 42
0.9999999999999999
  0
LWPOLYLINE
  5
6B
  8
KeepOutLayer
 62
256
370
-1
  6
ByLayer
100
AcDbEntity
100
AcDbPolyline
 90
2
 70
0
 10
105.9180000000000064
 20
97.9170000000000016
 42
-0.414213562372877
 10
103.3780000000000001
 20
100.4569999999999936
 42
-0.414213562372877
  0
LWPOLYLINE
  5
6C
  8
KeepOutLayer
 62
256
370
-1
  6
ByLayer
100
AcDbEntity
100
AcDbPolyline
 90
2
 70
1
 10
105.8545000000000016
 20
97.9170000000000016
 42
0.9999999999999999
 10
105.9815000000000111
 20
97.9170000000000016
 42
0.9999999999999999
  0
LWPOLYLINE
  5
6D
  8
KeepOutLayer
 62
256
370
-1
  6
ByLayer
100
AcDbEntity
100
AcDbPolyline
 90
2
 70
1
 10
103.3144999999999953
 20
100.4569999999999936
 42
0.9999999999999999
 10
103.4415000000000049
 20
100.4569999999999936
 42
0.9999999999999999
  0
LWPOLYLINE
  5
6E
  8
KeepOutLayer
 62
256
370
-1
  6
ByLayer
100
AcDbEntity
100
AcDbPolyline
 90
2
 70
0
 10
103.3780000000000001
 20
148.717000000000013
 42
-0.4142135623728786
 10
105.9180000000000064
 20
151.2570000000000334
 42
-0.4142135623728786
  0
LWPOLYLINE
  5
6F
  8
KeepOutLayer
 62
256
370
-1
  6
ByLayer
100
AcDbEntity
100
AcDbPolyline
 90
2
 70
1
 10
103.3144999999999953
 20
148.717000000000013
 42
0.9999999999999999
 10
103.4415000000000049
 20
148.717000000000013
 42
0.9999999999999999
  0
LWPOLYLINE
  5
70
  8
KeepOutLayer
 62
256
370
-1
  6
ByLayer
100
AcDbEntity
100
AcDbPolyline
 90
2
 70
1
 10
105.8545000000000016
 20
151.257000000000005
 42
0.9999999999999999
 10
105.9815000000000111
 20
151.257000000000005
 42
0.9999999999999999
  0
LWPOLYLINE
  5
71
  8
KeepOutLayer
 62
256
370
-1
  6
ByLayer
100
AcDbEntity
100
AcDbPolyline
 90
2
 70
0
 10
169.4180000000000064
 20
100.4569999999999936
 42
-0.4142135623728755
 10
166.8779999999999859
 20
97.9170000000000016
 42
-0.4142135623728755
  0
LWPOLYLINE
  5
72
  8
KeepOutLayer
 62
256
370
-1
  6
ByLayer
100
AcDbEntity
100
AcDbPolyline
 90
2
 70
1
 10
169.3545000000000016
 20
100.4569999999999936
 42
0.9999999999999999
 10
169.4815000000000111
 20
100.4569999999999936
 42
0.9999999999999999
  0
LWPOLYLINE
  5
73
  8
KeepOutLayer
 62
256
370
-1
  6
ByLayer
100
AcDbEntity
100
AcDbPolyline
 90
2
 70
1
 10
166.8145000000000095
 20
97.9170000000000016
 42
0.9999999999999999
 10
166.9414999999999623
 20
97.9170000000000016
 42
0.9999999999999999
  0
LWPOLYLINE
  5
74
  8
KeepOutLayer
 62
256
370
-1
  6
ByLayer
100
AcDbEntity
100
AcDbPolyline
 90
2
 70
0
 10
169.4180127000000198
 20
100.4569949199999996
 42
-0.4142135623728723
 10
170.6880127000000016
 20
101.7269949199999957
 42
-0.4142135623728723
  0
LWPOLYLINE
  5
75
  8
KeepOutLayer
 62
256
370
-1
  6
ByLayer
100
AcDbEntity
100
AcDbPolyline
 90
2
 70
1
 10
169.3545126999999866
 20
100.4569949199999996
 42
0.9999999999999999
 10
169.4815126999999961
 20
100.4569949199999996
 42
0.9999999999999999
  0
LWPOLYLINE
  5
76
  8
KeepOutLayer
 62
256
370
-1
  6
ByLayer
100
AcDbEntity
100
AcDbPolyline
 90
2
 70
1
 10
170.6245126999999968
 20
101.7269949199999957
 42
0.9999999999999999
 10
170.7515127000000064
 20
101.7269949199999957
 42
0.9999999999999999
  0
LWPOLYLINE
  5
77
  8
KeepOutLayer
 62
256
370
-1
  6
ByLayer
100
AcDbEntity
100
AcDbPolyline
 90
2
 70
0
 10
171.9579873000000134
 20
102.9970050799999939
 42
-0.414213562372882
 10
170.6879873000000032
 20
101.7270050799999836
 42
-0.414213562372882
  0
LWPOLYLINE
  5
78
  8
KeepOutLayer
 62
256
370
-1
  6
ByLayer
100
AcDbEntity
100
AcDbPolyline
 90
2
 70
1
 10
171.8944873000000371
 20
102.9970050799999939
 42
0.9999999999999999
 10
172.0214872999999898
 20
102.9970050799999939
 42
0.9999999999999999
  0
LWPOLYLINE
  5
79
  8
KeepOutLayer
 62
256
370
-1
  6
ByLayer
100
AcDbEntity
100
AcDbPolyline
 90
2
 70
1
 10
170.6244872999999984
 20
101.7270050799999979
 42
0.9999999999999999
 10
170.751487300000008
 20
101.7270050799999979
 42
0.9999999999999999
  0
LWPOLYLINE
  5
7A
  8
KeepOutLayer
 62
256
370
-1
  6
ByLayer
100
AcDbEntity
100
AcDbPolyline
 90
2
 70
0
 10
170.6879898400000002
 20
137.2869746000000362
 42
-0.4142135623728789
 10
171.9579898400000104
 20
136.0169745999999975
 42
-0.4142135623728789
  0
LWPOLYLINE
  5
7B
  8
KeepOutLayer
 62
256
370
-1
  6
ByLayer
100
AcDbEntity
100
AcDbPolyline
 90
2
 70
1
 10
170.6244898399999954
 20
137.2869746000000077
 42
0.9999999999999999
 10
170.751489840000005
 20
137.2869746000000077
 42
0.9999999999999999
  0
LWPOLYLINE
  5
7C
  8
KeepOutLayer
 62
256
370
-1
  6
ByLayer
100
AcDbEntity
100
AcDbPolyline
 90
2
 70
1
 10
171.8944898400000056
 20
136.0169745999999975
 42
0.9999999999999999
 10
172.0214898399999583
 20
136.0169745999999975
 42
0.9999999999999999
  0
LWPOLYLINE
  5
7D
  8
KeepOutLayer
 62
256
370
-1
  6
ByLayer
100
AcDbEntity
100
AcDbPolyline
 90
2
 70
0
 10
170.6879898400000002
 20
137.2869746000000077
 42
-0.4142135623728723
 10
169.4179898400000184
 20
138.5569745999999896
 42
-0.4142135623728723
  0
LWPOLYLINE
  5
7E
  8
KeepOutLayer
 62
256
370
-1
  6
ByLayer
100
AcDbEntity
100
AcDbPolyline
 90
2
 70
1
 10
170.6244898399999954
 20
137.2869746000000077
 42
0.9999999999999999
 10
170.751489840000005
 20
137.2869746000000077
 42
0.9999999999999999
  0
LWPOLYLINE
  5
7F
  8
KeepOutLayer
 62
256
370
-1
  6
ByLayer
100
AcDbEntity
100
AcDbPolyline
 90
2
 70
1
 10
169.354489840000042
 20
138.5569745999999896
 42
0.9999999999999999
 10
169.4814898399999947
 20
138.5569745999999896
 42
0.9999999999999999
  0
LWPOLYLINE
  5
80
  8
KeepOutLayer
 62
256
370
-1
  6
ByLayer
100
AcDbEntity
100
AcDbPolyline
 90
2
 70
0
 10
166.8779999999999859
 20
151.2570000000000334
 42
-0.4142135623728786
 10
169.4180000000000064
 20
148.717000000000013
 42
-0.4142135623728786
  0
LWPOLYLINE
  5
81
  8
KeepOutLayer
 62
256
370
-1
  6
ByLayer
100
AcDbEntity
100
AcDbPolyline
 90
2
 70
1
 10
166.8145000000000095
 20
151.257000000000005
 42
0.9999999999999999
 10
166.9414999999999623
 20
151.257000000000005
 42
0.9999999999999999
  0
LWPOLYLINE
  5
82
  8
KeepOutLayer
 62
256
370
-1
  6
ByLayer
100
AcDbEntity
100
AcDbPolyline
 90
2
 70
1
 10
169.3545000000000016
 20
148.717000000000013
 42
0.9999999999999999
 10
169.4815000000000111
 20
148.717000000000013
 42
0.9999999999999999
  0
ENDSEC
  0
SECTION
  2
OBJECTS
  0
DICTIONARY
  5
C
100
AcDbDictionary
280
0
281
1
  3
ACAD_GROUP
350
D
  3
ACAD_LAYOUT
350
1A
  3
ACAD_MLINESTYLE
350
17
  3
ACAD_PLOTSETTINGS
350
19
  3
ACAD_PLOTSTYLENAME
350
E
  3
AcDbVariableDictionary
350
83
  0
DICTIONARY
  5
D
100
AcDbDictionary
280
0
281
1
  0
ACDBDICTIONARYWDFLT
  5
E
100
AcDbDictionary
281
1
  3
Normal
350
F
100
AcDbDictionaryWithDefault
340
F
  0
ACDBPLACEHOLDER
  5
F
  0
DICTIONARY
  5
17
100
AcDbDictionary
280
0
281
1
  3
Standard
350
18
  0
MLINESTYLE
  5
18
100
AcDbMlineStyle
  2
STANDARD
 70
0
  3

 62
256
 51
90.0
 52
90.0
 71
2
 49
0.5
 62
256
  6
BYLAYER
 49
-0.5
 62
256
  6
BYLAYER
  0
DICTIONARY
  5
19
100
AcDbDictionary
280
0
281
1
  0
DICTIONARY
  5
1A
100
AcDbDictionary
281
1
  3
Layout1
350
1E
  3
Layout2
350
26
  3
Model
350
22
  0
LAYOUT
  5
1E
100
AcDbPlotSettings
  1

  2
C:\Program Files\AutoCAD 2002\plotters\DWF ePlot (optimized for plotting).pc3
  4

  6

 40
0.0
 41
0.0
 42
0.0
 43
0.0
 44
0.0
 45
0.0
 46
0.0
 47
0.0
 48
0.0
 49
0.0
140
0.0
141
0.0
142
1.0
143
1.0
 70
688
 72
0
 73
0
 74
5
  7

 75
16
147
1.0
148
0.0
149
0.0
100
AcDbLayout
  1
Layout1
 70
1
 71
1
 10
0.0
 20
0.0
 11
420.0
 21
297.0
 12
0.0
 22
0.0
 32
0.0
 14
100000000000000000000.0
 24
100000000000000000000.0
 34
100000000000000000000.0
 15
-100000000000000000000.0
 25
-100000000000000000000.0
 35
-100000000000000000000.0
146
0.0
 13
0.0
 23
0.0
 33
0.0
 16
1.0
 26
0.0
 36
0.0
 17
0.0
 27
1.0
 37
0.0
 76
0
330
1B
  0
LAYOUT
  5
22
100
AcDbPlotSettings
  1

  2
C:\Program Files\AutoCAD 2002\plotters\DWF ePlot (optimized for plotting).pc3
  4

  6

 40
0.0
 41
0.0
 42
0.0
 43
0.0
 44
0.0
 45
0.0
 46
0.0
 47
0.0
 48
0.0
 49
0.0
140
0.0
141
0.0
142
1.0
143
1.0
 70
1712
 72
0
 73
0
 74
0
  7

 75
0
147
1.0
148
0.0
149
0.0
100
AcDbLayout
  1
Model
 70
1
 71
0
 10
0.0
 20
0.0
 11
12.0
 21
9.0
 12
0.0
 22
0.0
 32
0.0
 14
0.0
 24
0.0
 34
0.0
 15
0.0
 25
0.0
 35
0.0
146
0.0
 13
0.0
 23
0.0
 33
0.0
 16
1.0
 26
0.0
 36
0.0
 17
0.0
 27
1.0
 37
0.0
 76
0
330
1F
  0
LAYOUT
  5
26
100
AcDbPlotSettings
  1

  2
C:\Program Files\AutoCAD 2002\plotters\DWF ePlot (optimized for plotting).pc3
  4

  6

 40
0.0
 41
0.0
 42
0.0
 43
0.0
 44
0.0
 45
0.0
 46
0.0
 47
0.0
 48
0.0
 49
0.0
140
0.0
141
0.0
142
1.0
143
1.0
 70
688
 72
0
 73
0
 74
5
  7

 75
16
147
1.0
148
0.0
149
0.0
100
AcDbLayout
  1
Layout2
 70
1
 71
2
 10
0.0
 20
0.0
 11
12.0
 21
9.0
 12
0.0
 22
0.0
 32
0.0
 14
0.0
 24
0.0
 34
0.0
 15
0.0
 25
0.0
 35
0.0
146
0.0
 13
0.0
 23
0.0
 33
0.0
 16
1.0
 26
0.0
 36
0.0
 17
0.0
 27
1.0
 37
0.0
 76
0
330
23
  0
DICTIONARY
  5
83
100
AcDbDictionary
281
1
  3
DIMASSOC
350
85
  3
HIDETEXT
350
84
  0
DICTIONARYVAR
  5
84
100
DictionaryVariables
280
0
  1
2
  0
DICTIONARYVAR
  5
85
100
DictionaryVariables
280
0
  1
1
  0
ENDSEC
  0
EOF
